<?xml version="1.0" encoding="utf-8"?>
<!-- Generator: Adobe Illustrator 19.0.0, SVG Export Plug-In . SVG Version: 6.00 Build 0)  -->
<svg version="1.1" xmlns="http://www.w3.org/2000/svg" xmlns:xlink="http://www.w3.org/1999/xlink" x="0px" y="0px"
	 viewBox="0 0 98.5 134.3" style="enable-background:new 0 0 98.5 134.3;" xml:space="preserve">
<style type="text/css">
	.st0{display:none;}
	.st1{display:inline;}
	.st2{display:inline;fill:#FFFFFF;}
</style>
<g id="Layer_1" class="st0">
	<g class="st1">
		
			<image style="overflow:visible;" width="840" height="617" id="da7ONP" xlink:href="C4E8A52B.jpg"  transform="matrix(1 0 0 1 -293.4276 -270.0378)">
		</image>
	</g>
	<rect x="-147.1" y="-147.4" class="st2" width="426.7" height="362"/>
</g>
<g id="P">
	<g>
		<g>
			<path d="M0,108.5V93h71.5v15.4H0z"/>
		</g>
		<g>
			<path d="M0,82.6V67.1h50.6v15.4H0z"/>
		</g>
		<g>
			<path d="M86.8,11.1C78.9,4,66.5,0,49.4,0c-13.8,0-24.7,1.2-33,2.6v131.7h17.2V15c3-0.8,8.7-1.4,16.2-1.4c19,0,31.4,8.5,31.4,26.1
				c0,16.9-11.3,27.4-30.7,27.4v15.4c21.8,0,29.4-6.5,37.6-15.1C94.9,60.5,98.5,51,98.5,39C98.5,27.1,94.1,17.4,86.8,11.1z"/>
		</g>
		<g>
			<path d="M0,108.5V93h71.5v15.4H0z"/>
		</g>
		<g>
			<path d="M0,82.6V67.1h50.6v15.4H0z"/>
		</g>
		<g>
			<path d="M86.8,11.1C78.9,4,66.5,0,49.4,0c-13.8,0-24.7,1.2-33,2.6v131.7h17.2V15c3-0.8,8.7-1.4,16.2-1.4c19,0,31.4,8.5,31.4,26.1
				c0,16.9-11.3,27.4-30.7,27.4v15.4c21.8,0,29.4-6.5,37.6-15.1C94.9,60.5,98.5,51,98.5,39C98.5,27.1,94.1,17.4,86.8,11.1z"/>
		</g>
	</g>
</g>
<g id="T_1_" class="st0">
</g>
</svg>
