<?xml version="1.0" standalone="no"?>
<!DOCTYPE svg PUBLIC "-//W3C//DTD SVG 1.1//EN" "http://www.w3.org/Graphics/SVG/1.1/DTD/svg11.dtd" >
<svg xmlns="http://www.w3.org/2000/svg">
<metadata>Generated by IcoMoon</metadata>
<defs>
<font id="icomoon" horiz-adv-x="1024">
<font-face units-per-em="1024" ascent="1024" descent="0" />
<missing-glyph horiz-adv-x="1024" />
<glyph unicode="&#x20;" d="" />
<glyph unicode="&#x41;" glyph-name="resize" d="M0 196.192v-205.2h205.2v205.2h-205.2zM410.401 196.192v-205.2h204.199v205.2h-204.199zM819.801 196.192v-205.2h205.2v205.2h-205.2zM410.401 605.591v-204.199h204.199v204.199h-204.199zM819.801 605.591v-204.199h205.2v204.199h-205.2zM819.801 1015.992v-205.2h205.2v205.2h-205.2z" />
<glyph unicode="&#x61;" glyph-name="chat" d="M910.89 567.554h-114.111c-12.012-72.070-74.072-112.109-170.166-114.111 0-10.010-10.010-10.010 0 0h-170.166v-114.111c0-30.029 24.023-66.065 56.055-114.111 34.033 16.016 54.053 10.010 56.055 0h114.111l114.111-114.111c20.020 2.002 26.025 0 58.057 0-24.023 2.002-20.020 2.002 0 0-10.010 6.006-6.006 14.014 0 0v114.111h56.055c36.035 10.010 74.072 34.033 114.111 58.057-4.004 38.037 0 58.057 0 56.055v114.111c0 40.039-24.023 78.076-56.055 114.111-36.035-4.004-54.053 0-58.057 0zM796.778 681.666v170.166c0 56.055-30.029 108.106-114.111 172.168-6.006-10.010-38.037 0-56.055 0h-456.446c-50.049 0-104.102-30.029-114.111-58.057-46.045-58.057-56.055-90.088-56.055-114.111v-170.166c0-66.065 30.029-118.115 114.111-170.166 6.006-2.002 40.039-12.012 56.055 0h58.057v-172.168c4.004 12.012 8.008 6.006 0 0 30.029 2.002 36.035 4.004 56.055 0l172.168 172.168h170.166c52.051-12.012 104.102 18.018 114.111 56.055 46.045 48.047 56.055 80.078 56.055 114.111z" />
<glyph unicode="&#xe070;" glyph-name="msg-arrow-right" d="M1053 24q-710 61-881 488.5t-143 488.5l745-227v-341q18-219 141.5-315t137.5-94z" />
<glyph unicode="&#xe071;" glyph-name="msg-arrow-left" d="M1024 1001q-47-14-372-114l-373-113v-341q-18-219-141.5-315t-137.5-94q710 61 881 488.5t143 488.5v0z" />
<glyph unicode="&#xe078;" glyph-name="send" d="M920.579 855.836h96.094v-672.657h-739.602v-80.078q0-7.047-4.004-9.77t-9.129-0.16l-259.133 131.969q-4.805 2.242-4.805 6.086t4.805 6.086l259.133 131.969q5.125 2.563 9.129-0.16t4.004-9.77v-80.078h643.508v576.563z" />
<glyph unicode="&#xe145;" glyph-name="untitled1" horiz-adv-x="641" d="M619.485 1006.062q3.844 4.484 8.328 3.043t4.484-9.129v-992.97q0-7.047-4.004-8.969t-8.809 2.883l-614.68 492.641q-9.93 9.93 0 19.859z" />
<glyph unicode="&#xe146;" glyph-name="untitled2" horiz-adv-x="641" d="M0 967.945q0 7.047 4.164 8.969t8.969-2.883l614.36-492.641q9.93-9.93 0-19.859l-614.36-492.641q-4.805-4.805-8.969-2.883t-4.164 8.969v992.97z" />
<glyph unicode="&#xe177;" glyph-name="email" d="M16.016 855.836h992.97q7.047 0 11.531-4.484t4.484-11.531v-64.063q0-7.367-4.484-13.613t-11.531-8.488l-483.352-244.078q-4.805-2.242-13.453-2.242t-15.695 2.242l-483.352 244.078q-5.125 2.563-9.129 8.969t-4.004 13.133v64.063q0 7.047 4.484 11.531t11.531 4.484zM8.008 658.523q2.883 0 5.125-0.961l486.235-244.078q4.805-2.242 13.453-2.242t15.695 2.242l483.352 244.078q5.125 2.563 9.129-0.16t4.004-9.77v-480.469q0-7.047-4.484-11.531t-11.531-4.484h-992.97q-7.047 0-11.531 4.484t-4.484 11.531v480.469q0 10.891 8.008 10.891z" />
<glyph unicode="&#xe1b8;" glyph-name="file-mobile" d="M914.893 759.742h-68.066l-38.037 74.072v2.002c-24.023 34.033-52.051 52.051-82.080 52.051h-214.209c-30.029 0-60.059-18.018-82.080-52.051l-56.055-76.074h-118.115v22.022c0 34.033-32.031 64.063-66.065 64.063h-40.039c-34.033 0-64.063-30.029-64.063-64.063v-24.023c-70.068-6.006-86.084-54.053-86.084-92.090v-444.434c0-64.063 40.039-102.1 110.108-102.1h804.786c70.068 0 110.108 38.037 110.108 102.1v444.434c0 42.041-18.018 94.092-110.108 94.092zM150.147 801.783h40.039c12.012 0 24.023-10.010 24.023-20.020v-22.022h-86.084l2.002 22.022c0 10.010 10.010 20.020 20.020 20.020zM982.96 221.216c0-42.041-22.022-60.059-68.066-60.059h-804.786c-46.045 0-68.066 18.018-68.066 60.059v444.434c0 30.029 12.012 52.051 64.063 52.051h288.282l72.070 94.092c8.008 12.012 26.025 34.033 46.045 34.033h214.209c20.020 0 36.035-20.020 44.043-32.031l48.047-96.094h96.094c62.061 0 68.066-26.025 68.066-52.051zM618.604 717.701c-140.137 0-256.25-116.113-256.25-256.25 0-142.139 116.113-256.25 256.25-256.25 142.139 0 256.25 114.111 256.25 256.25 0 140.137-114.111 256.25-256.25 256.25zM618.604 247.241c-116.113 0-212.207 96.094-212.207 214.209 0 116.113 96.094 212.207 212.207 212.207 118.115 0 214.209-96.094 214.209-212.207 0-118.115-96.094-214.209-214.209-214.209zM618.604 609.595c-82.080 0-148.145-66.065-148.145-148.145 0-84.082 66.065-150.147 148.145-150.147 84.082 0 150.147 66.065 150.147 150.147 0 82.080-66.065 148.145-150.147 148.145zM618.604 353.345c-58.057 0-106.104 48.047-106.104 108.106 0 58.057 48.047 106.104 106.104 106.104 60.059 0 108.106-48.047 108.106-106.104 0-60.059-48.047-108.106-108.106-108.106zM170.166 673.658c-46.045 0-84.082-38.037-84.082-84.082 0-48.047 38.037-86.084 84.082-86.084 48.047 0 86.084 38.037 86.084 86.084 0 46.045-38.037 84.082-86.084 84.082zM170.166 545.533c-22.022 0-42.041 20.020-42.041 44.043 0 22.022 20.020 42.041 42.041 42.041 24.023 0 44.043-20.020 44.043-42.041 0-24.023-20.020-44.043-44.043-44.043z" />
<glyph unicode="&#xe1e0;" glyph-name="file" horiz-adv-x="929" d="M764.587 986.844q31.391 0 61.020-12.332t53.012-35.715q31.070-31.070 42.121-72.391t0-82.481-42.121-72.231l-588.415-595.462h-0.961q-27.547-27.547-67.106-27.547t-67.106 27.547-27.547 66.945 27.547 66.945q32.352 32.672 160.957 160.957t197.473 198.434l44.844-44.844q-53.492-54.453-109.227-110.508t-139.176-139.176-110.027-109.707q-22.102-22.102 0-44.203t44.203 0l589.376 595.782q29.469 29.469 29.469 68.547t-29.469 68.547-68.547 29.469-68.547-29.469l-586.493-598.665q-45.805-45.805-45.645-112.27t46.606-114.832q30.109-31.391 70.789-41.961t82 0.801 73.352 42.121q59.898 59.898 179.695 179.215t179.695 178.895l45.164-45.805q-70.149-68.867-198.434-197.473t-160.957-160.957v-0.961q-43.563-41.641-100.738-57.176t-114.672-0.961-99.777 57.176l-3.203 1.922q-41.961 43.883-56.856 101.859t0.32 115.633 57.496 99.938l585.532 598.344h1.281q48.047 48.047 113.070 48.047z" />
<glyph unicode="&#xe1e4;" glyph-name="group" d="M512.5 727.711q54.453 0 91.289-39.398t36.836-104.742q0-44.523-17.137-85.043t-46.926-65.824-64.063-25.305-64.063 25.305-46.926 65.824-17.137 85.043q0 65.344 36.836 104.742t91.289 39.398zM224.219 695.679q46.125 0 79.117-38.598t32.992-95.613q0-39.398-15.215-74.953t-41.16-57.336-55.734-21.781-55.734 21.781-41.16 57.336-15.215 74.953q0 58.938 32.672 96.574t79.438 37.637zM800.782 695.679q46.125 0 79.117-38.598t32.992-95.613q0-39.398-15.215-74.953t-41.16-57.336-55.734-21.781-55.734 21.781-41.16 57.336-15.215 74.953q0 58.938 32.672 96.574t79.438 37.637zM112.109 439.429h2.883l13.133-13.133q19.539-24.344 45.004-37.637t53.973-13.293h7.047q2.563 2.563 2.242-2.242 0-4.484-2.242-10.891-9.93-24.664-9.93-50.93v-16.016q0-7.047-4.484-11.531t-11.531-4.484h-192.188q-7.047 0-11.531 4.484t-4.484 11.531v32.031q0 45.484 33.313 78.797t78.797 33.313zM384.375 439.429h6.086q2.883 0 5.926-1.602t8.809-5.766 8.008-5.766q40.68-50.93 102.18-50.93 62.461 0 103.141 50.93 2.242 4.484 7.848 8.809t8.168 4.324h6.086q52.852 0 90.488-37.637t37.637-90.488v-48.047q0-7.047-4.484-11.531t-11.531-4.484h-480.469q-7.047 0-11.531 4.484t-4.484 11.531v48.047q0 52.852 37.637 90.488t90.488 37.637zM909.688 439.429q47.727 0 81.52-33.152t33.793-78.957v-32.031q0-7.047-4.484-11.531t-11.531-4.484h-192.188q-7.047 0-11.531 4.484t-4.484 11.531v16.016q0 25.305-10.25 50.93-2.563 4.805-2.563 8.969t2.563 4.164h7.047q28.508 0 54.133 13.293t45.164 37.637z" />
<glyph unicode="&#xe1e6;" glyph-name="name" d="M512.5 1015.992q52.531 0 99.457-20.5t81.68-57.336 54.934-91.449 20.18-118.996q0-44.523-7.047-87.285t-20.82-82.32-35.555-72.711-49.488-57.816-64.383-38.438-78.957-13.773q-42.922 0-80.078 13.773t-64.863 38.438-49.168 57.816-34.914 72.711-20.34 82.16-6.887 87.445q0 64.383 20.18 118.996t54.934 91.449 81.68 57.336 99.457 20.5zM256.25 375.367h13.133q3.203 0 7.047-1.121t6.406-2.563 6.406-3.523 5.125-2.723q43.563-41.32 99.938-63.742t118.195-22.422 118.195 22.422 99.938 63.742q19.859 9.93 24.984 9.93h13.133q51.891 0 99.297-20.34t81.84-54.773 54.773-81.84 20.34-99.297v-112.109q0-7.047-4.484-11.531t-11.531-4.484h-992.97q-7.047 0-11.531 4.484t-4.484 11.531v112.109q0 51.891 20.34 99.297t54.773 81.84 81.84 54.773 99.297 20.34z" />
<glyph unicode="&#xe1ec;" glyph-name="print" d="M256.25 919.898h512.5v-256.25h-512.5v256.25zM192.188 823.804h32.031v-192.188h576.563v192.188h32.031v-192.188h176.172q7.047 0 11.531-4.484t4.484-11.531v-416.407q0-7.047-4.484-11.531t-11.531-4.484h-208.203v192.188h-576.563v-192.188h-208.203q-7.047 0-11.531 4.484t-4.484 11.531v416.407q0 7.047 4.484 11.531t11.531 4.484h176.172v192.188zM944.923 567.554q-7.047 0-11.531-4.484t-4.484-11.531 4.484-11.531 11.531-4.484 11.531 4.484 4.484 11.531-4.484 11.531-11.531 4.484zM944.923 503.492q-7.047 0-11.531-4.484t-4.484-11.531 4.484-11.531 11.531-4.484 11.531 4.484 4.484 11.531-4.484 11.531-11.531 4.484zM256.25 343.335h512.5v-288.282h-512.5v288.282z" />
<glyph unicode="&#xe216;" glyph-name="time" horiz-adv-x="961" d="M384.375 1015.992h160.156v-32.031h-32.031v-65.984q57.656-6.086 111.789-26.266t99.938-51.25 83.922-73.191 64.703-90.809 41.32-105.383 14.734-115.633q0-63.102-16.656-123.16t-46.766-110.988-73.031-93.852-93.852-73.031-110.988-46.766-123.16-16.656-123.16 16.656-110.988 46.766-93.852 73.031-73.031 93.852-46.766 110.988-16.656 123.16q0 58.938 14.734 115.633t41.32 105.383 64.703 90.809 83.922 73.191 99.938 51.25 111.789 26.266v65.984h-32.031v32.031zM464.454 823.804q-75.274 0-143.5-29.148t-117.395-78.316-78.316-117.395-29.148-143.5 29.148-143.5 78.316-117.395 117.395-78.316 143.5-29.148 143.5 29.148 117.395 78.316 78.316 117.395 29.148 143.5-29.148 143.5-78.316 117.395-117.395 78.316-143.5 29.148zM704.688 695.679q-189.305-255.93-205.321-275.149-14.414-14.414-33.473-14.414t-33.473 14.414-14.414 33.473 14.414 33.473q7.047 8.648 75.113 60.699t132.449 99.777z" />
<glyph unicode="&#xe221;" glyph-name="sound-on" horiz-adv-x="833" d="M432.422 855.836q7.047 0 11.531-4.004t4.484-9.129v-736.719q0-7.367-4.484-11.691t-11.531-4.324q-19.219 0-29.148 9.93l-229.985 201.477q-9.93 9.93-29.148 9.93h-128.125q-7.047 0-11.531 4.484t-4.484 11.531v288.282q0 7.047 4.484 11.531t11.531 4.484h128.125q19.219 0 29.148 9.93l229.985 204.36q9.93 9.93 29.148 9.93zM720.704 743.726q53.492-53.492 82.801-123.16t29.309-149.106-29.309-149.106-82.801-123.16l-45.164 44.844q44.523 44.523 68.867 102.5t24.344 124.922-24.344 124.762-68.867 102.34zM583.61 606.632q26.586-26.586 41.801-61.18t15.215-73.992-15.215-73.992-41.801-61.18l-46.125 46.125q39.078 39.078 39.078 89.047t-39.078 89.047z" />
<glyph unicode="&#xe222;" glyph-name="sound-off" horiz-adv-x="897" d="M432.422 855.836q7.047 0 11.531-4.004t4.484-9.129v-736.719q0-7.367-4.484-11.691t-11.531-4.324q-19.219 0-29.148 9.93l-229.985 201.477q-9.93 9.93-29.148 9.93h-128.125q-7.047 0-11.531 4.484t-4.484 11.531v288.282q0 7.047 4.484 11.531t11.531 4.484h128.125q19.219 0 29.148 9.93l229.985 204.36q9.93 9.93 29.148 9.93zM615.641 638.664l105.063-105.063 105.063 105.063 46.125-46.125-105.063-105.063 105.063-105.063-46.125-46.125-105.063 105.063-105.063-105.063-46.125 46.125 105.063 105.063-105.063 105.063z" />
<glyph unicode="&#xe2c3;" glyph-name="uniE2C3" d="M490.479 1015.992c-270.264 0-490.479-220.215-490.479-490.479 0-130.127 50.049-254.248 144.141-346.338 92.090-94.092 214.209-146.143 346.338-146.143 0 0 0 0 0 0 270.264 0 490.479 220.215 492.481 490.479 0 270.264-220.215 492.481-492.481 492.481zM490.479 77.075v0c-120.117 0-232.227 46.045-316.309 132.129-86.084 84.082-132.129 196.192-132.129 316.309 2.002 246.24 202.197 448.438 450.44 448.438 246.24-2.002 448.438-202.197 446.436-450.44 0-246.24-200.196-446.436-448.438-446.436zM688.673 721.705c-10.010 8.008-22.022 8.008-32.031 0l-166.162-166.162-164.16 166.162c-10.010 8.008-22.022 8.008-32.031 0-8.008-8.008-8.008-22.022 0-30.029l166.162-166.162-166.162-166.162c-8.008-8.008-8.008-22.022 0-30.029 4.004-4.004 10.010-6.006 16.016-6.006 4.004 0 10.010 2.002 14.014 6.006l166.162 166.162 166.162-168.164c4.004-4.004 10.010-6.006 16.016-6.006 4.004 0 10.010 2.002 14.014 6.006 8.008 10.010 8.008 22.022 0 30.029l-166.162 168.164 168.164 164.16c8.008 10.010 8.008 22.022 0 32.031z" />
<glyph unicode="&#xf00c;" glyph-name="check" d="M955.79 696.822c0-14.3-5.72-28.599-16.016-38.895l-491.909-491.909c-10.296-10.296-24.595-16.016-38.895-16.016s-28.599 5.72-38.895 16.016l-284.849 284.849c-10.296 10.296-16.016 24.595-16.016 38.895s5.72 28.599 16.016 38.895l77.79 77.79c10.296 10.296 24.595 16.016 38.895 16.016s28.599-5.72 38.895-16.016l168.164-168.736 375.223 375.796c10.296 10.296 24.595 16.016 38.895 16.016s28.599-5.72 38.895-16.016l77.79-77.79c10.296-10.296 16.016-24.595 16.016-38.895z" />
<glyph unicode="&#xf013;" glyph-name="cog" horiz-adv-x="879" d="M585.715 508.067c0 80.65-65.778 146.429-146.429 146.429s-146.429-65.778-146.429-146.429 65.778-146.429 146.429-146.429 146.429 65.778 146.429 146.429zM878.572 570.414v-126.981c0-8.579-6.864-18.875-16.016-20.591l-105.817-16.016c-6.292-18.304-13.156-35.464-22.308-52.051 19.448-28.027 40.039-53.195 61.203-78.934 3.432-4.004 5.72-9.152 5.72-14.3s-1.716-9.152-5.148-13.156c-13.727-18.304-90.946-102.386-110.394-102.386-5.148 0-10.296 2.288-14.872 5.148l-78.934 61.774c-16.587-8.579-34.32-16.016-52.051-21.735-4.004-34.891-7.436-72.070-16.587-106.39-2.288-9.152-10.296-16.016-20.591-16.016h-126.981c-10.296 0-19.448 7.436-20.591 17.16l-16.016 105.246c-17.731 5.72-34.891 12.583-51.479 21.164l-80.65-61.203c-4.004-3.432-9.152-5.148-14.3-5.148s-10.296 2.288-14.3 6.292c-30.316 27.456-70.355 62.918-94.378 96.094-2.86 4.004-4.004 8.579-4.004 13.156 0 5.148 1.716 9.152 4.575 13.156 19.448 26.312 40.611 51.479 60.059 78.363-9.723 18.304-17.731 37.179-23.452 56.626l-104.673 15.444c-9.723 1.716-16.587 10.868-16.587 20.591v126.981c0 8.579 6.864 18.875 15.444 20.591l106.39 16.016c5.72 18.304 13.156 35.464 22.308 52.622-19.448 27.456-40.039 53.195-61.203 78.934-3.432 4.004-5.72 8.579-5.72 13.727s2.288 9.152 5.148 13.156c13.727 18.875 90.946 102.386 110.394 102.386 5.148 0 10.296-2.288 14.872-5.72l78.934-61.203c16.587 8.579 34.32 16.016 52.051 21.735 4.004 34.891 7.436 72.070 16.587 106.39 2.288 9.152 10.296 16.016 20.591 16.016h126.981c10.296 0 19.448-7.436 20.591-17.16l16.016-105.246c17.731-5.72 34.891-12.583 51.479-21.164l81.222 61.203c3.432 3.432 8.579 5.148 13.727 5.148s10.296-2.288 14.3-5.72c30.316-28.027 70.355-63.491 94.378-97.238 2.86-3.432 4.004-8.008 4.004-12.583 0-5.148-1.716-9.152-4.575-13.156-19.448-26.312-40.611-51.479-60.059-78.363 9.723-18.304 17.731-37.179 23.452-56.055l104.673-16.016c9.723-1.716 16.587-10.868 16.587-20.591z" />
<glyph unicode="&#xf021;" glyph-name="refresh" horiz-adv-x="879" d="M864.273 416.549c0-1.144 0-2.86-0.572-4.004-48.618-202.484-215.64-343.765-426.703-343.765-111.538 0-219.643 44.043-300.865 121.261l-73.786-73.786c-6.864-6.864-16.016-10.868-25.739-10.868-20.020 0-36.607 16.587-36.607 36.607v256.25c0 20.020 16.587 36.607 36.607 36.607h256.25c20.020 0 36.607-16.587 36.607-36.607 0-9.723-4.004-18.875-10.868-25.739l-78.363-78.363c53.767-50.335 125.265-78.934 199.051-78.934 101.813 0 196.192 52.622 249.387 139.565 13.727 22.308 20.591 44.043 30.316 66.922 2.86 8.008 8.579 13.156 17.16 13.156h109.821c10.296 0 18.304-8.579 18.304-18.304zM878.572 874.139v-256.25c0-20.020-16.587-36.607-36.607-36.607h-256.25c-20.020 0-36.607 16.587-36.607 36.607 0 9.723 4.004 18.875 10.868 25.739l78.934 78.934c-54.339 50.335-125.837 78.363-199.624 78.363-101.813 0-196.192-52.622-249.387-139.565-13.727-22.308-20.591-44.043-30.316-66.922-2.86-8.008-8.579-13.156-17.16-13.156h-113.825c-10.296 0-18.304 8.579-18.304 18.304v4.004c49.191 203.055 217.927 343.765 428.99 343.765 112.109 0 221.359-44.615 302.581-121.261l74.359 73.786c6.864 6.864 16.016 10.868 25.739 10.868 20.020 0 36.607-16.587 36.607-36.607z" />
<glyph unicode="&#xf073;" glyph-name="calendar" horiz-adv-x="952" d="M73.214 68.781h164.732v164.732h-164.732v-164.732zM274.554 68.781h183.036v164.732h-183.036v-164.732zM73.214 270.121h164.732v183.036h-164.732v-183.036zM274.554 270.121h183.036v183.036h-183.036v-183.036zM73.214 489.763h164.732v164.732h-164.732v-164.732zM494.197 68.781h183.036v164.732h-183.036v-164.732zM274.554 489.763h183.036v164.732h-183.036v-164.732zM713.84 68.781h164.732v164.732h-164.732v-164.732zM494.197 270.121h183.036v183.036h-183.036v-183.036zM292.857 764.317v164.732c0 9.723-8.579 18.304-18.304 18.304h-36.607c-9.723 0-18.304-8.579-18.304-18.304v-164.732c0-9.723 8.579-18.304 18.304-18.304h36.607c9.723 0 18.304 8.579 18.304 18.304zM713.84 270.121h164.732v183.036h-164.732v-183.036zM494.197 489.763h183.036v164.732h-183.036v-164.732zM713.84 489.763h164.732v164.732h-164.732v-164.732zM732.144 764.317v164.732c0 9.723-8.579 18.304-18.304 18.304h-36.607c-9.723 0-18.304-8.579-18.304-18.304v-164.732c0-9.723 8.579-18.304 18.304-18.304h36.607c9.723 0 18.304 8.579 18.304 18.304zM951.786 800.924v-732.144c0-40.039-33.175-73.214-73.214-73.214h-805.357c-40.039 0-73.214 33.175-73.214 73.214v732.144c0 40.039 33.175 73.214 73.214 73.214h73.214v54.911c0 50.335 41.183 91.518 91.518 91.518h36.607c50.335 0 91.518-41.183 91.518-91.518v-54.911h219.643v54.911c0 50.335 41.183 91.518 91.518 91.518h36.607c50.335 0 91.518-41.183 91.518-91.518v-54.911h73.214c40.039 0 73.214-33.175 73.214-73.214z" />
<glyph unicode="&#xf087;" glyph-name="thumbs-o-up" horiz-adv-x="879" d="M146.429 251.817c0 20.020-16.587 36.607-36.607 36.607s-36.607-16.587-36.607-36.607 16.587-36.607 36.607-36.607 36.607 16.587 36.607 36.607zM805.357 581.282c0 38.895-34.891 73.214-73.214 73.214h-201.34c0 66.922 54.911 115.542 54.911 183.036 0 66.922-13.156 109.821-91.518 109.821-36.607-37.179-17.731-124.693-73.214-183.036-16.016-16.587-29.743-34.32-44.043-52.051-25.739-33.175-93.806-130.985-138.993-130.985h-18.304v-366.071h18.304c32.031 0 84.654-20.591 115.542-31.46 62.918-21.735 128.125-41.755 195.62-41.755h69.211c64.634 0 109.821 25.739 109.821 95.522 0 10.868-1.144 21.735-2.86 32.031 24.023 13.156 37.179 45.759 37.179 72.070 0 13.727-3.432 27.456-10.296 39.468 19.448 18.304 30.316 41.183 30.316 68.066 0 18.304-8.008 45.187-20.020 58.915 26.883 0.572 42.899 52.051 42.899 73.214zM878.572 581.853c0-33.175-9.723-65.778-28.027-93.234 3.432-12.583 5.148-26.312 5.148-39.468 0-28.599-7.436-57.199-21.735-82.366 1.144-8.008 1.716-16.587 1.716-24.595 0-36.607-12.012-73.214-34.32-101.813 1.144-108.106-72.642-171.597-178.46-171.597h-73.786c-81.222 0-156.724 24.023-232.227 50.335-16.587 5.72-62.918 22.879-78.934 22.879h-164.732c-40.611 0-73.214 32.603-73.214 73.214v366.071c0 40.611 32.603 73.214 73.214 73.214h156.724c22.308 14.872 61.203 66.351 78.363 88.658 19.448 25.168 39.468 49.763 61.203 73.214 34.32 36.607 16.016 126.981 73.214 183.036 13.727 13.156 32.031 21.164 51.479 21.164 59.487 0 116.685-21.164 144.712-76.646 17.731-34.891 20.020-68.066 20.020-106.39 0-40.039-10.296-74.359-27.456-109.821h100.669c78.934 0 146.429-66.922 146.429-145.856z" />
<glyph unicode="&#xf088;" glyph-name="thumbs-o-down" horiz-adv-x="879" d="M146.429 764.317c0 20.020-16.587 36.607-36.607 36.607s-36.607-16.587-36.607-36.607 16.587-36.607 36.607-36.607 36.607 16.587 36.607 36.607zM805.357 434.853c0 21.164-16.016 72.642-42.899 73.214 12.012 13.727 20.020 40.611 20.020 58.915 0 26.883-10.868 49.763-30.316 68.066 6.864 12.012 10.296 25.739 10.296 39.468 0 26.312-13.156 58.915-37.179 72.070 1.716 10.296 2.86 21.164 2.86 32.031 0 66.922-42.327 95.522-105.817 95.522h-73.214c-67.495 0-132.701-20.020-195.62-41.755-30.887-10.868-83.511-31.46-115.542-31.46h-18.304v-366.071h18.304c45.187 0 113.254-97.81 138.993-130.985 14.3-17.731 28.027-35.464 44.043-52.051 55.483-58.343 36.607-145.856 73.214-183.036 78.363 0 91.518 42.899 91.518 109.821 0 67.495-54.911 116.113-54.911 183.036h201.34c38.323 0 73.214 34.32 73.214 73.214zM878.572 434.281c0-78.934-67.495-145.856-146.429-145.856h-100.669c17.16-35.464 27.456-69.782 27.456-109.821 0-37.751-2.288-72.070-20.020-106.39-28.027-55.483-85.226-76.646-144.712-76.646-19.448 0-37.751 8.008-51.479 21.164-57.199 56.055-39.468 146.429-73.214 183.608-21.735 22.879-41.755 47.475-61.203 72.642-17.16 22.308-56.055 73.786-78.363 88.658h-156.724c-40.611 0-73.214 32.603-73.214 73.214v366.071c0 40.611 32.603 73.214 73.214 73.214h164.732c16.016 0 62.347 17.16 78.934 22.879 82.366 28.599 153.864 50.335 241.95 50.335h64.063c104.102 0 179.032-61.774 178.46-168.736v-2.86c22.308-28.599 34.32-65.207 34.32-101.813 0-8.008-0.572-16.587-1.716-24.595 14.3-25.168 21.735-53.767 21.735-82.366 0-13.156-1.716-26.883-5.148-39.468 18.304-27.456 28.027-60.059 28.027-93.234z" />
<glyph unicode="&#xf095;" glyph-name="phone" horiz-adv-x="806" d="M805.357 311.304c0-20.591-9.152-60.63-17.731-79.507-12.012-28.027-44.043-46.331-69.782-60.63-33.747-18.304-68.066-29.171-106.39-29.171-53.195 0-101.242 21.735-149.86 39.468-34.891 12.583-68.638 28.027-100.098 47.475-97.238 60.059-214.495 177.316-274.554 274.554-19.448 31.46-34.891 65.207-47.475 100.098-17.731 48.618-39.468 96.665-39.468 149.86 0 38.323 10.868 72.642 29.171 106.39 14.3 25.739 32.603 57.77 60.63 69.782 18.875 8.579 58.915 17.731 79.507 17.731 4.004 0 8.008 0 12.012-1.716 12.012-4.004 24.595-32.031 30.316-43.471 18.304-32.603 36.035-65.778 54.911-97.81 9.152-14.872 26.312-33.175 26.312-50.907 0-34.891-103.53-85.798-103.53-116.685 0-15.444 14.3-35.464 22.308-49.191 57.77-104.102 129.841-176.172 233.942-233.942 13.727-8.008 33.747-22.308 49.191-22.308 30.887 0 81.794 103.53 116.685 103.53 17.731 0 36.035-17.16 50.907-26.312 32.031-18.875 65.207-36.607 97.81-54.911 11.44-5.72 39.468-18.304 43.471-30.316 1.716-4.004 1.716-8.008 1.716-12.012z" />
<glyph unicode="&#xf0c9;" glyph-name="bars" horiz-adv-x="879" d="M878.572 251.817v-73.214c0-20.020-16.587-36.607-36.607-36.607h-805.357c-20.020 0-36.607 16.587-36.607 36.607v73.214c0 20.020 16.587 36.607 36.607 36.607h805.357c20.020 0 36.607-16.587 36.607-36.607zM878.572 544.674v-73.214c0-20.020-16.587-36.607-36.607-36.607h-805.357c-20.020 0-36.607 16.587-36.607 36.607v73.214c0 20.020 16.587 36.607 36.607 36.607h805.357c20.020 0 36.607-16.587 36.607-36.607zM878.572 837.532v-73.214c0-20.020-16.587-36.607-36.607-36.607h-805.357c-20.020 0-36.607 16.587-36.607 36.607v73.214c0 20.020 16.587 36.607 36.607 36.607h805.357c20.020 0 36.607-16.587 36.607-36.607z" />
<glyph unicode="&#xf0d7;" glyph-name="caret_down" horiz-adv-x="586" d="M0 613.313q0 14.872 10.868 25.739t25.739 10.868h512.5q14.872 0 25.739-10.868t10.868-25.739-10.868-25.739l-256.25-256.25q-10.868-10.868-25.739-10.868t-25.739 10.868l-256.25 256.25q-10.868 10.868-10.868 25.739z" />
<glyph unicode="&#xf104;" glyph-name="angle_left" horiz-adv-x="366" d="M25.739 466.885q0 7.436 5.72 13.156l266.546 266.546q5.72 5.72 13.156 5.72t13.156-5.72l28.599-28.599q5.72-5.72 5.72-13.156t-5.72-13.156l-224.791-224.791 224.791-224.791q5.72-5.72 5.72-13.156t-5.72-13.156l-28.599-28.599q-5.72-5.72-13.156-5.72t-13.156 5.72l-266.546 266.546q-5.72 5.72-5.72 13.156z" />
</font>
</defs>
</svg>
