<?xml version="1.0" encoding="utf-8"?>
<!-- Generator: Adobe Illustrator 19.2.1, SVG Export Plug-In . SVG Version: 6.00 Build 0)  -->
<svg version="1.1" id="Layer_2" xmlns="http://www.w3.org/2000/svg" xmlns:xlink="http://www.w3.org/1999/xlink" x="0px" y="0px"
	 viewBox="0 0 40 40" style="enable-background:new 0 0 40 40;" xml:space="preserve">
<style type="text/css">
	.st0{fill:#4FBDCE;}
	.st1{fill:#E5FBFF;}
	.st2{fill-rule:evenodd;clip-rule:evenodd;fill:#4FBDCE;}
	.st3{fill:#4B67BA;}
	.st4{fill:#4B6C9E;}
	.st5{fill:#EE3B3F;}
	.st6{fill:#EE8106;}
	.st7{fill:url(#SVGID_1_);}
	.st8{fill:#FFFFFF;}
	.st9{fill-rule:evenodd;clip-rule:evenodd;fill:#FFFFFF;}
</style>
<circle class="st0" cx="20" cy="20" r="20"/>
<circle class="st1" cx="20" cy="20" r="18"/>
<g>
	<path class="st0" d="M24.7,7.5h-9.4c-4.3,0-7.8,3.5-7.8,7.8v9.4c0,4.3,3.5,7.8,7.8,7.8h9.4c4.3,0,7.8-3.5,7.8-7.8v-9.4
		C32.5,11,29,7.5,24.7,7.5z M30.5,24.8c0,3.1-2.5,5.7-5.7,5.7h-9.7c-3.1,0-5.7-2.5-5.7-5.7v-9.7c0-3.1,2.5-5.7,5.7-5.7h9.7
		c3.1,0,5.7,2.5,5.7,5.7V24.8z"/>
	<path class="st0" d="M20,14c-3.3,0-6,2.7-6,6s2.7,6,6,6s6-2.7,6-6S23.3,14,20,14z M20,24c-2.2,0-4-1.8-4-4c0-2.2,1.8-4,4-4
		s4,1.8,4,4C24,22.2,22.2,24,20,24z"/>
	<circle class="st0" cx="26.7" cy="13.3" r="1"/>
</g>
</svg>
