<?xml version="1.0" encoding="utf-8"?>
<!-- Generator: Adobe Illustrator 15.1.0, SVG Export Plug-In . SVG Version: 6.00 Build 0)  -->
<!DOCTYPE svg PUBLIC "-//W3C//DTD SVG 1.1//EN" "http://www.w3.org/Graphics/SVG/1.1/DTD/svg11.dtd">
<svg version="1.1" id="Слой_1" xmlns="http://www.w3.org/2000/svg" xmlns:xlink="http://www.w3.org/1999/xlink" x="0px" y="0px"
	 width="30px" height="30px" viewBox="0 0 30 30" enable-background="new 0 0 30 30" xml:space="preserve">
<g>
	<g>
		<defs>
			<path id="SVGID_1_" d="M41.715,15.085c0,8.008,6.49,14.5,14.5,14.5c8.008,0,14.498-6.492,14.498-14.5
				c0-8.01-6.49-14.5-14.498-14.5C48.205,0.585,41.715,7.075,41.715,15.085"/>
		</defs>
		<clipPath id="SVGID_2_">
			<use xlink:href="#SVGID_1_"  overflow="visible"/>
		</clipPath>
		<rect x="41.324" y="0.388" clip-path="url(#SVGID_2_)" fill="#C8313E" width="58.779" height="29.391"/>
		<rect x="41.324" y="19.981" clip-path="url(#SVGID_2_)" fill="#4AA657" width="58.779" height="9.797"/>
		<rect x="41.324" y="0.388" clip-path="url(#SVGID_2_)" fill="#FFFFFF" width="6.531" height="29.391"/>
		<path clip-path="url(#SVGID_2_)" fill="#C8313E" d="M42.461,0.388h0.852V0.87h0.285v0.482h0.283v0.482h0.283v0.48h0.285v0.482
			h-0.285v0.48h-0.283v0.482h-0.283v0.482h-0.285v0.482h-0.283v0.48h-0.285v-0.48h-0.283V4.243h-0.283V3.761h-0.285V3.278h-0.283
			v-0.48h-0.285V2.315h0.285v-0.48h0.283V1.353h0.285V0.87h0.283V0.388z M42.744,1.353h0.285v0.482h0.283v0.48h0.285v0.482h-0.285
			v0.48h-0.283v0.482h-0.285V3.278h-0.283v-0.48h-0.283V2.315h0.283v-0.48h0.283V1.353z M42.744,2.315h0.285v0.482h-0.285V2.315z
			 M41.324,0.87h0.285v0.482h-0.285V0.87z M41.324,3.761h0.285v0.482h-0.285V3.761z M44.449,0.388h0.17v0.965h-0.17V0.388z
			 M44.449,3.761h0.17v0.965h-0.17V3.761z M41.893,4.726h0.285v0.48h0.283v0.482h0.283v0.482h-0.283v0.48h-0.283v0.482h-0.285V6.651
			h-0.283v-0.48h-0.285V5.688h0.285V5.206h0.283V4.726z M41.893,5.688h0.285v0.482h-0.285V5.688z M43.598,4.726h0.283v0.48h0.283
			v0.482h0.285v0.482h-0.285v0.48h-0.283v0.482h-0.283V6.651h-0.285v-0.48h-0.283V5.688h0.283V5.206h0.285V4.726z M43.598,5.688
			h0.283v0.482h-0.283V5.688z M41.324,7.614h0.285v0.482h-0.285V7.614z M44.449,7.134h0.17v0.965h-0.17V7.134z"/>
		<path clip-path="url(#SVGID_2_)" fill="#C8313E" d="M41.324,9.062h0.285V8.579h0.283V8.097h0.285V7.614h0.283v-0.48h0.283V6.651
			h0.285v0.482h0.283v0.48h0.285v0.482h0.283v0.482h0.283v0.482h0.285v0.482h0.17v1.926h-0.17v0.482h-0.285v0.48h-0.283v0.482
			h-0.283v0.482h-0.285v0.482h-0.283v1.252h-0.568v-0.289h-0.283V14.36h-0.285v-0.48h-0.283v-0.482h-0.285v-1.445h0.285v0.48h0.283
			v0.482h0.285v0.482h0.283v-0.482h0.283v-0.482h0.285v-0.48h0.283V11.47h0.285v-0.482h0.283v-0.48h-0.283v-0.482h-0.285v-0.48
			h-0.852v0.48h0.568v0.482h-0.285v0.48h-0.283v0.482h-0.283v-0.482h-0.285v-0.48h-0.283v-0.482h-0.285V9.062z M41.324,10.987h0.285
			v0.482h-0.285V10.987z M44.449,12.433h0.17v0.482h-0.17V12.433z M43.881,13.397h0.283v0.482h0.285v0.48h0.17v0.771h-0.17v-0.289
			h-0.285V14.36h-0.283V13.397z M43.313,14.843h0.285v0.289h-0.285V14.843z"/>
		<path clip-path="url(#SVGID_2_)" fill="#C8313E" d="M46.721,0.388h-0.854V0.87h-0.283v0.482h-0.283v0.482h-0.283v0.48h-0.285
			v0.482h0.285v0.48h0.283v0.482h0.283v0.482h0.283v0.482h0.285v0.48h0.283v-0.48h0.285V4.243h0.283V3.761h0.283V3.278h0.285v-0.48
			h0.283V2.315h-0.283v-0.48h-0.285V1.353h-0.283V0.87h-0.283V0.388z M46.436,1.353h-0.283v0.482h-0.285v0.48h-0.283v0.482h0.283
			v0.48h0.285v0.482h0.283V3.278h0.285v-0.48h0.283V2.315h-0.283v-0.48h-0.285V1.353z M46.436,2.315h-0.283v0.482h0.283V2.315z
			 M47.855,0.87h-0.283v0.482h0.283V0.87z M47.855,3.761h-0.283v0.482h0.283V3.761z M44.732,0.388h-0.17v0.965h0.17V0.388z
			 M44.732,3.761h-0.17v0.965h0.17V3.761z M47.287,4.726h-0.283v0.48h-0.283v0.482h-0.285v0.482h0.285v0.48h0.283v0.482h0.283V6.651
			h0.285v-0.48h0.283V5.688h-0.283V5.206h-0.285V4.726z M47.287,5.688h-0.283v0.482h0.283V5.688z M45.584,4.726h-0.283v0.48h-0.283
			v0.482h-0.285v0.482h0.285v0.48h0.283v0.482h0.283V6.651h0.283v-0.48h0.285V5.688h-0.285V5.206h-0.283V4.726z M45.584,5.688
			h-0.283v0.482h0.283V5.688z M47.855,7.614h-0.283v0.482h0.283V7.614z M44.732,7.134h-0.17v0.965h0.17V7.134z"/>
		<path clip-path="url(#SVGID_2_)" fill="#C8313E" d="M47.855,9.062h-0.283V8.579h-0.285V8.097h-0.283V7.614h-0.283v-0.48h-0.285
			V6.651h-0.283v0.482h-0.285v0.48h-0.283v0.482h-0.283v0.482h-0.283v0.482h-0.285v0.482h-0.17v1.926h0.17v0.482h0.285v0.48h0.283
			v0.482h0.283v0.482h0.283v0.482h0.285v1.252h0.568v-0.289h0.283V14.36h0.283v-0.48h0.285v-0.482h0.283v-1.445h-0.283v0.48h-0.285
			v0.482h-0.283v0.482h-0.283v-0.482h-0.285v-0.482h-0.283v-0.48h-0.285V11.47h-0.283v-0.482h-0.283v-0.48h0.283v-0.482h0.283v-0.48
			h0.854v0.48h-0.568v0.482h0.283v0.48h0.285v0.482h0.283v-0.482h0.283v-0.48h0.285v-0.482h0.283V9.062z M47.855,10.987h-0.283
			v0.482h0.283V10.987z M44.732,12.433h-0.17v0.482h0.17V12.433z M45.301,13.397h-0.283v0.482h-0.285v0.48h-0.17v0.771h0.17v-0.289
			h0.285V14.36h0.283V13.397z M45.867,14.843h-0.283v0.289h0.283V14.843z"/>
		<path clip-path="url(#SVGID_2_)" fill="#C8313E" d="M42.461,29.778h0.852v-0.482h0.285v-0.48h0.283v-0.482h0.283v-0.482h0.285
			v-0.48h-0.285v-0.482h-0.283v-0.482h-0.283v-0.48h-0.285v-0.482h-0.283V24.96h-0.285v0.482h-0.283v0.482h-0.283v0.48h-0.285v0.482
			h-0.283v0.482h-0.285v0.48h0.285v0.482h0.283v0.482h0.285v0.48h0.283V29.778z M42.744,28.815h0.285v-0.482h0.283v-0.482h0.285
			v-0.48h-0.285v-0.482h-0.283v-0.482h-0.285v0.482h-0.283v0.482h-0.283v0.48h0.283v0.482h0.283V28.815z M42.744,27.851h0.285v-0.48
			h-0.285V27.851z M41.324,29.296h0.285v-0.482h-0.285V29.296z M41.324,26.405h0.285v-0.48h-0.285V26.405z M44.449,29.778h0.17
			v-0.965h-0.17V29.778z M44.449,26.405h0.17v-0.963h-0.17V26.405z M41.893,25.442h0.285V24.96h0.283v-0.482h0.283v-0.48h-0.283
			v-0.482h-0.283v-0.48h-0.285v0.48h-0.283v0.482h-0.285v0.48h0.285v0.482h0.283V25.442z M41.893,24.478h0.285v-0.48h-0.285V24.478z
			 M43.598,25.442h0.283V24.96h0.283v-0.482h0.285v-0.48h-0.285v-0.482h-0.283v-0.48h-0.283v0.48h-0.285v0.482h-0.283v0.48h0.283
			v0.482h0.285V25.442z M43.598,24.478h0.283v-0.48h-0.283V24.478z M41.324,22.552h0.285v-0.482h-0.285V22.552z M44.449,23.034h0.17
			v-0.965h-0.17V23.034z"/>
		<path clip-path="url(#SVGID_2_)" fill="#C8313E" d="M41.324,21.106h0.285v0.482h0.283v0.48h0.285v0.482h0.283v0.482h0.283v0.48
			h0.285v-0.48h0.283v-0.482h0.285v-0.482h0.283v-0.48h0.283v-0.482h0.285v-0.482h0.17v-1.928h-0.17v-0.48h-0.285v-0.482h-0.283
			v-0.482h-0.283v-0.48h-0.285v-0.482h-0.283v-1.252h-0.568v0.289h-0.283v0.48h-0.285v0.482h-0.283v0.482h-0.285v1.445h0.285v-0.482
			h0.283v-0.482h0.285v-0.48h0.283v0.48h0.283v0.482h0.285v0.482h0.283v0.48h0.285v0.482h0.283v0.482h-0.283v0.48h-0.285v0.482
			h-0.852v-0.482h0.568v-0.48h-0.285v-0.482h-0.283v-0.482h-0.283v0.482h-0.285v0.482h-0.283v0.48h-0.285V21.106z M41.324,19.179
			h0.285v-0.482h-0.285V19.179z M44.449,17.733h0.17v-0.482h-0.17V17.733z M43.881,16.771h0.283v-0.482h0.285v-0.482h0.17v-0.77
			h-0.17v0.289h-0.285v0.48h-0.283V16.771z M43.313,15.325h0.285v-0.289h-0.285V15.325z"/>
		<path clip-path="url(#SVGID_2_)" fill="#C8313E" d="M46.721,29.778h-0.854v-0.482h-0.283v-0.48h-0.283v-0.482h-0.283v-0.482
			h-0.285v-0.48h0.285v-0.482h0.283v-0.482h0.283v-0.48h0.283v-0.482h0.285V24.96h0.283v0.482h0.285v0.482h0.283v0.48h0.283v0.482
			h0.285v0.482h0.283v0.48h-0.283v0.482h-0.285v0.482h-0.283v0.48h-0.283V29.778z M46.436,28.815h-0.283v-0.482h-0.285v-0.482
			h-0.283v-0.48h0.283v-0.482h0.285v-0.482h0.283v0.482h0.285v0.482h0.283v0.48h-0.283v0.482h-0.285V28.815z M46.436,27.851h-0.283
			v-0.48h0.283V27.851z M47.855,29.296h-0.283v-0.482h0.283V29.296z M47.855,26.405h-0.283v-0.48h0.283V26.405z M44.732,29.778
			h-0.17v-0.965h0.17V29.778z M44.732,26.405h-0.17v-0.963h0.17V26.405z M47.287,25.442h-0.283V24.96h-0.283v-0.482h-0.285v-0.48
			h0.285v-0.482h0.283v-0.48h0.283v0.48h0.285v0.482h0.283v0.48h-0.283v0.482h-0.285V25.442z M47.287,24.478h-0.283v-0.48h0.283
			V24.478z M45.584,25.442h-0.283V24.96h-0.283v-0.482h-0.285v-0.48h0.285v-0.482h0.283v-0.48h0.283v0.48h0.283v0.482h0.285v0.48
			h-0.285v0.482h-0.283V25.442z M45.584,24.478h-0.283v-0.48h0.283V24.478z M47.855,22.552h-0.283v-0.482h0.283V22.552z
			 M44.732,23.034h-0.17v-0.965h0.17V23.034z"/>
		<path clip-path="url(#SVGID_2_)" fill="#C8313E" d="M47.855,21.106h-0.283v0.482h-0.285v0.48h-0.283v0.482h-0.283v0.482h-0.285
			v0.48h-0.283v-0.48h-0.285v-0.482h-0.283v-0.482h-0.283v-0.48h-0.283v-0.482h-0.285v-0.482h-0.17v-1.928h0.17v-0.48h0.285v-0.482
			h0.283v-0.482h0.283v-0.48h0.283v-0.482h0.285v-1.252h0.568v0.289h0.283v0.48h0.283v0.482h0.285v0.482h0.283v1.445h-0.283v-0.482
			h-0.285v-0.482h-0.283v-0.48h-0.283v0.48h-0.285v0.482h-0.283v0.482h-0.285v0.48h-0.283v0.482h-0.283v0.482h0.283v0.48h0.283
			v0.482h0.854v-0.482h-0.568v-0.48h0.283v-0.482h0.285v-0.482h0.283v0.482h0.283v0.482h0.285v0.48h0.283V21.106z M47.855,19.179
			h-0.283v-0.482h0.283V19.179z M44.732,17.733h-0.17v-0.482h0.17V17.733z M45.301,16.771h-0.283v-0.482h-0.285v-0.482h-0.17v-0.77
			h0.17v0.289h0.285v0.48h0.283V16.771z M45.867,15.325h-0.283v-0.289h0.283V15.325z"/>
	</g>
	<g>
		<defs>
			<path id="SVGID_3_" d="M-40.619,15.085c0,8.008,6.492,14.5,14.501,14.5c8.008,0,14.5-6.492,14.5-14.5
				c0-8.01-6.492-14.5-14.5-14.5C-34.126,0.585-40.619,7.075-40.619,15.085"/>
		</defs>
		<clipPath id="SVGID_4_">
			<use xlink:href="#SVGID_3_"  overflow="visible"/>
		</clipPath>
		<rect x="-49.466" y="0.585" clip-path="url(#SVGID_4_)" fill="#FFFFFF" width="44.443" height="9.688"/>
		<rect x="-49.466" y="10.272" clip-path="url(#SVGID_4_)" fill="#27A2E1" width="44.443" height="9.689"/>
		<rect x="-49.466" y="19.962" clip-path="url(#SVGID_4_)" fill="#ED1C14" width="44.443" height="9.689"/>
	</g>
	<g>
		<defs>
			<path id="SVGID_5_" d="M0.549,15.085c0,8.008,6.49,14.5,14.5,14.5c8.008,0,14.5-6.492,14.5-14.5c0-8.01-6.492-14.5-14.5-14.5
				C7.039,0.585,0.549,7.075,0.549,15.085"/>
		</defs>
		<clipPath id="SVGID_6_">
			<use xlink:href="#SVGID_5_"  overflow="visible"/>
		</clipPath>
		<rect x="-30.521" y="-6.072" clip-path="url(#SVGID_6_)" fill="#00AFCA" width="84.621" height="42.311"/>
		<path clip-path="url(#SVGID_6_)" fill="#FEC50C" d="M15.195,6.005c3.143,0,5.691,2.551,5.691,5.693
			c0,3.145-2.549,5.693-5.691,5.693c-3.145,0-5.693-2.549-5.693-5.693C9.502,8.556,12.051,6.005,15.195,6.005"/>
		<path clip-path="url(#SVGID_6_)" fill="#FEC50C" d="M15.195,5.229c0.338-0.004,0.465-0.217,0.465-0.471
			c0-0.338-0.465-1.949-0.465-1.949s-0.467,1.611-0.467,1.949C14.729,5.013,14.855,5.229,15.195,5.229"/>
		<path clip-path="url(#SVGID_6_)" fill="#FEC50C" d="M21.664,11.698c0.004,0.34,0.215,0.465,0.469,0.465
			c0.34,0,1.951-0.465,1.951-0.465s-1.611-0.465-1.951-0.465C21.879,11.233,21.664,11.36,21.664,11.698"/>
		<path clip-path="url(#SVGID_6_)" fill="#FEC50C" d="M15.195,18.167c-0.34,0.006-0.467,0.217-0.467,0.471
			c0,0.338,0.467,1.951,0.467,1.951s0.465-1.613,0.465-1.951C15.66,18.384,15.533,18.167,15.195,18.167"/>
		<path clip-path="url(#SVGID_6_)" fill="#FEC50C" d="M8.725,11.698c-0.004-0.338-0.215-0.465-0.469-0.465
			c-0.338,0-1.951,0.465-1.951,0.465s1.613,0.465,1.951,0.465C8.51,12.163,8.725,12.038,8.725,11.698"/>
		<path clip-path="url(#SVGID_6_)" fill="#FEC50C" d="M17.67,5.722c0.314,0.127,0.514-0.021,0.609-0.256
			c0.129-0.313,0.316-1.98,0.316-1.98S17.549,4.798,17.42,5.11C17.322,5.345,17.357,5.593,17.67,5.722"/>
		<path clip-path="url(#SVGID_6_)" fill="#FEC50C" d="M21.172,14.175c-0.127,0.314,0.02,0.512,0.256,0.609
			c0.313,0.129,1.98,0.316,1.98,0.316s-1.313-1.047-1.625-1.176C21.549,13.827,21.301,13.862,21.172,14.175"/>
		<path clip-path="url(#SVGID_6_)" fill="#FEC50C" d="M12.719,17.675c-0.314-0.125-0.514,0.021-0.609,0.256
			c-0.129,0.314-0.316,1.98-0.316,1.98s1.047-1.311,1.176-1.623C13.066,18.052,13.031,17.806,12.719,17.675"/>
		<path clip-path="url(#SVGID_6_)" fill="#FEC50C" d="M9.217,9.224c0.127-0.314-0.02-0.514-0.256-0.611
			C8.65,8.483,6.982,8.298,6.982,8.298s1.311,1.047,1.623,1.176C8.84,9.569,9.088,9.536,9.217,9.224"/>
		<path clip-path="url(#SVGID_6_)" fill="#FEC50C" d="M19.77,7.124c0.242,0.236,0.482,0.178,0.66-0.002
			c0.24-0.24,1.051-1.709,1.051-1.709s-1.469,0.811-1.709,1.051C19.592,6.642,19.529,6.886,19.77,7.124"/>
		<path clip-path="url(#SVGID_6_)" fill="#FEC50C" d="M19.77,16.272c-0.236,0.242-0.178,0.482,0.002,0.662
			c0.24,0.24,1.709,1.049,1.709,1.049s-0.811-1.469-1.051-1.707C20.252,16.097,20.008,16.034,19.77,16.272"/>
		<path clip-path="url(#SVGID_6_)" fill="#FEC50C" d="M10.619,16.272c-0.24-0.234-0.48-0.176-0.66,0.004
			c-0.24,0.238-1.051,1.707-1.051,1.707s1.471-0.809,1.709-1.049C10.797,16.755,10.859,16.513,10.619,16.272"/>
		<path clip-path="url(#SVGID_6_)" fill="#FEC50C" d="M10.619,7.124c0.236-0.242,0.178-0.482-0.002-0.66
			c-0.238-0.24-1.709-1.051-1.709-1.051s0.811,1.469,1.051,1.709C10.139,7.302,10.381,7.362,10.619,7.124"/>
		<path clip-path="url(#SVGID_6_)" fill="#FEC50C" d="M21.172,9.224c0.133,0.311,0.377,0.346,0.611,0.25
			c0.313-0.129,1.625-1.176,1.625-1.176s-1.668,0.186-1.98,0.314C21.191,8.71,21.041,8.909,21.172,9.224"/>
		<path clip-path="url(#SVGID_6_)" fill="#FEC50C" d="M17.67,17.675c-0.311,0.133-0.348,0.377-0.25,0.613
			c0.129,0.313,1.176,1.623,1.176,1.623s-0.188-1.666-0.316-1.98C18.184,17.696,17.982,17.546,17.67,17.675"/>
		<path clip-path="url(#SVGID_6_)" fill="#FEC50C" d="M9.217,14.175c-0.133-0.311-0.377-0.348-0.611-0.25
			c-0.313,0.129-1.623,1.176-1.623,1.176s1.668-0.188,1.979-0.316C9.197,14.687,9.348,14.487,9.217,14.175"/>
		<path clip-path="url(#SVGID_6_)" fill="#FEC50C" d="M12.719,5.722c0.311-0.133,0.348-0.377,0.25-0.611
			c-0.129-0.313-1.176-1.625-1.176-1.625s0.188,1.668,0.316,1.98C12.205,5.7,12.406,5.853,12.719,5.722"/>
		<path clip-path="url(#SVGID_6_)" fill="#FEC50C" d="M16.457,5.354c0.332,0.061,0.498-0.121,0.547-0.371
			c0.066-0.332-0.076-2.004-0.076-2.004s-0.77,1.492-0.836,1.824C16.043,5.052,16.125,5.288,16.457,5.354"/>
		<path clip-path="url(#SVGID_6_)" fill="#FEC50C" d="M21.539,12.96c-0.063,0.334,0.121,0.5,0.371,0.549
			c0.332,0.066,2.004-0.076,2.004-0.076s-1.492-0.771-1.824-0.836C21.842,12.546,21.605,12.628,21.539,12.96"/>
		<path clip-path="url(#SVGID_6_)" fill="#FEC50C" d="M13.932,18.044c-0.332-0.063-0.498,0.121-0.547,0.369
			c-0.066,0.332,0.076,2.004,0.076,2.004s0.77-1.49,0.836-1.822C14.346,18.345,14.264,18.11,13.932,18.044"/>
		<path clip-path="url(#SVGID_6_)" fill="#FEC50C" d="M8.85,10.437c0.063-0.332-0.121-0.498-0.371-0.549
			c-0.33-0.064-2.004,0.076-2.004,0.076s1.492,0.771,1.824,0.838C8.547,10.851,8.783,10.769,8.85,10.437"/>
		<path clip-path="url(#SVGID_6_)" fill="#FEC50C" d="M18.789,6.319c0.283,0.186,0.506,0.08,0.648-0.131
			c0.188-0.281,0.695-1.881,0.695-1.881S18.85,5.39,18.662,5.671C18.521,5.882,18.508,6.132,18.789,6.319"/>
		<path clip-path="url(#SVGID_6_)" fill="#FEC50C" d="M20.574,15.292c-0.186,0.285-0.08,0.508,0.131,0.648
			c0.281,0.188,1.881,0.697,1.881,0.697s-1.082-1.283-1.363-1.471C21.012,15.026,20.762,15.013,20.574,15.292"/>
		<path clip-path="url(#SVGID_6_)" fill="#FEC50C" d="M11.6,17.077c-0.283-0.184-0.506-0.078-0.646,0.133
			c-0.189,0.281-0.697,1.879-0.697,1.879s1.283-1.08,1.471-1.361C11.867,17.517,11.881,17.267,11.6,17.077"/>
		<path clip-path="url(#SVGID_6_)" fill="#FEC50C" d="M9.816,8.104C10,7.821,9.895,7.597,9.684,7.456
			C9.402,7.269,7.803,6.759,7.803,6.759s1.082,1.283,1.363,1.473C9.377,8.372,9.627,8.386,9.816,8.104"/>
		<path clip-path="url(#SVGID_6_)" fill="#FEC50C" d="M20.574,8.104c0.191,0.279,0.438,0.268,0.648,0.127
			c0.281-0.189,1.363-1.473,1.363-1.473s-1.6,0.51-1.881,0.697C20.494,7.597,20.385,7.823,20.574,8.104"/>
		<path clip-path="url(#SVGID_6_)" fill="#FEC50C" d="M18.789,17.077c-0.279,0.193-0.268,0.439-0.127,0.65
			c0.188,0.281,1.471,1.361,1.471,1.361s-0.508-1.598-0.695-1.879C19.295,16.999,19.07,16.89,18.789,17.077"/>
		<path clip-path="url(#SVGID_6_)" fill="#FEC50C" d="M9.816,15.292c-0.193-0.277-0.439-0.266-0.65-0.125
			c-0.281,0.188-1.363,1.471-1.363,1.471s1.6-0.51,1.881-0.697C9.895,15.8,10.004,15.573,9.816,15.292"/>
		<path clip-path="url(#SVGID_6_)" fill="#FEC50C" d="M11.6,6.319c0.279-0.191,0.268-0.438,0.127-0.648
			c-0.188-0.281-1.471-1.363-1.471-1.363s0.508,1.6,0.697,1.881C11.094,6.399,11.318,6.507,11.6,6.319"/>
		<path clip-path="url(#SVGID_6_)" fill="#FEC50C" d="M21.539,10.437c0.07,0.332,0.303,0.414,0.551,0.365
			c0.332-0.066,1.824-0.838,1.824-0.838s-1.672-0.141-2.004-0.076C21.66,9.938,21.473,10.104,21.539,10.437"/>
		<path clip-path="url(#SVGID_6_)" fill="#FEC50C" d="M16.457,18.044c-0.332,0.07-0.414,0.301-0.365,0.551
			c0.066,0.332,0.836,1.822,0.836,1.822s0.143-1.672,0.076-2.004C16.955,18.165,16.789,17.978,16.457,18.044"/>
		<path clip-path="url(#SVGID_6_)" fill="#FEC50C" d="M8.85,12.96c-0.07-0.33-0.303-0.414-0.551-0.363
			c-0.332,0.064-1.824,0.836-1.824,0.836s1.674,0.143,2.004,0.076C8.729,13.46,8.916,13.292,8.85,12.96"/>
		<path clip-path="url(#SVGID_6_)" fill="#FEC50C" d="M13.932,5.354c0.332-0.07,0.414-0.303,0.365-0.551
			c-0.066-0.332-0.836-1.824-0.836-1.824s-0.143,1.672-0.076,2.004C13.434,5.233,13.6,5.419,13.932,5.354"/>
		<path clip-path="url(#SVGID_6_)" fill="#FEC50C" d="M14.18,24.03c-0.152,0.008-0.301,0.029-0.447,0.076
			c-0.199,0.027-0.389,0.096-0.586,0.127l-0.078,0.014l-0.133,0.012c0.008,0.037,0.014,0.074,0.014,0.111s-0.004,0.074-0.014,0.105
			c-0.008,0.029-0.035,0.064-0.057,0.088c-0.029,0.031-0.059,0.059-0.094,0.076c-0.033,0.016-0.072,0.023-0.109,0.025
			c-0.039,0.002-0.078,0-0.115-0.014c-0.037-0.012-0.072-0.037-0.105-0.064c-0.039,0.01-0.08,0.018-0.119,0.021
			s-0.074,0.004-0.109,0c-0.041-0.012-0.082-0.025-0.119-0.041c-0.039-0.014-0.076-0.035-0.111-0.057
			c-0.143,0.084-0.303,0.166-0.391,0.313c-0.049,0.068-0.061,0.146-0.07,0.227c-0.008,0.098,0.018,0.201,0.061,0.295
			c0.016,0.025,0.027-0.098,0.074-0.115c0.082-0.066,0.182-0.115,0.283-0.141c0.086-0.045,0.074,0.004,0.039,0.07
			c-0.008,0.035-0.055,0.168,0.008,0.102c0.287-0.127,0.605-0.152,0.914-0.178c0.447-0.045,0.898-0.055,1.348-0.061
			c0.424,0.006,0.846,0.012,1.27,0.027c0.201,0.006,0.404,0.051,0.604,0.016c0.049-0.012,0.123-0.014,0.15-0.043
			c-0.09-0.053-0.195-0.053-0.295-0.066h-0.807c-0.225-0.021-0.459-0.025-0.67-0.109c-0.057-0.023-0.109-0.076-0.162-0.02
			c-0.08,0.029-0.166,0.049-0.252,0.055c-0.148,0.012-0.295-0.02-0.434-0.074c0.1-0.139,0.217-0.258,0.326-0.385
			c-0.088-0.014-0.172-0.031-0.26-0.053C13.887,24.265,14.029,24.144,14.18,24.03"/>
		<path clip-path="url(#SVGID_6_)" fill="#FEC50C" d="M20.768,25.493c-0.307,0.184-0.539-0.143-0.797-0.24
			c-0.184,0.098-0.199,0.432-0.371,0.588c-0.203,0.234-0.455-0.064-0.436-0.295c-0.246,0.207-0.369,0.674-0.764,0.613
			c-0.189-0.154-0.328-0.475-0.471-0.109c-0.117,0.18-0.428,0.434-0.59,0.162c-0.049-0.238-0.168-0.518-0.299-0.139
			c-0.088,0.268-0.373,0.465-0.648,0.348c-0.152-0.125,0.121-0.582-0.072-0.549c-0.287,0.191-0.455,0.662-0.857,0.625
			c-0.154-0.176,0.096-0.473-0.076-0.666c-0.201,0.258-0.426,0.639-0.773,0.666c-0.17-0.137,0.006-0.529-0.104-0.588
			c-0.357,0.215-0.734,0.598-1.186,0.479c0.176-0.672,0.91-0.906,1.527-0.961c1.061-0.129,2.178,0.111,3.199-0.273
			c0.164-0.1,0.564-0.242,0.422-0.475c-0.125-0.184,0.328-0.111,0.373-0.328c-0.027-0.271,0.207-0.234,0.438-0.258
			c1.031-0.045,2.049,0.172,3.078,0.209c0.078,0.502-0.479,0.854-0.926,0.699c-0.213,0.035-0.533-0.492-0.471-0.109
			C20.922,25.093,20.951,25.358,20.768,25.493 M11.992,24.466c0.24,0.221,0.406-0.041,0.629-0.135
			c0.75-0.258,1.402-0.709,2.047-1.158c0.391-0.322,0.729-0.742,1.252-0.846c1.021-0.309,2.109-0.271,3.135-0.557
			c0.781-1.07,2.107-1.451,3.219-2.066c0.25-0.076,0.346-0.283,0.426-0.51c0.424-0.67,1.002-1.264,1.686-1.668
			c0.324-0.178,0.711-0.279,1.076-0.197c-0.025,0.436-0.275,0.822-0.578,1.123c0.246-0.004,0.459-0.16,0.709-0.152
			c0.086,0.447-0.398,0.682-0.654,0.961c0.143,0.033,0.691,0.074,0.393,0.219c-0.381,0.264-0.816,0.445-1.168,0.752
			c0.324,0.059,0.361,0.127,0.031,0.244c-0.178,0.121-0.521,0.164-0.555,0.4c0.244,0.15-0.113,0.299-0.25,0.348
			c-0.266,0.063-0.543,0.178-0.191,0.377c-0.133,0.201-0.418,0.244-0.65,0.225c0.07,0.227,0.174,0.48-0.123,0.582
			c-0.66,0.5-1.436,0.863-2.268,0.947c1.039,0.078,2.107-0.113,2.994-0.68c0.117-0.137,0.732-0.287,0.389-0.402
			c-0.162-0.068-0.508-0.143-0.533-0.266c0.482-0.297,1.086-0.191,1.604-0.367c0.014-0.168-0.393-0.121-0.545-0.158
			c-0.361-0.029-0.34-0.123,0.01-0.156c0.439-0.117,0.939-0.141,1.311-0.428c-0.303-0.141-0.682-0.018-1.004-0.131
			c0.545-0.238,1.189-0.264,1.682-0.621c0.223-0.25-0.287-0.172-0.436-0.166c-0.303,0.053-0.441-0.092-0.1-0.219
			c0.588-0.432,1.33-0.713,1.744-1.34c0.096-0.141,0.229-0.563-0.082-0.412c-0.41,0.137-0.771,0.598-1.238,0.455
			c0.92-0.713,1.795-1.523,2.424-2.51c0.033-0.285-0.414-0.316-0.529-0.092c-0.592,0.568-1.125,1.24-1.883,1.598
			c0.725-0.699,1.324-1.527,1.846-2.385c0.111-0.256,0.414-0.563,0.25-0.846c-0.264-0.219-0.594-0.02-0.73,0.242
			c-0.459,0.6-0.807,1.299-1.396,1.787c0.516-0.986,1.051-2.037,1.064-3.176c-0.002-0.234-0.049-0.578-0.367-0.535
			c-0.252,0.045-0.191,0.422-0.297,0.613c-0.229,0.779-0.336,1.621-0.805,2.301c0.104-0.631,0.289-1.291,0.146-1.928
			c-0.064-0.285-0.525-0.162-0.467,0.119c-0.549,2.787-2.42,5.223-4.865,6.633c-1.119,0.635-2.369,1.043-3.643,1.227
			c-0.342,0.076-0.713,0.031-1.039,0.148c-0.793,0.609-1.271,1.625-2.277,1.945c-0.449,0.223-1.035,0.268-1.357,0.686
			C11.998,24.345,11.992,24.407,11.992,24.466"/>
		<path clip-path="url(#SVGID_6_)" fill="#FEC50C" d="M14.996,21.64c-0.146,0.27-0.234,0.578-0.426,0.818
			c-0.572-0.521-1.402-0.504-2.129-0.539c-0.6-0.031-1.252-0.088-1.717-0.514c-0.488-0.4-0.887-0.92-1.432-1.244
			c-0.498-0.137-1-0.305-1.4-0.646c-0.855-0.697-1.346-1.732-2.182-2.451c-0.158-0.156-0.348-0.279-0.525-0.412
			c-0.17,0.041-0.094,0.408-0.301,0.221c-0.113-0.08-0.396-0.088-0.42,0.025c0.254,0.336,0.51,0.721,0.545,1.15
			c-0.174,0.02-0.484-0.037-0.57,0.029c0.23,0.346,0.529,0.654,0.865,0.9c-0.162,0.025-0.48,0.012-0.541,0.076
			c0.334,0.273,0.691,0.551,1.131,0.621c0.09,0.119-0.131,0.348,0.055,0.447c0.107,0.045,0.463,0.117,0.217,0.24
			c-0.168,0.113-0.104,0.377,0.109,0.371c0.137,0.068,0.441,0.086,0.465,0.207c-0.119,0.123-0.494,0.268-0.176,0.383
			c0.299,0.164,0.637,0.271,0.977,0.283c-0.17,0.145-0.381,0.225-0.555,0.359c0.785,0.461,1.654,0.764,2.514,1.057
			c0.344,0.113,0.689,0.221,1.043,0.287c-1.029-0.061-2.027-0.365-2.967-0.783c-0.484-0.213-0.975-0.418-1.475-0.604
			c0.219-0.113,0.471-0.141,0.699-0.238c-0.473-0.096-0.986-0.127-1.4-0.385c0.064-0.113,0.305-0.119,0.438-0.178
			c0.25-0.059,0.404-0.131,0.053-0.154c-0.355-0.096-0.764-0.053-1.076-0.268c0.02-0.127,0.348-0.082,0.48-0.139
			c0.17-0.029,0.355-0.053,0.49-0.166c-0.551-0.229-1.27-0.066-1.699-0.553c-0.1-0.184,0.309-0.035,0.424-0.066
			c0.295,0,0.611,0.094,0.893-0.025c-0.801-0.352-1.658-0.68-2.27-1.332c-0.068-0.104-0.271-0.389-0.107-0.424
			c0.475,0.063,0.82,0.582,1.328,0.5c0.068-0.09-0.295-0.24-0.385-0.371c-0.742-0.635-1.461-1.326-1.982-2.16
			c-0.035-0.277,0.402-0.318,0.518-0.105c0.566,0.547,1.08,1.184,1.785,1.557c0.252,0.123-0.143-0.143-0.195-0.24
			c-0.652-0.758-1.275-1.557-1.73-2.449c-0.082-0.162-0.217-0.453,0.027-0.539C2.635,14.065,2.877,14.231,3,14.44
			c0.48,0.605,0.834,1.326,1.432,1.83c-0.508-0.988-1.053-2.029-1.066-3.166c0.012-0.221,0.027-0.555,0.326-0.545
			c0.25-0.039,0.211,0.283,0.293,0.436c0.248,0.836,0.355,1.74,0.852,2.477c-0.109-0.617-0.271-1.258-0.164-1.887
			c0.025-0.207,0.258-0.27,0.41-0.145c0.123,0.301,0.148,0.672,0.26,0.994c0.637,2.18,2.068,4.098,3.934,5.383
			c1.535,1.053,3.357,1.682,5.217,1.793C14.66,21.624,14.828,21.628,14.996,21.64"/>
		<path clip-path="url(#SVGID_6_)" fill="#FEC50C" d="M12.637,24.329c0.055,0,0.1,0.045,0.1,0.1c0,0.057-0.045,0.1-0.1,0.1
			c-0.057,0-0.102-0.043-0.102-0.1C12.535,24.374,12.58,24.329,12.637,24.329"/>
		<path clip-path="url(#SVGID_6_)" fill="#FEC50C" d="M12.627,24.372c0.023,0,0.041,0.018,0.041,0.041s-0.018,0.041-0.041,0.041
			s-0.041-0.018-0.041-0.041S12.604,24.372,12.627,24.372"/>
		<circle clip-path="url(#SVGID_6_)" fill="none" stroke="#00AFCA" stroke-width="0.381" cx="12.627" cy="24.413" r="0.041"/>
		<path clip-path="url(#SVGID_6_)" fill="#FEC50C" d="M-25.443-2.987c0,0-0.408-0.342-0.545-0.17
			c-0.223,0.275,0.682,1.648,0.682,2.132c0,0.795-0.527,1.01-1.182,1.123c-0.439,0.076-1.154-0.031-1.154-0.031
			c0.135-0.182,0.223-0.234,0.449-0.248c-0.252-0.133-0.51-0.416-0.51-0.859c0-0.682,0.281-0.964,0.281-1.735
			c0-0.427-0.35-0.97-0.35-0.97c0.617,0.062,0.926,0.636,0.75,1.093c0.1,0.015,0.189-0.008,0.266-0.08
			c0.045,0.127-0.027,0.273-0.123,0.4c0.078,0.041,0.135,0.018,0.258-0.009c-0.012,0.131-0.09,0.27-0.283,0.401
			c0.559-0.146,0.9,0.242,0.9,0.649c0,0.307-0.215,0.527-0.426,0.527c-0.068,0-0.166-0.029-0.225-0.07
			c-0.039,0.084-0.018,0.197,0.023,0.281c-0.154-0.041-0.252-0.133-0.184-0.322c-0.117-0.012-0.211-0.051-0.275-0.127
			c0.064-0.084,0.164-0.131,0.275-0.127c-0.086-0.178,0.012-0.277,0.15-0.359c0,0-0.088,0.359,0.139,0.359
			c0.102,0,0.195-0.033,0.195-0.184c0-0.131-0.115-0.313-0.379-0.302c-0.266,0.013-0.48,0.183-0.48,0.607
			c0,0.389,0.314,0.584,0.729,0.596c0.375,0.012,0.656-0.191,0.656-0.576c0-0.514-0.74-1.683-0.74-2.14
			c0-0.345,0.309-0.535,0.609-0.535c0.393,0,0.723,0.388,0.723,0.388L-25.443-2.987z"/>
		<path clip-path="url(#SVGID_6_)" fill="#FEC50C" d="M-25.357,6.288c0,0.859-0.771,1.299-1.375,1.299
			c-0.816,0-1.25-0.486-1.25-1.125c0-0.361,0.066-0.59,0.232-0.936c0,0,1.346-2.795,1.869-3.877
			c0.064-0.135,0.086-0.289,0.086-0.514c0-0.348-0.338-0.631-0.691-0.641c-0.322-0.008-0.672,0.301-0.672,0.652
			c0,0.426,0.221,0.617,0.447,0.617c0.281,0,0.393-0.115,0.393-0.313c0-0.137-0.066-0.195-0.162-0.195
			c-0.24,0-0.172,0.322-0.172,0.322c-0.119-0.025-0.219-0.146-0.162-0.299c-0.086-0.02-0.168-0.064-0.232-0.139
			c0.064-0.063,0.139-0.111,0.232-0.127c-0.057-0.186,0.02-0.277,0.182-0.314c-0.033,0.072-0.033,0.137-0.021,0.199
			c0.254-0.074,0.646,0.043,0.646,0.484c0,0.438-0.305,0.809-0.875,0.717c0.135,0.063,0.205,0.197,0.219,0.346
			c-0.104-0.041-0.219-0.047-0.219-0.047c0.066,0.117,0.16,0.219,0.156,0.451c-0.107-0.049-0.205-0.139-0.34-0.082
			c0.213,0.42-0.049,0.996-0.715,1.131c0.244-0.285,0.363-0.594,0.363-0.9c0-0.992-0.275-1.16-0.275-1.852
			c0-0.289,0.146-0.602,0.441-0.814v0.012c-0.193-0.053-0.318-0.148-0.391-0.277c0.445-0.127,1.092-0.125,1.439,0.012
			c0.398,0.047,0.678,0.354,0.76,0.51c0.082,0.154,0.24,0.717,0,1.223c-0.266,0.553-1.512,3.197-1.9,4.027
			c-0.082,0.176-0.133,0.363-0.133,0.564c0,0.51,0.467,0.688,0.73,0.688c0.318,0,0.641-0.24,0.641-0.541
			c0-0.191-0.104-0.307-0.254-0.307c-0.357,0-0.336,0.305-0.266,0.496c-0.221-0.1-0.352-0.279-0.314-0.467
			c-0.127-0.018-0.246-0.078-0.357-0.203c0.086-0.109,0.193-0.193,0.357-0.197c-0.072-0.291,0.123-0.416,0.314-0.482
			c-0.059,0.213-0.1,0.461,0.266,0.461c0.268,0,0.477,0.047,0.6,0.219c0.006-0.23,0.029-1.143,0.029-1.143
			c0.014-0.344-0.459-0.332-0.76-0.23c0.111-0.395,0.346-0.607,0.885-0.555c-0.131-0.055-0.27-0.178-0.27-0.414
			c0-0.322,0.26-0.678,0.432-0.783L-25.357,6.288z"/>
		<path clip-path="url(#SVGID_6_)" fill="#FEC50C" d="M-25.357,8.86c0-0.857-0.771-1.297-1.375-1.297
			c-0.816,0-1.25,0.486-1.25,1.125c0,0.361,0.066,0.588,0.232,0.936c0,0,1.346,2.795,1.869,3.877
			c0.064,0.135,0.086,0.289,0.086,0.514c0,0.348-0.338,0.631-0.691,0.641c-0.322,0.008-0.672-0.301-0.672-0.652
			c0-0.426,0.221-0.617,0.447-0.617c0.281,0,0.393,0.115,0.393,0.313c0,0.137-0.066,0.195-0.162,0.195
			c-0.24,0-0.172-0.322-0.172-0.322c-0.119,0.025-0.219,0.146-0.162,0.299c-0.086,0.02-0.168,0.064-0.232,0.139
			c0.064,0.063,0.139,0.111,0.232,0.127c-0.057,0.186,0.02,0.277,0.182,0.314c-0.033-0.072-0.033-0.137-0.021-0.199
			c0.254,0.074,0.646-0.043,0.646-0.484c0-0.438-0.305-0.809-0.875-0.715c0.135-0.066,0.205-0.199,0.219-0.348
			c-0.104,0.041-0.219,0.047-0.219,0.047c0.066-0.117,0.16-0.219,0.156-0.451c-0.107,0.049-0.205,0.139-0.34,0.082
			c0.213-0.42-0.049-0.996-0.715-1.131c0.244,0.285,0.363,0.594,0.363,0.898c0,0.994-0.275,1.162-0.275,1.854
			c0,0.289,0.146,0.602,0.441,0.813v-0.01c-0.193,0.051-0.318,0.148-0.391,0.277c0.445,0.127,1.092,0.125,1.439-0.012
			c0.398-0.047,0.678-0.354,0.76-0.51c0.082-0.154,0.24-0.717,0-1.223c-0.266-0.553-1.512-3.197-1.9-4.027
			c-0.082-0.176-0.133-0.363-0.133-0.564c0-0.51,0.467-0.688,0.73-0.688c0.318,0,0.641,0.24,0.641,0.541
			c0,0.191-0.104,0.307-0.254,0.307c-0.357,0-0.336-0.305-0.266-0.496c-0.221,0.1-0.352,0.279-0.314,0.467
			c-0.127,0.018-0.246,0.078-0.357,0.203c0.086,0.109,0.193,0.193,0.357,0.195c-0.072,0.293,0.123,0.416,0.314,0.484
			c-0.059-0.213-0.1-0.461,0.266-0.461c0.268,0,0.477-0.045,0.6-0.219c0.006,0.23,0.029,1.143,0.029,1.143
			c0.014,0.342-0.459,0.332-0.76,0.23c0.111,0.395,0.346,0.607,0.885,0.555c-0.131,0.055-0.27,0.178-0.27,0.414
			c0,0.322,0.26,0.678,0.432,0.783L-25.357,8.86z"/>
		<path clip-path="url(#SVGID_6_)" fill="#FEC50C" d="M-25.443-2.987c0,0,0.406-0.342,0.545-0.17
			c0.223,0.275-0.684,1.648-0.684,2.132c0,0.795,0.529,1.01,1.184,1.123c0.439,0.076,1.154-0.031,1.154-0.031
			c-0.135-0.182-0.223-0.234-0.449-0.248c0.252-0.133,0.508-0.416,0.508-0.859c0-0.682-0.279-0.964-0.279-1.735
			c0-0.427,0.35-0.97,0.35-0.97c-0.619,0.062-0.926,0.636-0.752,1.093c-0.098,0.015-0.188-0.008-0.264-0.08
			c-0.045,0.127,0.025,0.273,0.121,0.4c-0.076,0.041-0.133,0.018-0.256-0.009c0.012,0.131,0.09,0.27,0.281,0.401
			c-0.557-0.146-0.898,0.242-0.898,0.649c0,0.307,0.215,0.527,0.426,0.527c0.066,0,0.166-0.029,0.223-0.07
			c0.039,0.084,0.02,0.197-0.021,0.281c0.154-0.041,0.252-0.133,0.182-0.322c0.119-0.012,0.213-0.051,0.277-0.127
			c-0.064-0.084-0.164-0.131-0.277-0.127c0.086-0.178-0.01-0.277-0.15-0.359c0,0,0.09,0.359-0.137,0.359
			c-0.102,0-0.195-0.033-0.195-0.184c0-0.131,0.115-0.313,0.379-0.302c0.266,0.013,0.48,0.183,0.48,0.607
			c0,0.389-0.314,0.584-0.729,0.596c-0.375,0.012-0.656-0.191-0.656-0.576c0-0.514,0.74-1.683,0.74-2.14
			c0-0.345-0.309-0.535-0.611-0.535c-0.391,0-0.721,0.388-0.721,0.388L-25.443-2.987z"/>
		<path clip-path="url(#SVGID_6_)" fill="#FEC50C" d="M-25.529,6.288c0,0.859,0.77,1.299,1.375,1.299c0.814,0,1.25-0.486,1.25-1.125
			c0-0.361-0.066-0.59-0.234-0.936c0,0-1.344-2.795-1.867-3.877c-0.064-0.135-0.086-0.289-0.086-0.514
			c0-0.348,0.336-0.631,0.691-0.641c0.32-0.008,0.672,0.301,0.672,0.652c0,0.426-0.221,0.617-0.449,0.617
			c-0.279,0-0.391-0.115-0.391-0.313c0-0.137,0.066-0.195,0.162-0.195c0.238,0,0.172,0.322,0.172,0.322
			c0.119-0.025,0.217-0.146,0.162-0.299c0.086-0.02,0.168-0.064,0.232-0.139c-0.064-0.063-0.139-0.111-0.232-0.127
			c0.055-0.186-0.02-0.277-0.184-0.314c0.033,0.072,0.035,0.137,0.023,0.199c-0.254-0.074-0.646,0.043-0.646,0.484
			c0,0.438,0.305,0.809,0.875,0.717c-0.137,0.063-0.205,0.197-0.219,0.346c0.104-0.041,0.219-0.047,0.219-0.047
			c-0.066,0.117-0.16,0.219-0.156,0.451c0.105-0.049,0.203-0.139,0.34-0.082c-0.213,0.42,0.049,0.996,0.715,1.131
			c-0.244-0.285-0.363-0.594-0.363-0.9c0-0.992,0.275-1.16,0.275-1.852c0-0.289-0.148-0.602-0.443-0.814v0.012
			c0.195-0.053,0.32-0.148,0.393-0.277c-0.445-0.127-1.092-0.125-1.439,0.012c-0.4,0.047-0.678,0.354-0.76,0.51
			c-0.082,0.154-0.242,0.717,0,1.223c0.264,0.553,1.512,3.197,1.898,4.027c0.084,0.176,0.135,0.363,0.135,0.564
			c0,0.51-0.469,0.688-0.732,0.688c-0.316,0-0.639-0.24-0.639-0.541c0-0.191,0.104-0.307,0.254-0.307
			c0.357,0,0.336,0.305,0.264,0.496c0.223-0.1,0.354-0.279,0.316-0.467c0.127-0.018,0.246-0.078,0.357-0.203
			c-0.088-0.109-0.193-0.193-0.357-0.197c0.072-0.291-0.123-0.416-0.316-0.482c0.061,0.213,0.1,0.461-0.264,0.461
			c-0.268,0-0.477,0.047-0.6,0.219c-0.008-0.23-0.029-1.143-0.029-1.143c-0.016-0.344,0.459-0.332,0.76-0.23
			c-0.113-0.395-0.346-0.607-0.885-0.555c0.131-0.055,0.27-0.178,0.27-0.414c0-0.322-0.26-0.678-0.432-0.783L-25.529,6.288z"/>
		<path clip-path="url(#SVGID_6_)" fill="#FEC50C" d="M-25.529,8.86c0-0.857,0.77-1.297,1.375-1.297c0.814,0,1.25,0.486,1.25,1.125
			c0,0.361-0.066,0.588-0.234,0.936c0,0-1.344,2.795-1.867,3.877c-0.064,0.135-0.086,0.289-0.086,0.514
			c0,0.348,0.336,0.631,0.691,0.641c0.32,0.008,0.672-0.301,0.672-0.652c0-0.426-0.221-0.617-0.449-0.617
			c-0.279,0-0.391,0.115-0.391,0.313c0,0.137,0.066,0.195,0.162,0.195c0.238,0,0.172-0.322,0.172-0.322
			c0.119,0.025,0.217,0.146,0.162,0.299c0.086,0.02,0.168,0.064,0.232,0.139c-0.064,0.063-0.139,0.111-0.232,0.127
			c0.055,0.186-0.02,0.277-0.184,0.314c0.033-0.072,0.035-0.137,0.023-0.199c-0.254,0.074-0.646-0.043-0.646-0.484
			c0-0.438,0.305-0.809,0.875-0.715c-0.137-0.066-0.205-0.199-0.219-0.348c0.104,0.041,0.219,0.047,0.219,0.047
			c-0.066-0.117-0.16-0.219-0.156-0.451c0.105,0.049,0.203,0.139,0.34,0.082c-0.213-0.42,0.049-0.996,0.715-1.131
			c-0.244,0.285-0.363,0.594-0.363,0.898c0,0.994,0.275,1.162,0.275,1.854c0,0.289-0.148,0.602-0.443,0.813v-0.01
			c0.195,0.051,0.32,0.148,0.393,0.277c-0.445,0.127-1.092,0.125-1.439-0.012c-0.4-0.047-0.678-0.354-0.76-0.51
			c-0.082-0.154-0.242-0.717,0-1.223c0.264-0.553,1.512-3.197,1.898-4.027c0.084-0.176,0.135-0.363,0.135-0.564
			c0-0.51-0.469-0.688-0.732-0.688c-0.316,0-0.639,0.24-0.639,0.541c0,0.191,0.104,0.307,0.254,0.307
			c0.357,0,0.336-0.305,0.264-0.496c0.223,0.1,0.354,0.279,0.316,0.467c0.127,0.018,0.246,0.078,0.357,0.203
			c-0.088,0.109-0.193,0.193-0.357,0.195c0.072,0.293-0.123,0.416-0.316,0.484c0.061-0.213,0.1-0.461-0.264-0.461
			c-0.268,0-0.477-0.045-0.6-0.219c-0.008,0.23-0.029,1.143-0.029,1.143c-0.016,0.342,0.459,0.332,0.76,0.23
			c-0.113,0.395-0.346,0.607-0.885,0.555c0.131,0.055,0.27,0.178,0.27,0.414c0,0.322-0.26,0.678-0.432,0.783L-25.529,8.86z"/>
		<path clip-path="url(#SVGID_6_)" fill="#FEC50C" d="M-25.443,33.153c0,0-0.408,0.342-0.545,0.17
			c-0.223-0.275,0.682-1.648,0.682-2.131c0-0.795-0.527-1.012-1.182-1.123c-0.439-0.076-1.154,0.031-1.154,0.031
			c0.135,0.182,0.223,0.234,0.449,0.248c-0.252,0.131-0.51,0.416-0.51,0.859c0,0.682,0.281,0.963,0.281,1.734
			c0,0.426-0.35,0.969-0.35,0.969c0.617-0.063,0.926-0.635,0.75-1.092c0.1-0.016,0.189,0.008,0.266,0.08
			c0.045-0.127-0.027-0.273-0.123-0.4c0.078-0.041,0.135-0.018,0.258,0.008c-0.012-0.131-0.09-0.27-0.283-0.4
			c0.559,0.145,0.9-0.242,0.9-0.648c0-0.307-0.215-0.527-0.426-0.527c-0.068,0-0.166,0.027-0.225,0.07
			c-0.039-0.084-0.018-0.197,0.023-0.281c-0.154,0.039-0.252,0.131-0.184,0.322c-0.117,0.01-0.211,0.051-0.275,0.127
			c0.064,0.082,0.164,0.131,0.275,0.127c-0.086,0.178,0.012,0.277,0.15,0.357c0,0-0.088-0.357,0.139-0.357
			c0.102,0,0.195,0.033,0.195,0.184c0,0.131-0.115,0.313-0.379,0.301c-0.266-0.012-0.48-0.184-0.48-0.605
			c0-0.391,0.314-0.584,0.729-0.596c0.375-0.012,0.656,0.189,0.656,0.576c0,0.514-0.74,1.682-0.74,2.139
			c0,0.344,0.309,0.535,0.609,0.535c0.393,0,0.723-0.387,0.723-0.387L-25.443,33.153z"/>
		<path clip-path="url(#SVGID_6_)" fill="#FEC50C" d="M-25.357,23.878c0-0.857-0.771-1.297-1.375-1.297
			c-0.816,0-1.25,0.486-1.25,1.125c0,0.361,0.066,0.588,0.232,0.934c0,0,1.346,2.797,1.869,3.879
			c0.064,0.133,0.086,0.287,0.086,0.514c0,0.348-0.338,0.631-0.691,0.641c-0.322,0.008-0.672-0.301-0.672-0.654
			c0-0.426,0.221-0.617,0.447-0.617c0.281,0,0.393,0.115,0.393,0.313c0,0.137-0.066,0.197-0.162,0.197
			c-0.24,0-0.172-0.324-0.172-0.324c-0.119,0.027-0.219,0.148-0.162,0.301c-0.086,0.02-0.168,0.064-0.232,0.137
			c0.064,0.064,0.139,0.111,0.232,0.127c-0.057,0.188,0.02,0.277,0.182,0.316c-0.033-0.072-0.033-0.137-0.021-0.199
			c0.254,0.072,0.646-0.043,0.646-0.484c0-0.439-0.305-0.809-0.875-0.717c0.135-0.064,0.205-0.197,0.219-0.346
			c-0.104,0.041-0.219,0.045-0.219,0.045c0.066-0.117,0.16-0.219,0.156-0.449c-0.107,0.049-0.205,0.137-0.34,0.08
			c0.213-0.418-0.049-0.994-0.715-1.131c0.244,0.285,0.363,0.594,0.363,0.9c0,0.994-0.275,1.162-0.275,1.854
			c0,0.289,0.146,0.602,0.441,0.813v-0.01c-0.193,0.051-0.318,0.146-0.391,0.277c0.445,0.125,1.092,0.123,1.439-0.014
			c0.398-0.045,0.678-0.352,0.76-0.508c0.082-0.154,0.24-0.717,0-1.223c-0.266-0.555-1.512-3.197-1.9-4.027
			c-0.082-0.178-0.133-0.363-0.133-0.566c0-0.508,0.467-0.686,0.73-0.686c0.318,0,0.641,0.24,0.641,0.541
			c0,0.191-0.104,0.307-0.254,0.307c-0.357,0-0.336-0.305-0.266-0.496c-0.221,0.1-0.352,0.279-0.314,0.467
			c-0.127,0.018-0.246,0.076-0.357,0.201c0.086,0.111,0.193,0.195,0.357,0.197c-0.072,0.293,0.123,0.416,0.314,0.484
			c-0.059-0.215-0.1-0.461,0.266-0.461c0.268,0,0.477-0.047,0.6-0.221c0.006,0.232,0.029,1.145,0.029,1.145
			c0.014,0.342-0.459,0.332-0.76,0.23c0.111,0.395,0.346,0.607,0.885,0.553c-0.131,0.057-0.27,0.18-0.27,0.416
			c0,0.32,0.26,0.678,0.432,0.783L-25.357,23.878z"/>
		<path clip-path="url(#SVGID_6_)" fill="#FEC50C" d="M-25.357,21.306c0,0.857-0.771,1.299-1.375,1.299
			c-0.816,0-1.25-0.488-1.25-1.125c0-0.363,0.066-0.59,0.232-0.936c0,0,1.346-2.797,1.869-3.879
			c0.064-0.135,0.086-0.287,0.086-0.512c0-0.348-0.338-0.633-0.691-0.641c-0.322-0.01-0.672,0.301-0.672,0.65
			c0,0.428,0.221,0.619,0.447,0.619c0.281,0,0.393-0.115,0.393-0.313c0-0.137-0.066-0.195-0.162-0.195
			c-0.24,0-0.172,0.322-0.172,0.322c-0.119-0.025-0.219-0.148-0.162-0.301c-0.086-0.018-0.168-0.064-0.232-0.137
			c0.064-0.063,0.139-0.111,0.232-0.127c-0.057-0.186,0.02-0.277,0.182-0.316c-0.033,0.072-0.033,0.139-0.021,0.199
			c0.254-0.07,0.646,0.043,0.646,0.486c0,0.438-0.305,0.807-0.875,0.715c0.135,0.064,0.205,0.197,0.219,0.346
			c-0.104-0.041-0.219-0.045-0.219-0.045c0.066,0.117,0.16,0.219,0.156,0.449c-0.107-0.047-0.205-0.137-0.34-0.08
			c0.213,0.418-0.049,0.994-0.715,1.131c0.244-0.285,0.363-0.594,0.363-0.9c0-0.994-0.275-1.162-0.275-1.854
			c0-0.289,0.146-0.6,0.441-0.813v0.012c-0.193-0.053-0.318-0.148-0.391-0.279c0.445-0.125,1.092-0.123,1.439,0.014
			c0.398,0.047,0.678,0.352,0.76,0.508s0.24,0.717,0,1.223c-0.266,0.555-1.512,3.197-1.9,4.029
			c-0.082,0.176-0.133,0.363-0.133,0.564c0,0.51,0.467,0.688,0.73,0.688c0.318,0,0.641-0.242,0.641-0.543
			c0-0.191-0.104-0.305-0.254-0.305c-0.357,0-0.336,0.303-0.266,0.494c-0.221-0.1-0.352-0.277-0.314-0.467
			c-0.127-0.018-0.246-0.076-0.357-0.201c0.086-0.109,0.193-0.193,0.357-0.197c-0.072-0.291,0.123-0.416,0.314-0.484
			c-0.059,0.215-0.1,0.461,0.266,0.461c0.268,0,0.477,0.047,0.6,0.221c0.006-0.23,0.029-1.143,0.029-1.143
			c0.014-0.344-0.459-0.334-0.76-0.232c0.111-0.393,0.346-0.607,0.885-0.553c-0.131-0.055-0.27-0.178-0.27-0.416
			c0-0.322,0.26-0.676,0.432-0.783L-25.357,21.306z"/>
		<path clip-path="url(#SVGID_6_)" fill="#FEC50C" d="M-25.443,33.153c0,0,0.406,0.342,0.545,0.17
			c0.223-0.275-0.684-1.648-0.684-2.131c0-0.795,0.529-1.012,1.184-1.123c0.439-0.076,1.154,0.031,1.154,0.031
			c-0.135,0.182-0.223,0.234-0.449,0.248c0.252,0.131,0.508,0.416,0.508,0.859c0,0.682-0.279,0.963-0.279,1.734
			c0,0.426,0.35,0.969,0.35,0.969c-0.619-0.063-0.926-0.635-0.752-1.092c-0.098-0.016-0.188,0.008-0.264,0.08
			c-0.045-0.127,0.025-0.273,0.121-0.4c-0.076-0.041-0.133-0.018-0.256,0.008c0.012-0.131,0.09-0.27,0.281-0.4
			c-0.557,0.145-0.898-0.242-0.898-0.648c0-0.307,0.215-0.527,0.426-0.527c0.066,0,0.166,0.027,0.223,0.07
			c0.039-0.084,0.02-0.197-0.021-0.281c0.154,0.039,0.252,0.131,0.182,0.322c0.119,0.01,0.213,0.051,0.277,0.127
			c-0.064,0.082-0.164,0.131-0.277,0.127c0.086,0.178-0.01,0.277-0.15,0.357c0,0,0.09-0.357-0.137-0.357
			c-0.102,0-0.195,0.033-0.195,0.184c0,0.131,0.115,0.313,0.379,0.301c0.266-0.012,0.48-0.184,0.48-0.605
			c0-0.391-0.314-0.584-0.729-0.596c-0.375-0.012-0.656,0.189-0.656,0.576c0,0.514,0.74,1.682,0.74,2.139
			c0,0.344-0.309,0.535-0.611,0.535c-0.391,0-0.721-0.387-0.721-0.387L-25.443,33.153z"/>
		<path clip-path="url(#SVGID_6_)" fill="#FEC50C" d="M-25.529,23.878c0-0.857,0.77-1.297,1.375-1.297
			c0.814,0,1.25,0.486,1.25,1.125c0,0.361-0.066,0.588-0.234,0.934c0,0-1.344,2.797-1.867,3.879
			c-0.064,0.133-0.086,0.287-0.086,0.514c0,0.348,0.336,0.631,0.691,0.641c0.32,0.008,0.672-0.301,0.672-0.654
			c0-0.426-0.221-0.617-0.449-0.617c-0.279,0-0.391,0.115-0.391,0.313c0,0.137,0.066,0.197,0.162,0.197
			c0.238,0,0.172-0.324,0.172-0.324c0.119,0.027,0.217,0.148,0.162,0.301c0.086,0.02,0.168,0.064,0.232,0.137
			c-0.064,0.064-0.139,0.111-0.232,0.127c0.055,0.188-0.02,0.277-0.184,0.316c0.033-0.072,0.035-0.137,0.023-0.199
			c-0.254,0.072-0.646-0.043-0.646-0.484c0-0.439,0.305-0.809,0.875-0.717c-0.137-0.064-0.205-0.197-0.219-0.346
			c0.104,0.041,0.219,0.045,0.219,0.045c-0.066-0.117-0.16-0.219-0.156-0.449c0.105,0.049,0.203,0.137,0.34,0.08
			c-0.213-0.418,0.049-0.994,0.715-1.131c-0.244,0.285-0.363,0.594-0.363,0.9c0,0.994,0.275,1.162,0.275,1.854
			c0,0.289-0.148,0.602-0.443,0.813v-0.01c0.195,0.051,0.32,0.146,0.393,0.277c-0.445,0.125-1.092,0.123-1.439-0.014
			c-0.4-0.045-0.678-0.352-0.76-0.508c-0.082-0.154-0.242-0.717,0-1.223c0.264-0.555,1.512-3.197,1.898-4.027
			c0.084-0.178,0.135-0.363,0.135-0.566c0-0.508-0.469-0.686-0.732-0.686c-0.316,0-0.639,0.24-0.639,0.541
			c0,0.191,0.104,0.307,0.254,0.307c0.357,0,0.336-0.305,0.264-0.496c0.223,0.1,0.354,0.279,0.316,0.467
			c0.127,0.018,0.246,0.076,0.357,0.201c-0.088,0.111-0.193,0.195-0.357,0.197c0.072,0.293-0.123,0.416-0.316,0.484
			c0.061-0.215,0.1-0.461-0.264-0.461c-0.268,0-0.477-0.047-0.6-0.221c-0.008,0.232-0.029,1.145-0.029,1.145
			c-0.016,0.342,0.459,0.332,0.76,0.23c-0.113,0.395-0.346,0.607-0.885,0.553c0.131,0.057,0.27,0.18,0.27,0.416
			c0,0.32-0.26,0.678-0.432,0.783L-25.529,23.878z"/>
		<path clip-path="url(#SVGID_6_)" fill="#FEC50C" d="M-25.529,21.306c0,0.857,0.77,1.299,1.375,1.299
			c0.814,0,1.25-0.488,1.25-1.125c0-0.363-0.066-0.59-0.234-0.936c0,0-1.344-2.797-1.867-3.879
			c-0.064-0.135-0.086-0.287-0.086-0.512c0-0.348,0.336-0.633,0.691-0.641c0.32-0.01,0.672,0.301,0.672,0.65
			c0,0.428-0.221,0.619-0.449,0.619c-0.279,0-0.391-0.115-0.391-0.313c0-0.137,0.066-0.195,0.162-0.195
			c0.238,0,0.172,0.322,0.172,0.322c0.119-0.025,0.217-0.148,0.162-0.301c0.086-0.018,0.168-0.064,0.232-0.137
			c-0.064-0.063-0.139-0.111-0.232-0.127c0.055-0.186-0.02-0.277-0.184-0.316c0.033,0.072,0.035,0.139,0.023,0.199
			c-0.254-0.07-0.646,0.043-0.646,0.486c0,0.438,0.305,0.807,0.875,0.715c-0.137,0.064-0.205,0.197-0.219,0.346
			c0.104-0.041,0.219-0.045,0.219-0.045c-0.066,0.117-0.16,0.219-0.156,0.449c0.105-0.047,0.203-0.137,0.34-0.08
			c-0.213,0.418,0.049,0.994,0.715,1.131c-0.244-0.285-0.363-0.594-0.363-0.9c0-0.994,0.275-1.162,0.275-1.854
			c0-0.289-0.148-0.6-0.443-0.813v0.012c0.195-0.053,0.32-0.148,0.393-0.279c-0.445-0.125-1.092-0.123-1.439,0.014
			c-0.4,0.047-0.678,0.352-0.76,0.508s-0.242,0.717,0,1.223c0.264,0.555,1.512,3.197,1.898,4.029
			c0.084,0.176,0.135,0.363,0.135,0.564c0,0.51-0.469,0.688-0.732,0.688c-0.316,0-0.639-0.242-0.639-0.543
			c0-0.191,0.104-0.305,0.254-0.305c0.357,0,0.336,0.303,0.264,0.494c0.223-0.1,0.354-0.277,0.316-0.467
			c0.127-0.018,0.246-0.076,0.357-0.201c-0.088-0.109-0.193-0.193-0.357-0.197c0.072-0.291-0.123-0.416-0.316-0.484
			c0.061,0.215,0.1,0.461-0.264,0.461c-0.268,0-0.477,0.047-0.6,0.221c-0.008-0.23-0.029-1.143-0.029-1.143
			c-0.016-0.344,0.459-0.334,0.76-0.232c-0.113-0.393-0.346-0.607-0.885-0.553c0.131-0.055,0.27-0.178,0.27-0.416
			c0-0.322-0.26-0.676-0.432-0.783L-25.529,21.306z"/>
	</g>
	<g>
		<defs>
			<path id="SVGID_7_" d="M41.715-33.16c0,8.008,6.49,14.5,14.5,14.5c8.008,0,14.498-6.492,14.498-14.5s-6.49-14.5-14.498-14.5
				C48.205-47.66,41.715-41.167,41.715-33.16"/>
		</defs>
		<clipPath id="SVGID_8_">
			<use xlink:href="#SVGID_7_"  overflow="visible"/>
		</clipPath>
		<rect x="41.324" y="-47.855" clip-path="url(#SVGID_8_)" fill="#C8313E" width="58.779" height="29.391"/>
		<rect x="41.324" y="-28.261" clip-path="url(#SVGID_8_)" fill="#4AA657" width="58.779" height="9.797"/>
		<rect x="41.324" y="-47.855" clip-path="url(#SVGID_8_)" fill="#FFFFFF" width="6.531" height="29.391"/>
		<path clip-path="url(#SVGID_8_)" fill="#C8313E" d="M42.461-47.855h0.852v0.482h0.285v0.481h0.283v0.482h0.283v0.481h0.285v0.481
			h-0.285v0.481h-0.283v0.482h-0.283V-44h-0.285v0.481h-0.283v0.481h-0.285v-0.481h-0.283V-44h-0.283v-0.482h-0.285v-0.482h-0.283
			v-0.481h-0.285v-0.481h0.285v-0.481h0.283v-0.482h0.285v-0.481h0.283V-47.855z M42.744-46.891h0.285v0.482h0.283v0.481h0.285
			v0.481h-0.285v0.481h-0.283v0.482h-0.285v-0.482h-0.283v-0.481h-0.283v-0.481h0.283v-0.481h0.283V-46.891z M42.744-45.927h0.285
			v0.482h-0.285V-45.927z M41.324-47.373h0.285v0.481h-0.285V-47.373z M41.324-44.482h0.285V-44h-0.285V-44.482z M44.449-47.855
			h0.17v0.964h-0.17V-47.855z M44.449-44.482h0.17v0.964h-0.17V-44.482z M41.893-43.518h0.285v0.481h0.283v0.481h0.283v0.482h-0.283
			v0.481h-0.283v0.482h-0.285v-0.482h-0.283v-0.481h-0.285v-0.482h0.285v-0.481h0.283V-43.518z M41.893-42.555h0.285v0.482h-0.285
			V-42.555z M43.598-43.518h0.283v0.481h0.283v0.481h0.285v0.482h-0.285v0.481h-0.283v0.482h-0.283v-0.482h-0.285v-0.481h-0.283
			v-0.482h0.283v-0.481h0.285V-43.518z M43.598-42.555h0.283v0.482h-0.283V-42.555z M41.324-40.628h0.285v0.482h-0.285V-40.628z
			 M44.449-41.109h0.17v0.964h-0.17V-41.109z"/>
		<path clip-path="url(#SVGID_8_)" fill="#C8313E" d="M41.324-39.182h0.285v-0.481h0.283v-0.482h0.285v-0.482h0.283v-0.48h0.283
			v-0.482h0.285v0.482h0.283v0.48h0.285v0.482h0.283v0.482h0.283v0.481h0.285v0.482h0.17v1.927h-0.17v0.482h-0.285v0.48h-0.283
			v0.482h-0.283v0.481h-0.285v0.482h-0.283v1.252h-0.568v-0.289h-0.283v-0.481h-0.285v-0.481h-0.283v-0.482h-0.285v-1.444h0.285
			v0.48h0.283v0.482h0.285v0.481h0.283v-0.481h0.283v-0.482h0.285v-0.48h0.283v-0.482h0.285v-0.482h0.283v-0.481h-0.283v-0.482
			h-0.285v-0.48h-0.852v0.48h0.568v0.482h-0.285v0.481h-0.283v0.482h-0.283v-0.482h-0.285v-0.481h-0.283v-0.482h-0.285V-39.182z
			 M41.324-37.255h0.285v0.482h-0.285V-37.255z M44.449-35.81h0.17v0.482h-0.17V-35.81z M43.881-34.846h0.283v0.482h0.285v0.481
			h0.17v0.771h-0.17v-0.289h-0.285v-0.481h-0.283V-34.846z M43.313-33.401h0.285v0.289h-0.285V-33.401z"/>
		<path clip-path="url(#SVGID_8_)" fill="#C8313E" d="M46.721-47.855h-0.854v0.482h-0.283v0.481h-0.283v0.482h-0.283v0.481h-0.285
			v0.481h0.285v0.481h0.283v0.482h0.283V-44h0.283v0.481h0.285v0.481h0.283v-0.481h0.285V-44h0.283v-0.482h0.283v-0.482h0.285
			v-0.481h0.283v-0.481h-0.283v-0.481h-0.285v-0.482h-0.283v-0.481h-0.283V-47.855z M46.436-46.891h-0.283v0.482h-0.285v0.481
			h-0.283v0.481h0.283v0.481h0.285v0.482h0.283v-0.482h0.285v-0.481h0.283v-0.481h-0.283v-0.481h-0.285V-46.891z M46.436-45.927
			h-0.283v0.482h0.283V-45.927z M47.855-47.373h-0.283v0.481h0.283V-47.373z M47.855-44.482h-0.283V-44h0.283V-44.482z
			 M44.732-47.855h-0.17v0.964h0.17V-47.855z M44.732-44.482h-0.17v0.964h0.17V-44.482z M47.287-43.518h-0.283v0.481h-0.283v0.481
			h-0.285v0.482h0.285v0.481h0.283v0.482h0.283v-0.482h0.285v-0.481h0.283v-0.482h-0.283v-0.481h-0.285V-43.518z M47.287-42.555
			h-0.283v0.482h0.283V-42.555z M45.584-43.518h-0.283v0.481h-0.283v0.481h-0.285v0.482h0.285v0.481h0.283v0.482h0.283v-0.482h0.283
			v-0.481h0.285v-0.482h-0.285v-0.481h-0.283V-43.518z M45.584-42.555h-0.283v0.482h0.283V-42.555z M47.855-40.628h-0.283v0.482
			h0.283V-40.628z M44.732-41.109h-0.17v0.964h0.17V-41.109z"/>
		<path clip-path="url(#SVGID_8_)" fill="#C8313E" d="M47.855-39.182h-0.283v-0.481h-0.285v-0.482h-0.283v-0.482h-0.283v-0.48
			h-0.285v-0.482h-0.283v0.482h-0.285v0.48h-0.283v0.482h-0.283v0.482h-0.283v0.481h-0.285v0.482h-0.17v1.927h0.17v0.482h0.285v0.48
			h0.283v0.482h0.283v0.481h0.283v0.482h0.285v1.252h0.568v-0.289h0.283v-0.481h0.283v-0.481h0.285v-0.482h0.283v-1.444h-0.283v0.48
			h-0.285v0.482h-0.283v0.481h-0.283v-0.481h-0.285v-0.482h-0.283v-0.48h-0.285v-0.482h-0.283v-0.482h-0.283v-0.481h0.283v-0.482
			h0.283v-0.48h0.854v0.48h-0.568v0.482h0.283v0.481h0.285v0.482h0.283v-0.482h0.283v-0.481h0.285v-0.482h0.283V-39.182z
			 M47.855-37.255h-0.283v0.482h0.283V-37.255z M44.732-35.81h-0.17v0.482h0.17V-35.81z M45.301-34.846h-0.283v0.482h-0.285v0.481
			h-0.17v0.771h0.17v-0.289h0.285v-0.481h0.283V-34.846z M45.867-33.401h-0.283v0.289h0.283V-33.401z"/>
		<path clip-path="url(#SVGID_8_)" fill="#C8313E" d="M42.461-18.464h0.852v-0.482h0.285v-0.481h0.283v-0.481h0.283v-0.482h0.285
			v-0.482h-0.285v-0.481h-0.283v-0.481h-0.283v-0.481h-0.285V-22.8h-0.283v-0.482h-0.285v0.482h-0.283v0.481h-0.283v0.481h-0.285
			v0.481h-0.283v0.481h-0.285v0.482h0.285v0.482h0.283v0.481h0.285v0.481h0.283V-18.464z M42.744-19.428h0.285v-0.481h0.283v-0.482
			h0.285v-0.482h-0.285v-0.481h-0.283v-0.481h-0.285v0.481h-0.283v0.481h-0.283v0.482h0.283v0.482h0.283V-19.428z M42.744-20.392
			h0.285v-0.482h-0.285V-20.392z M41.324-18.947h0.285v-0.482h-0.285V-18.947z M41.324-21.837h0.285v-0.481h-0.285V-21.837z
			 M44.449-18.464h0.17v-0.965h-0.17V-18.464z M44.449-21.837h0.17V-22.8h-0.17V-21.837z M41.893-22.8h0.285v-0.482h0.283v-0.482
			h0.283v-0.48h-0.283v-0.482h-0.283v-0.482h-0.285v0.482h-0.283v0.482h-0.285v0.48h0.285v0.482h0.283V-22.8z M41.893-23.765h0.285
			v-0.482h-0.285V-23.765z M43.598-22.8h0.283v-0.482h0.283v-0.482h0.285v-0.48h-0.285v-0.482h-0.283v-0.482h-0.283v0.482h-0.285
			v0.482h-0.283v0.48h0.283v0.482h0.285V-22.8z M43.598-23.765h0.283v-0.482h-0.283V-23.765z M41.324-25.692h0.285v-0.481h-0.285
			V-25.692z M44.449-25.21h0.17v-0.963h-0.17V-25.21z"/>
		<path clip-path="url(#SVGID_8_)" fill="#C8313E" d="M41.324-27.137h0.285v0.482h0.283v0.481h0.285v0.481h0.283v0.481h0.283v0.482
			h0.285v-0.482h0.283v-0.481h0.285v-0.481h0.283v-0.481h0.283v-0.482h0.285v-0.481h0.17v-1.928h-0.17v-0.481h-0.285v-0.482h-0.283
			v-0.481h-0.283v-0.481h-0.285v-0.481h-0.283v-1.254h-0.568v0.289h-0.283v0.482h-0.285v0.482h-0.283v0.481h-0.285v1.445h0.285
			v-0.482h0.283v-0.481h0.285v-0.481h0.283v0.481h0.283v0.481h0.285v0.482h0.283v0.481h0.285v0.482h0.283v0.48h-0.283v0.482h-0.285
			v0.482h-0.852v-0.482h0.568v-0.482h-0.285v-0.48h-0.283v-0.482h-0.283v0.482h-0.285v0.48h-0.283v0.482h-0.285V-27.137z
			 M41.324-29.064h0.285v-0.482h-0.285V-29.064z M44.449-30.51h0.17v-0.481h-0.17V-30.51z M43.881-31.473h0.283v-0.481h0.285v-0.482
			h0.17v-0.771h-0.17v0.289h-0.285v0.482h-0.283V-31.473z M43.313-32.919h0.285v-0.289h-0.285V-32.919z"/>
		<path clip-path="url(#SVGID_8_)" fill="#C8313E" d="M46.721-18.464h-0.854v-0.482h-0.283v-0.481h-0.283v-0.481h-0.283v-0.482
			h-0.285v-0.482h0.285v-0.481h0.283v-0.481h0.283v-0.481h0.283V-22.8h0.285v-0.482h0.283v0.482h0.285v0.481h0.283v0.481h0.283
			v0.481h0.285v0.481h0.283v0.482h-0.283v0.482h-0.285v0.481h-0.283v0.481h-0.283V-18.464z M46.436-19.428h-0.283v-0.481h-0.285
			v-0.482h-0.283v-0.482h0.283v-0.481h0.285v-0.481h0.283v0.481h0.285v0.481h0.283v0.482h-0.283v0.482h-0.285V-19.428z
			 M46.436-20.392h-0.283v-0.482h0.283V-20.392z M47.855-18.947h-0.283v-0.482h0.283V-18.947z M47.855-21.837h-0.283v-0.481h0.283
			V-21.837z M44.732-18.464h-0.17v-0.965h0.17V-18.464z M44.732-21.837h-0.17V-22.8h0.17V-21.837z M47.287-22.8h-0.283v-0.482
			h-0.283v-0.482h-0.285v-0.48h0.285v-0.482h0.283v-0.482h0.283v0.482h0.285v0.482h0.283v0.48h-0.283v0.482h-0.285V-22.8z
			 M47.287-23.765h-0.283v-0.482h0.283V-23.765z M45.584-22.8h-0.283v-0.482h-0.283v-0.482h-0.285v-0.48h0.285v-0.482h0.283v-0.482
			h0.283v0.482h0.283v0.482h0.285v0.48h-0.285v0.482h-0.283V-22.8z M45.584-23.765h-0.283v-0.482h0.283V-23.765z M47.855-25.692
			h-0.283v-0.481h0.283V-25.692z M44.732-25.21h-0.17v-0.963h0.17V-25.21z"/>
		<path clip-path="url(#SVGID_8_)" fill="#C8313E" d="M47.855-27.137h-0.283v0.482h-0.285v0.481h-0.283v0.481h-0.283v0.481h-0.285
			v0.482h-0.283v-0.482h-0.285v-0.481h-0.283v-0.481h-0.283v-0.481h-0.283v-0.482h-0.285v-0.481h-0.17v-1.928h0.17v-0.481h0.285
			v-0.482h0.283v-0.481h0.283v-0.481h0.283v-0.481h0.285v-1.254h0.568v0.289h0.283v0.482h0.283v0.482h0.285v0.481h0.283v1.445
			h-0.283v-0.482h-0.285v-0.481h-0.283v-0.481h-0.283v0.481h-0.285v0.481h-0.283v0.482h-0.285v0.481h-0.283v0.482h-0.283v0.48h0.283
			v0.482h0.283v0.482h0.854v-0.482h-0.568v-0.482h0.283v-0.48h0.285v-0.482h0.283v0.482h0.283v0.48h0.285v0.482h0.283V-27.137z
			 M47.855-29.064h-0.283v-0.482h0.283V-29.064z M44.732-30.51h-0.17v-0.481h0.17V-30.51z M45.301-31.473h-0.283v-0.481h-0.285
			v-0.482h-0.17v-0.771h0.17v0.289h0.285v0.482h0.283V-31.473z M45.867-32.919h-0.283v-0.289h0.283V-32.919z"/>
	</g>
	<g>
		<defs>
			<path id="SVGID_9_" d="M-40.619-33.16c0,8.008,6.492,14.5,14.501,14.5c8.008,0,14.5-6.492,14.5-14.5s-6.492-14.5-14.5-14.5
				C-34.126-47.66-40.619-41.167-40.619-33.16"/>
		</defs>
		<clipPath id="SVGID_10_">
			<use xlink:href="#SVGID_9_"  overflow="visible"/>
		</clipPath>
		<rect x="-49.466" y="-47.659" clip-path="url(#SVGID_10_)" fill="#FFFFFF" width="44.443" height="9.688"/>
		<rect x="-49.466" y="-37.97" clip-path="url(#SVGID_10_)" fill="#27A2E1" width="44.443" height="9.689"/>
		<rect x="-49.466" y="-28.28" clip-path="url(#SVGID_10_)" fill="#ED1C14" width="44.443" height="9.688"/>
	</g>
	<g>
		<defs>
			<path id="SVGID_11_" d="M0.549-33.16c0,8.008,6.49,14.5,14.5,14.5c8.008,0,14.5-6.492,14.5-14.5s-6.492-14.5-14.5-14.5
				C7.039-47.66,0.549-41.167,0.549-33.16"/>
		</defs>
		<clipPath id="SVGID_12_">
			<use xlink:href="#SVGID_11_"  overflow="visible"/>
		</clipPath>
		<rect x="-30.521" y="-54.315" clip-path="url(#SVGID_12_)" fill="#00AFCA" width="84.621" height="42.312"/>
		<path clip-path="url(#SVGID_12_)" fill="#FEC50C" d="M15.195-42.238c3.143,0,5.691,2.55,5.691,5.693
			c0,3.145-2.549,5.693-5.691,5.693c-3.145,0-5.693-2.549-5.693-5.693C9.502-39.688,12.051-42.238,15.195-42.238"/>
		<path clip-path="url(#SVGID_12_)" fill="#FEC50C" d="M15.195-43.013c0.338-0.004,0.465-0.217,0.465-0.471
			c0-0.338-0.465-1.949-0.465-1.949s-0.467,1.611-0.467,1.949C14.729-43.23,14.855-43.013,15.195-43.013"/>
		<path clip-path="url(#SVGID_12_)" fill="#FEC50C" d="M21.664-36.544c0.004,0.339,0.215,0.465,0.469,0.465
			c0.34,0,1.951-0.465,1.951-0.465s-1.611-0.465-1.951-0.465C21.879-37.009,21.664-36.883,21.664-36.544"/>
		<path clip-path="url(#SVGID_12_)" fill="#FEC50C" d="M15.195-30.076c-0.34,0.004-0.467,0.217-0.467,0.471
			c0,0.338,0.467,1.949,0.467,1.949s0.465-1.611,0.465-1.949C15.66-29.859,15.533-30.076,15.195-30.076"/>
		<path clip-path="url(#SVGID_12_)" fill="#FEC50C" d="M8.725-36.544c-0.004-0.339-0.215-0.465-0.469-0.465
			c-0.338,0-1.951,0.465-1.951,0.465s1.613,0.465,1.951,0.465C8.51-36.08,8.725-36.206,8.725-36.544"/>
		<path clip-path="url(#SVGID_12_)" fill="#FEC50C" d="M17.67-42.521c0.314,0.126,0.514-0.021,0.609-0.256
			c0.129-0.313,0.316-1.98,0.316-1.98s-1.047,1.311-1.176,1.624C17.322-42.898,17.357-42.652,17.67-42.521"/>
		<path clip-path="url(#SVGID_12_)" fill="#FEC50C" d="M21.172-34.069c-0.127,0.313,0.02,0.513,0.256,0.61
			c0.313,0.129,1.98,0.315,1.98,0.315s-1.313-1.047-1.625-1.176C21.549-34.416,21.301-34.382,21.172-34.069"/>
		<path clip-path="url(#SVGID_12_)" fill="#FEC50C" d="M12.719-30.568c-0.314-0.126-0.514,0.021-0.609,0.256
			c-0.129,0.313-0.316,1.98-0.316,1.98s1.047-1.311,1.176-1.624C13.066-30.191,13.031-30.437,12.719-30.568"/>
		<path clip-path="url(#SVGID_12_)" fill="#FEC50C" d="M9.217-39.02c0.127-0.313-0.02-0.513-0.256-0.61
			c-0.311-0.129-1.979-0.315-1.979-0.315s1.311,1.047,1.623,1.176C8.84-38.673,9.088-38.707,9.217-39.02"/>
		<path clip-path="url(#SVGID_12_)" fill="#FEC50C" d="M19.77-41.119c0.242,0.236,0.482,0.177,0.66-0.003
			c0.24-0.239,1.051-1.708,1.051-1.708s-1.469,0.81-1.709,1.05C19.592-41.601,19.529-41.358,19.77-41.119"/>
		<path clip-path="url(#SVGID_12_)" fill="#FEC50C" d="M19.77-31.97c-0.236,0.242-0.178,0.482,0.002,0.661
			c0.24,0.24,1.709,1.05,1.709,1.05s-0.811-1.469-1.051-1.707C20.252-32.147,20.008-32.208,19.77-31.97"/>
		<path clip-path="url(#SVGID_12_)" fill="#FEC50C" d="M10.619-31.97c-0.24-0.236-0.48-0.177-0.66,0.004
			c-0.24,0.238-1.051,1.707-1.051,1.707s1.471-0.81,1.709-1.05C10.797-31.488,10.859-31.731,10.619-31.97"/>
		<path clip-path="url(#SVGID_12_)" fill="#FEC50C" d="M10.619-41.119c0.236-0.242,0.178-0.482-0.002-0.661
			c-0.238-0.24-1.709-1.05-1.709-1.05s0.811,1.469,1.051,1.708C10.139-40.942,10.381-40.88,10.619-41.119"/>
		<path clip-path="url(#SVGID_12_)" fill="#FEC50C" d="M21.172-39.02c0.133,0.312,0.377,0.347,0.611,0.25
			c0.313-0.129,1.625-1.176,1.625-1.176s-1.668,0.187-1.98,0.315C21.191-39.533,21.041-39.333,21.172-39.02"/>
		<path clip-path="url(#SVGID_12_)" fill="#FEC50C" d="M17.67-30.568c-0.311,0.133-0.348,0.377-0.25,0.612
			c0.129,0.313,1.176,1.624,1.176,1.624s-0.188-1.668-0.316-1.98C18.184-30.546,17.982-30.698,17.67-30.568"/>
		<path clip-path="url(#SVGID_12_)" fill="#FEC50C" d="M9.217-34.069c-0.133-0.312-0.377-0.347-0.611-0.25
			c-0.313,0.129-1.623,1.176-1.623,1.176s1.668-0.187,1.979-0.315C9.197-33.556,9.348-33.755,9.217-34.069"/>
		<path clip-path="url(#SVGID_12_)" fill="#FEC50C" d="M12.719-42.521c0.311-0.133,0.348-0.377,0.25-0.612
			c-0.129-0.313-1.176-1.624-1.176-1.624s0.188,1.668,0.316,1.98C12.205-42.542,12.406-42.391,12.719-42.521"/>
		<path clip-path="url(#SVGID_12_)" fill="#FEC50C" d="M16.457-42.889c0.332,0.062,0.498-0.121,0.547-0.37
			c0.066-0.332-0.076-2.004-0.076-2.004s-0.77,1.49-0.836,1.822C16.043-43.191,16.125-42.956,16.457-42.889"/>
		<path clip-path="url(#SVGID_12_)" fill="#FEC50C" d="M21.539-35.283c-0.063,0.334,0.121,0.5,0.371,0.549
			c0.332,0.065,2.004-0.076,2.004-0.076s-1.492-0.771-1.824-0.838C21.842-35.697,21.605-35.615,21.539-35.283"/>
		<path clip-path="url(#SVGID_12_)" fill="#FEC50C" d="M13.932-30.2c-0.332-0.062-0.498,0.121-0.547,0.37
			c-0.066,0.332,0.076,2.004,0.076,2.004s0.77-1.49,0.836-1.822C14.346-29.898,14.264-30.133,13.932-30.2"/>
		<path clip-path="url(#SVGID_12_)" fill="#FEC50C" d="M8.85-37.806c0.063-0.333-0.121-0.499-0.371-0.549
			c-0.33-0.065-2.004,0.076-2.004,0.076s1.492,0.771,1.824,0.838C8.547-37.392,8.783-37.474,8.85-37.806"/>
		<path clip-path="url(#SVGID_12_)" fill="#FEC50C" d="M18.789-41.923c0.283,0.186,0.506,0.079,0.648-0.132
			c0.188-0.281,0.695-1.88,0.695-1.88s-1.283,1.08-1.471,1.363C18.521-42.361,18.508-42.111,18.789-41.923"/>
		<path clip-path="url(#SVGID_12_)" fill="#FEC50C" d="M20.574-32.951c-0.186,0.284-0.08,0.508,0.131,0.648
			c0.281,0.188,1.881,0.697,1.881,0.697s-1.082-1.283-1.363-1.471C21.012-33.217,20.762-33.231,20.574-32.951"/>
		<path clip-path="url(#SVGID_12_)" fill="#FEC50C" d="M11.6-31.166c-0.283-0.185-0.506-0.079-0.646,0.133
			c-0.189,0.28-0.697,1.879-0.697,1.879s1.283-1.082,1.471-1.362C11.867-30.727,11.881-30.977,11.6-31.166"/>
		<path clip-path="url(#SVGID_12_)" fill="#FEC50C" d="M9.816-40.138c0.184-0.284,0.078-0.508-0.133-0.648
			c-0.281-0.188-1.881-0.696-1.881-0.696s1.082,1.282,1.363,1.47C9.377-39.872,9.627-39.858,9.816-40.138"/>
		<path clip-path="url(#SVGID_12_)" fill="#FEC50C" d="M20.574-40.138c0.191,0.278,0.438,0.267,0.648,0.125
			c0.281-0.188,1.363-1.47,1.363-1.47s-1.6,0.509-1.881,0.696C20.494-40.646,20.385-40.419,20.574-40.138"/>
		<path clip-path="url(#SVGID_12_)" fill="#FEC50C" d="M18.789-31.166c-0.279,0.192-0.268,0.438-0.127,0.649
			c0.188,0.28,1.471,1.362,1.471,1.362s-0.508-1.599-0.695-1.879C19.295-31.245,19.07-31.353,18.789-31.166"/>
		<path clip-path="url(#SVGID_12_)" fill="#FEC50C" d="M9.816-32.951c-0.193-0.278-0.439-0.267-0.65-0.125
			c-0.281,0.188-1.363,1.471-1.363,1.471s1.6-0.51,1.881-0.697C9.895-32.443,10.004-32.669,9.816-32.951"/>
		<path clip-path="url(#SVGID_12_)" fill="#FEC50C" d="M11.6-41.923c0.279-0.191,0.268-0.438,0.127-0.648
			c-0.188-0.283-1.471-1.363-1.471-1.363s0.508,1.599,0.697,1.88C11.094-41.844,11.318-41.736,11.6-41.923"/>
		<path clip-path="url(#SVGID_12_)" fill="#FEC50C" d="M21.539-37.806c0.07,0.33,0.303,0.414,0.551,0.365
			c0.332-0.066,1.824-0.838,1.824-0.838s-1.672-0.142-2.004-0.076C21.66-38.305,21.473-38.138,21.539-37.806"/>
		<path clip-path="url(#SVGID_12_)" fill="#FEC50C" d="M16.457-30.2c-0.332,0.07-0.414,0.302-0.365,0.552
			c0.066,0.332,0.836,1.822,0.836,1.822s0.143-1.672,0.076-2.004C16.955-30.079,16.789-30.265,16.457-30.2"/>
		<path clip-path="url(#SVGID_12_)" fill="#FEC50C" d="M8.85-35.283c-0.07-0.33-0.303-0.414-0.551-0.365
			c-0.332,0.066-1.824,0.838-1.824,0.838s1.674,0.142,2.004,0.076C8.729-34.783,8.916-34.951,8.85-35.283"/>
		<path clip-path="url(#SVGID_12_)" fill="#FEC50C" d="M13.932-42.889c0.332-0.07,0.414-0.302,0.365-0.552
			c-0.066-0.332-0.836-1.822-0.836-1.822s-0.143,1.672-0.076,2.004C13.434-43.01,13.6-42.824,13.932-42.889"/>
		<path clip-path="url(#SVGID_12_)" fill="#FEC50C" d="M14.18-24.212c-0.152,0.009-0.301,0.028-0.447,0.075
			c-0.199,0.026-0.389,0.096-0.586,0.128l-0.078,0.013l-0.133,0.013c0.008,0.037,0.014,0.073,0.014,0.11
			c0,0.038-0.004,0.074-0.014,0.105c-0.008,0.03-0.035,0.067-0.057,0.089c-0.029,0.031-0.059,0.058-0.094,0.074
			c-0.033,0.018-0.072,0.024-0.109,0.027c-0.039,0.002-0.078,0-0.115-0.014s-0.072-0.037-0.105-0.064
			c-0.039,0.01-0.08,0.017-0.119,0.021s-0.074,0.004-0.109,0c-0.041-0.011-0.082-0.024-0.119-0.04
			c-0.039-0.016-0.076-0.035-0.111-0.057c-0.143,0.084-0.303,0.164-0.391,0.313c-0.049,0.067-0.061,0.145-0.07,0.225
			c-0.008,0.1,0.018,0.203,0.061,0.295c0.016,0.027,0.027-0.097,0.074-0.113c0.082-0.066,0.182-0.114,0.283-0.141
			c0.086-0.045,0.074,0.002,0.039,0.069c-0.008,0.036-0.055,0.17,0.008,0.103c0.287-0.127,0.605-0.152,0.914-0.176
			c0.447-0.048,0.898-0.058,1.348-0.063c0.424,0.006,0.846,0.012,1.27,0.026c0.201,0.006,0.404,0.052,0.604,0.018
			c0.049-0.012,0.123-0.016,0.15-0.044c-0.09-0.052-0.195-0.054-0.295-0.066h-0.807c-0.225-0.021-0.459-0.024-0.67-0.11
			c-0.057-0.021-0.109-0.075-0.162-0.018c-0.08,0.028-0.166,0.049-0.252,0.053c-0.148,0.013-0.295-0.019-0.434-0.074
			c0.1-0.137,0.217-0.256,0.326-0.383c-0.088-0.015-0.172-0.032-0.26-0.054C13.887-23.98,14.029-24.099,14.18-24.212"/>
		<path clip-path="url(#SVGID_12_)" fill="#FEC50C" d="M20.768-22.75c-0.307,0.184-0.539-0.142-0.797-0.24
			c-0.184,0.099-0.199,0.433-0.371,0.589c-0.203,0.233-0.455-0.064-0.436-0.295c-0.246,0.207-0.369,0.674-0.764,0.612
			c-0.189-0.153-0.328-0.474-0.471-0.109c-0.117,0.179-0.428,0.433-0.59,0.163c-0.049-0.238-0.168-0.518-0.299-0.14
			c-0.088,0.268-0.373,0.465-0.648,0.348c-0.152-0.124,0.121-0.581-0.072-0.549c-0.287,0.19-0.455,0.663-0.857,0.625
			c-0.154-0.175,0.096-0.472-0.076-0.666c-0.201,0.259-0.426,0.639-0.773,0.666c-0.17-0.138,0.006-0.529-0.104-0.587
			c-0.357,0.215-0.734,0.598-1.186,0.478c0.176-0.672,0.91-0.907,1.527-0.96c1.061-0.13,2.178,0.11,3.199-0.272
			c0.164-0.102,0.564-0.243,0.422-0.477c-0.125-0.184,0.328-0.112,0.373-0.327c-0.027-0.271,0.207-0.233,0.438-0.258
			c1.031-0.045,2.049,0.172,3.078,0.209c0.078,0.501-0.479,0.854-0.926,0.698c-0.213,0.035-0.533-0.491-0.471-0.108
			C20.922-23.15,20.951-22.884,20.768-22.75 M11.992-23.777c0.24,0.219,0.406-0.041,0.629-0.136c0.75-0.257,1.402-0.707,2.047-1.157
			c0.391-0.322,0.729-0.74,1.252-0.846c1.021-0.309,2.109-0.271,3.135-0.557c0.781-1.07,2.107-1.451,3.219-2.066
			c0.25-0.077,0.346-0.283,0.426-0.51c0.424-0.67,1.002-1.264,1.686-1.668c0.324-0.178,0.711-0.279,1.076-0.198
			c-0.025,0.437-0.275,0.823-0.578,1.124c0.246-0.005,0.459-0.161,0.709-0.153c0.086,0.448-0.398,0.683-0.654,0.961
			c0.143,0.033,0.691,0.075,0.393,0.218c-0.381,0.266-0.816,0.446-1.168,0.754c0.324,0.058,0.361,0.127,0.031,0.244
			c-0.178,0.121-0.521,0.164-0.555,0.399c0.244,0.151-0.113,0.3-0.25,0.349c-0.266,0.063-0.543,0.178-0.191,0.377
			c-0.133,0.201-0.418,0.244-0.65,0.225c0.07,0.227,0.174,0.48-0.123,0.581c-0.66,0.5-1.436,0.864-2.268,0.946
			c1.039,0.08,2.107-0.112,2.994-0.678c0.117-0.138,0.732-0.287,0.389-0.402c-0.162-0.068-0.508-0.143-0.533-0.267
			c0.482-0.296,1.086-0.19,1.604-0.366c0.014-0.168-0.393-0.121-0.545-0.16c-0.361-0.028-0.34-0.121,0.01-0.155
			c0.439-0.117,0.939-0.14,1.311-0.427c-0.303-0.141-0.682-0.018-1.004-0.131c0.545-0.24,1.189-0.264,1.682-0.623
			c0.223-0.248-0.287-0.17-0.436-0.164c-0.303,0.053-0.441-0.093-0.1-0.219c0.588-0.432,1.33-0.714,1.744-1.341
			c0.096-0.14,0.229-0.563-0.082-0.411c-0.41,0.137-0.771,0.598-1.238,0.454c0.92-0.713,1.795-1.524,2.424-2.51
			c0.033-0.285-0.414-0.315-0.529-0.093c-0.592,0.57-1.125,1.242-1.883,1.599c0.725-0.699,1.324-1.526,1.846-2.385
			c0.111-0.255,0.414-0.563,0.25-0.847c-0.264-0.218-0.594-0.018-0.73,0.243c-0.459,0.599-0.807,1.3-1.396,1.787
			c0.516-0.985,1.051-2.037,1.064-3.175c-0.002-0.234-0.049-0.579-0.367-0.535c-0.252,0.045-0.191,0.422-0.297,0.613
			c-0.229,0.777-0.336,1.62-0.805,2.301c0.104-0.632,0.289-1.291,0.146-1.929c-0.064-0.285-0.525-0.162-0.467,0.12
			c-0.549,2.785-2.42,5.224-4.865,6.633c-1.119,0.634-2.369,1.042-3.643,1.227c-0.342,0.075-0.713,0.031-1.039,0.148
			c-0.793,0.607-1.271,1.625-2.277,1.943c-0.449,0.224-1.035,0.269-1.357,0.687C11.998-23.898,11.992-23.835,11.992-23.777"/>
		<path clip-path="url(#SVGID_12_)" fill="#FEC50C" d="M14.996-26.603c-0.146,0.269-0.234,0.577-0.426,0.818
			c-0.572-0.521-1.402-0.504-2.129-0.539c-0.6-0.031-1.252-0.087-1.717-0.515c-0.488-0.4-0.887-0.92-1.432-1.244
			c-0.498-0.135-1-0.306-1.4-0.646c-0.855-0.699-1.346-1.732-2.182-2.451c-0.158-0.157-0.348-0.279-0.525-0.412
			c-0.17,0.041-0.094,0.408-0.301,0.221c-0.113-0.08-0.396-0.088-0.42,0.023c0.254,0.338,0.51,0.722,0.545,1.152
			c-0.174,0.018-0.484-0.037-0.57,0.028c0.23,0.347,0.529,0.655,0.865,0.899c-0.162,0.026-0.48,0.013-0.541,0.078
			c0.334,0.272,0.691,0.551,1.131,0.621c0.09,0.118-0.131,0.346,0.055,0.447c0.107,0.044,0.463,0.118,0.217,0.24
			c-0.168,0.113-0.104,0.377,0.109,0.371c0.137,0.07,0.441,0.087,0.465,0.207c-0.119,0.121-0.494,0.267-0.176,0.382
			c0.299,0.165,0.637,0.272,0.977,0.284c-0.17,0.144-0.381,0.225-0.555,0.36c0.785,0.46,1.654,0.763,2.514,1.054
			c0.344,0.115,0.689,0.222,1.043,0.289c-1.029-0.061-2.027-0.365-2.967-0.783c-0.484-0.213-0.975-0.42-1.475-0.604
			c0.219-0.113,0.471-0.142,0.699-0.24c-0.473-0.095-0.986-0.125-1.4-0.384c0.064-0.112,0.305-0.118,0.438-0.176
			c0.25-0.06,0.404-0.133,0.053-0.155c-0.355-0.096-0.764-0.053-1.076-0.267c0.02-0.129,0.348-0.084,0.48-0.14
			c0.17-0.029,0.355-0.054,0.49-0.166c-0.551-0.229-1.27-0.067-1.699-0.553c-0.1-0.185,0.309-0.035,0.424-0.066
			c0.295,0,0.611,0.094,0.893-0.025c-0.801-0.352-1.658-0.681-2.27-1.332c-0.068-0.104-0.271-0.39-0.107-0.425
			c0.475,0.063,0.82,0.582,1.328,0.501c0.068-0.091-0.295-0.241-0.385-0.371c-0.742-0.636-1.461-1.327-1.982-2.16
			c-0.035-0.279,0.402-0.32,0.518-0.104c0.566,0.546,1.08,1.183,1.785,1.556c0.252,0.122-0.143-0.145-0.195-0.24
			c-0.652-0.758-1.275-1.558-1.73-2.451c-0.082-0.16-0.217-0.451,0.027-0.537C2.635-34.179,2.877-34.011,3-33.802
			c0.48,0.605,0.834,1.324,1.432,1.828c-0.508-0.987-1.053-2.027-1.066-3.166c0.012-0.22,0.027-0.554,0.326-0.545
			c0.25-0.037,0.211,0.284,0.293,0.438c0.248,0.835,0.355,1.74,0.852,2.477c-0.109-0.619-0.271-1.258-0.164-1.888
			c0.025-0.207,0.258-0.269,0.41-0.144c0.123,0.301,0.148,0.672,0.26,0.994c0.637,2.179,2.068,4.097,3.934,5.383
			c1.535,1.053,3.357,1.682,5.217,1.792C14.66-26.62,14.828-26.614,14.996-26.603"/>
		<path clip-path="url(#SVGID_12_)" fill="#FEC50C" d="M12.637-23.914c0.055,0,0.1,0.045,0.1,0.1c0,0.057-0.045,0.1-0.1,0.1
			c-0.057,0-0.102-0.043-0.102-0.1C12.535-23.869,12.58-23.914,12.637-23.914"/>
		<path clip-path="url(#SVGID_12_)" fill="#FEC50C" d="M12.627-23.871c0.023,0,0.041,0.018,0.041,0.041
			c0,0.021-0.018,0.041-0.041,0.041s-0.041-0.02-0.041-0.041C12.586-23.853,12.604-23.871,12.627-23.871"/>
		<circle clip-path="url(#SVGID_12_)" fill="none" stroke="#00AFCA" stroke-width="0.381" cx="12.627" cy="-23.83" r="0.041"/>
		<path clip-path="url(#SVGID_12_)" fill="#FEC50C" d="M-25.443-51.229c0,0-0.408-0.342-0.545-0.17
			c-0.223,0.275,0.682,1.648,0.682,2.132c0,0.794-0.527,1.01-1.182,1.123c-0.439,0.076-1.154-0.032-1.154-0.032
			c0.135-0.181,0.223-0.234,0.449-0.249c-0.252-0.131-0.51-0.415-0.51-0.858c0-0.683,0.281-0.964,0.281-1.734
			c0-0.427-0.35-0.97-0.35-0.97c0.617,0.062,0.926,0.635,0.75,1.093c0.1,0.014,0.189-0.008,0.266-0.081
			c0.045,0.127-0.027,0.274-0.123,0.401c0.078,0.041,0.135,0.018,0.258-0.009c-0.012,0.131-0.09,0.27-0.283,0.401
			c0.559-0.146,0.9,0.243,0.9,0.648c0,0.308-0.215,0.527-0.426,0.527c-0.068,0-0.166-0.028-0.225-0.07
			c-0.039,0.084-0.018,0.197,0.023,0.281c-0.154-0.04-0.252-0.132-0.184-0.322c-0.117-0.011-0.211-0.051-0.275-0.127
			c0.064-0.083,0.164-0.131,0.275-0.127c-0.086-0.178,0.012-0.276,0.15-0.358c0,0-0.088,0.358,0.139,0.358
			c0.102,0,0.195-0.032,0.195-0.184c0-0.132-0.115-0.313-0.379-0.302c-0.266,0.013-0.48,0.184-0.48,0.606
			c0,0.39,0.314,0.584,0.729,0.597c0.375,0.012,0.656-0.191,0.656-0.576c0-0.515-0.74-1.684-0.74-2.141
			c0-0.344,0.309-0.535,0.609-0.535c0.393,0,0.723,0.388,0.723,0.388L-25.443-51.229z"/>
		<path clip-path="url(#SVGID_12_)" fill="#FEC50C" d="M-25.357-41.955c0,0.858-0.771,1.299-1.375,1.299
			c-0.816,0-1.25-0.487-1.25-1.125c0-0.362,0.066-0.59,0.232-0.936c0,0,1.346-2.796,1.869-3.878
			c0.064-0.134,0.086-0.288,0.086-0.513c0-0.349-0.338-0.633-0.691-0.642c-0.322-0.008-0.672,0.302-0.672,0.653
			c0,0.427,0.221,0.617,0.447,0.617c0.281,0,0.393-0.115,0.393-0.313c0-0.137-0.066-0.195-0.162-0.195
			c-0.24,0-0.172,0.322-0.172,0.322c-0.119-0.025-0.219-0.147-0.162-0.3c-0.086-0.019-0.168-0.065-0.232-0.138
			c0.064-0.063,0.139-0.111,0.232-0.127c-0.057-0.187,0.02-0.277,0.182-0.315c-0.033,0.072-0.033,0.138-0.021,0.199
			c0.254-0.072,0.646,0.043,0.646,0.485c0,0.438-0.305,0.808-0.875,0.716c0.135,0.063,0.205,0.196,0.219,0.346
			c-0.104-0.041-0.219-0.046-0.219-0.046c0.066,0.117,0.16,0.219,0.156,0.45c-0.107-0.048-0.205-0.138-0.34-0.081
			c0.213,0.419-0.049,0.995-0.715,1.131c0.244-0.285,0.363-0.593,0.363-0.9c0-0.994-0.275-1.16-0.275-1.853
			c0-0.289,0.146-0.601,0.441-0.813v0.012c-0.193-0.053-0.318-0.148-0.391-0.278c0.445-0.126,1.092-0.124,1.439,0.013
			c0.398,0.047,0.678,0.353,0.76,0.508s0.24,0.718,0,1.224c-0.266,0.554-1.512,3.196-1.9,4.028
			c-0.082,0.176-0.133,0.362-0.133,0.564c0,0.509,0.467,0.688,0.73,0.688c0.318,0,0.641-0.241,0.641-0.543
			c0-0.19-0.104-0.306-0.254-0.306c-0.357,0-0.336,0.304-0.266,0.496c-0.221-0.1-0.352-0.278-0.314-0.467
			c-0.127-0.019-0.246-0.077-0.357-0.202c0.086-0.109,0.193-0.193,0.357-0.197c-0.072-0.291,0.123-0.416,0.314-0.483
			c-0.059,0.214-0.1,0.461,0.266,0.461c0.268,0,0.477,0.047,0.6,0.22c0.006-0.23,0.029-1.143,0.029-1.143
			c0.014-0.342-0.459-0.334-0.76-0.231c0.111-0.394,0.346-0.608,0.885-0.554c-0.131-0.055-0.27-0.178-0.27-0.415
			c0-0.321,0.26-0.677,0.432-0.783L-25.357-41.955z"/>
		<path clip-path="url(#SVGID_12_)" fill="#FEC50C" d="M-25.357-39.382c0-0.857-0.771-1.297-1.375-1.297
			c-0.816,0-1.25,0.486-1.25,1.125c0,0.361,0.066,0.588,0.232,0.935c0,0,1.346,2.796,1.869,3.878
			c0.064,0.134,0.086,0.288,0.086,0.513c0,0.349-0.338,0.632-0.691,0.642c-0.322,0.008-0.672-0.301-0.672-0.652
			c0-0.427,0.221-0.618,0.447-0.618c0.281,0,0.393,0.115,0.393,0.312c0,0.138-0.066,0.197-0.162,0.197
			c-0.24,0-0.172-0.324-0.172-0.324c-0.119,0.026-0.219,0.148-0.162,0.301c-0.086,0.019-0.168,0.064-0.232,0.138
			c0.064,0.063,0.139,0.111,0.232,0.127c-0.057,0.187,0.02,0.277,0.182,0.315c-0.033-0.072-0.033-0.137-0.021-0.199
			c0.254,0.072,0.646-0.043,0.646-0.485c0-0.438-0.305-0.808-0.875-0.716c0.135-0.064,0.205-0.197,0.219-0.346
			c-0.104,0.041-0.219,0.046-0.219,0.046c0.066-0.117,0.16-0.22,0.156-0.45c-0.107,0.048-0.205,0.137-0.34,0.081
			c0.213-0.419-0.049-0.995-0.715-1.131c0.244,0.285,0.363,0.594,0.363,0.899c0,0.994-0.275,1.162-0.275,1.854
			c0,0.289,0.146,0.602,0.441,0.813v-0.011c-0.193,0.052-0.318,0.148-0.391,0.278c0.445,0.126,1.092,0.124,1.439-0.014
			c0.398-0.045,0.678-0.352,0.76-0.508c0.082-0.154,0.24-0.717,0-1.223c-0.266-0.554-1.512-3.197-1.9-4.027
			c-0.082-0.177-0.133-0.363-0.133-0.565c0-0.509,0.467-0.687,0.73-0.687c0.318,0,0.641,0.24,0.641,0.541
			c0,0.191-0.104,0.307-0.254,0.307c-0.357,0-0.336-0.305-0.266-0.496c-0.221,0.1-0.352,0.279-0.314,0.467
			c-0.127,0.018-0.246,0.077-0.357,0.202c0.086,0.11,0.193,0.194,0.357,0.196c-0.072,0.293,0.123,0.416,0.314,0.484
			c-0.059-0.214-0.1-0.461,0.266-0.461c0.268,0,0.477-0.047,0.6-0.22c0.006,0.231,0.029,1.143,0.029,1.143
			c0.014,0.343-0.459,0.333-0.76,0.231c0.111,0.394,0.346,0.607,0.885,0.554c-0.131,0.056-0.27,0.179-0.27,0.415
			c0,0.322,0.26,0.677,0.432,0.783L-25.357-39.382z"/>
		<path clip-path="url(#SVGID_12_)" fill="#FEC50C" d="M-25.443-51.229c0,0,0.406-0.342,0.545-0.17
			c0.223,0.275-0.684,1.648-0.684,2.132c0,0.794,0.529,1.01,1.184,1.123c0.439,0.076,1.154-0.032,1.154-0.032
			c-0.135-0.181-0.223-0.234-0.449-0.249c0.252-0.131,0.508-0.415,0.508-0.858c0-0.683-0.279-0.964-0.279-1.734
			c0-0.427,0.35-0.97,0.35-0.97c-0.619,0.062-0.926,0.635-0.752,1.093c-0.098,0.014-0.188-0.008-0.264-0.081
			c-0.045,0.127,0.025,0.274,0.121,0.401c-0.076,0.041-0.133,0.018-0.256-0.009c0.012,0.131,0.09,0.27,0.281,0.401
			c-0.557-0.146-0.898,0.243-0.898,0.648c0,0.308,0.215,0.527,0.426,0.527c0.066,0,0.166-0.028,0.223-0.07
			c0.039,0.084,0.02,0.197-0.021,0.281c0.154-0.04,0.252-0.132,0.182-0.322c0.119-0.011,0.213-0.051,0.277-0.127
			c-0.064-0.083-0.164-0.131-0.277-0.127c0.086-0.178-0.01-0.276-0.15-0.358c0,0,0.09,0.358-0.137,0.358
			c-0.102,0-0.195-0.032-0.195-0.184c0-0.132,0.115-0.313,0.379-0.302c0.266,0.013,0.48,0.184,0.48,0.606
			c0,0.39-0.314,0.584-0.729,0.597c-0.375,0.012-0.656-0.191-0.656-0.576c0-0.515,0.74-1.684,0.74-2.141
			c0-0.344-0.309-0.535-0.611-0.535c-0.391,0-0.721,0.388-0.721,0.388L-25.443-51.229z"/>
		<path clip-path="url(#SVGID_12_)" fill="#FEC50C" d="M-25.529-41.955c0,0.858,0.77,1.299,1.375,1.299
			c0.814,0,1.25-0.487,1.25-1.125c0-0.362-0.066-0.59-0.234-0.936c0,0-1.344-2.796-1.867-3.878
			c-0.064-0.134-0.086-0.288-0.086-0.513c0-0.349,0.336-0.633,0.691-0.642c0.32-0.008,0.672,0.302,0.672,0.653
			c0,0.427-0.221,0.617-0.449,0.617c-0.279,0-0.391-0.115-0.391-0.313c0-0.137,0.066-0.195,0.162-0.195
			c0.238,0,0.172,0.322,0.172,0.322c0.119-0.025,0.217-0.147,0.162-0.3c0.086-0.019,0.168-0.065,0.232-0.138
			c-0.064-0.063-0.139-0.111-0.232-0.127c0.055-0.187-0.02-0.277-0.184-0.315c0.033,0.072,0.035,0.138,0.023,0.199
			c-0.254-0.072-0.646,0.043-0.646,0.485c0,0.438,0.305,0.808,0.875,0.716c-0.137,0.063-0.205,0.196-0.219,0.346
			c0.104-0.041,0.219-0.046,0.219-0.046c-0.066,0.117-0.16,0.219-0.156,0.45c0.105-0.048,0.203-0.138,0.34-0.081
			c-0.213,0.419,0.049,0.995,0.715,1.131c-0.244-0.285-0.363-0.593-0.363-0.9c0-0.994,0.275-1.16,0.275-1.853
			c0-0.289-0.148-0.601-0.443-0.813v0.012c0.195-0.053,0.32-0.148,0.393-0.278c-0.445-0.126-1.092-0.124-1.439,0.013
			c-0.4,0.047-0.678,0.353-0.76,0.508s-0.242,0.718,0,1.224c0.264,0.554,1.512,3.196,1.898,4.028
			c0.084,0.176,0.135,0.362,0.135,0.564c0,0.509-0.469,0.688-0.732,0.688c-0.316,0-0.639-0.241-0.639-0.543
			c0-0.19,0.104-0.306,0.254-0.306c0.357,0,0.336,0.304,0.264,0.496c0.223-0.1,0.354-0.278,0.316-0.467
			c0.127-0.019,0.246-0.077,0.357-0.202c-0.088-0.109-0.193-0.193-0.357-0.197c0.072-0.291-0.123-0.416-0.316-0.483
			c0.061,0.214,0.1,0.461-0.264,0.461c-0.268,0-0.477,0.047-0.6,0.22c-0.008-0.23-0.029-1.143-0.029-1.143
			c-0.016-0.342,0.459-0.334,0.76-0.231c-0.113-0.394-0.346-0.608-0.885-0.554c0.131-0.055,0.27-0.178,0.27-0.415
			c0-0.321-0.26-0.677-0.432-0.783L-25.529-41.955z"/>
		<path clip-path="url(#SVGID_12_)" fill="#FEC50C" d="M-25.529-39.382c0-0.857,0.77-1.297,1.375-1.297
			c0.814,0,1.25,0.486,1.25,1.125c0,0.361-0.066,0.588-0.234,0.935c0,0-1.344,2.796-1.867,3.878
			c-0.064,0.134-0.086,0.288-0.086,0.513c0,0.349,0.336,0.632,0.691,0.642c0.32,0.008,0.672-0.301,0.672-0.652
			c0-0.427-0.221-0.618-0.449-0.618c-0.279,0-0.391,0.115-0.391,0.312c0,0.138,0.066,0.197,0.162,0.197
			c0.238,0,0.172-0.324,0.172-0.324c0.119,0.026,0.217,0.148,0.162,0.301c0.086,0.019,0.168,0.064,0.232,0.138
			c-0.064,0.063-0.139,0.111-0.232,0.127c0.055,0.187-0.02,0.277-0.184,0.315c0.033-0.072,0.035-0.137,0.023-0.199
			c-0.254,0.072-0.646-0.043-0.646-0.485c0-0.438,0.305-0.808,0.875-0.716c-0.137-0.064-0.205-0.197-0.219-0.346
			c0.104,0.041,0.219,0.046,0.219,0.046c-0.066-0.117-0.16-0.22-0.156-0.45c0.105,0.048,0.203,0.137,0.34,0.081
			c-0.213-0.419,0.049-0.995,0.715-1.131c-0.244,0.285-0.363,0.594-0.363,0.899c0,0.994,0.275,1.162,0.275,1.854
			c0,0.289-0.148,0.602-0.443,0.813v-0.011c0.195,0.052,0.32,0.148,0.393,0.278c-0.445,0.126-1.092,0.124-1.439-0.014
			c-0.4-0.045-0.678-0.352-0.76-0.508c-0.082-0.154-0.242-0.717,0-1.223c0.264-0.554,1.512-3.197,1.898-4.027
			c0.084-0.177,0.135-0.363,0.135-0.565c0-0.509-0.469-0.687-0.732-0.687c-0.316,0-0.639,0.24-0.639,0.541
			c0,0.191,0.104,0.307,0.254,0.307c0.357,0,0.336-0.305,0.264-0.496c0.223,0.1,0.354,0.279,0.316,0.467
			c0.127,0.018,0.246,0.077,0.357,0.202c-0.088,0.11-0.193,0.194-0.357,0.196c0.072,0.293-0.123,0.416-0.316,0.484
			c0.061-0.214,0.1-0.461-0.264-0.461c-0.268,0-0.477-0.047-0.6-0.22c-0.008,0.231-0.029,1.143-0.029,1.143
			c-0.016,0.343,0.459,0.333,0.76,0.231c-0.113,0.394-0.346,0.607-0.885,0.554c0.131,0.056,0.27,0.179,0.27,0.415
			c0,0.322-0.26,0.677-0.432,0.783L-25.529-39.382z"/>
		<path clip-path="url(#SVGID_12_)" fill="#FEC50C" d="M-25.443-15.089c0,0-0.408,0.342-0.545,0.17
			c-0.223-0.275,0.682-1.648,0.682-2.133c0-0.793-0.527-1.01-1.182-1.123c-0.439-0.075-1.154,0.033-1.154,0.033
			c0.135,0.181,0.223,0.233,0.449,0.248c-0.252,0.131-0.51,0.416-0.51,0.858c0,0.683,0.281,0.964,0.281,1.733
			c0,0.428-0.35,0.971-0.35,0.971c0.617-0.063,0.926-0.635,0.75-1.094c0.1-0.014,0.189,0.009,0.266,0.082
			c0.045-0.127-0.027-0.274-0.123-0.401c0.078-0.041,0.135-0.017,0.258,0.009c-0.012-0.131-0.09-0.27-0.283-0.4
			c0.559,0.145,0.9-0.243,0.9-0.649c0-0.308-0.215-0.526-0.426-0.526c-0.068,0-0.166,0.027-0.225,0.069
			c-0.039-0.084-0.018-0.197,0.023-0.282c-0.154,0.041-0.252,0.133-0.184,0.323c-0.117,0.011-0.211,0.051-0.275,0.127
			c0.064,0.083,0.164,0.131,0.275,0.127c-0.086,0.179,0.012,0.277,0.15,0.358c0,0-0.088-0.358,0.139-0.358
			c0.102,0,0.195,0.033,0.195,0.185c0,0.131-0.115,0.312-0.379,0.301c-0.266-0.012-0.48-0.184-0.48-0.606
			c0-0.39,0.314-0.584,0.729-0.596c0.375-0.013,0.656,0.19,0.656,0.576c0,0.514-0.74,1.683-0.74,2.14
			c0,0.344,0.309,0.535,0.609,0.535c0.393,0,0.723-0.389,0.723-0.389L-25.443-15.089z"/>
		<path clip-path="url(#SVGID_12_)" fill="#FEC50C" d="M-25.357-24.365c0-0.858-0.771-1.299-1.375-1.299
			c-0.816,0-1.25,0.488-1.25,1.125c0,0.363,0.066,0.59,0.232,0.936c0,0,1.346,2.796,1.869,3.878
			c0.064,0.136,0.086,0.288,0.086,0.513c0,0.349-0.338,0.633-0.691,0.642c-0.322,0.008-0.672-0.302-0.672-0.652
			c0-0.427,0.221-0.618,0.447-0.618c0.281,0,0.393,0.115,0.393,0.313c0,0.137-0.066,0.195-0.162,0.195
			c-0.24,0-0.172-0.322-0.172-0.322c-0.119,0.025-0.219,0.148-0.162,0.3c-0.086,0.019-0.168,0.065-0.232,0.138
			c0.064,0.063,0.139,0.111,0.232,0.127c-0.057,0.187,0.02,0.277,0.182,0.315c-0.033-0.072-0.033-0.138-0.021-0.199
			c0.254,0.073,0.646-0.043,0.646-0.485c0-0.438-0.305-0.808-0.875-0.715c0.135-0.064,0.205-0.197,0.219-0.347
			c-0.104,0.041-0.219,0.046-0.219,0.046c0.066-0.117,0.16-0.219,0.156-0.449c-0.107,0.047-0.205,0.137-0.34,0.08
			c0.213-0.419-0.049-0.994-0.715-1.131c0.244,0.285,0.363,0.594,0.363,0.9c0,0.994-0.275,1.162-0.275,1.853
			c0,0.289,0.146,0.601,0.441,0.813v-0.012c-0.193,0.053-0.318,0.148-0.391,0.278c0.445,0.126,1.092,0.124,1.439-0.013
			c0.398-0.046,0.678-0.352,0.76-0.508c0.082-0.155,0.24-0.717,0-1.224c-0.266-0.554-1.512-3.196-1.9-4.028
			c-0.082-0.176-0.133-0.362-0.133-0.564c0-0.509,0.467-0.688,0.73-0.688c0.318,0,0.641,0.242,0.641,0.543
			c0,0.19-0.104,0.306-0.254,0.306c-0.357,0-0.336-0.304-0.266-0.496c-0.221,0.101-0.352,0.279-0.314,0.467
			c-0.127,0.019-0.246,0.077-0.357,0.202c0.086,0.11,0.193,0.194,0.357,0.197c-0.072,0.292,0.123,0.416,0.314,0.484
			c-0.059-0.215-0.1-0.461,0.266-0.461c0.268,0,0.477-0.048,0.6-0.221c0.006,0.23,0.029,1.143,0.029,1.143
			c0.014,0.344-0.459,0.334-0.76,0.231c0.111,0.394,0.346,0.608,0.885,0.554c-0.131,0.055-0.27,0.178-0.27,0.415
			c0,0.322,0.26,0.677,0.432,0.783L-25.357-24.365z"/>
		<path clip-path="url(#SVGID_12_)" fill="#FEC50C" d="M-25.357-26.937c0,0.857-0.771,1.298-1.375,1.298
			c-0.816,0-1.25-0.487-1.25-1.125c0-0.362,0.066-0.589,0.232-0.936c0,0,1.346-2.796,1.869-3.878
			c0.064-0.134,0.086-0.288,0.086-0.513c0-0.349-0.338-0.632-0.691-0.642c-0.322-0.008-0.672,0.302-0.672,0.653
			c0,0.427,0.221,0.617,0.447,0.617c0.281,0,0.393-0.115,0.393-0.312c0-0.138-0.066-0.196-0.162-0.196
			c-0.24,0-0.172,0.323-0.172,0.323c-0.119-0.026-0.219-0.148-0.162-0.301c-0.086-0.019-0.168-0.064-0.232-0.138
			c0.064-0.063,0.139-0.11,0.232-0.127c-0.057-0.187,0.02-0.276,0.182-0.315c-0.033,0.072-0.033,0.138-0.021,0.199
			c0.254-0.072,0.646,0.043,0.646,0.485c0,0.438-0.305,0.808-0.875,0.716c0.135,0.064,0.205,0.197,0.219,0.346
			c-0.104-0.041-0.219-0.046-0.219-0.046c0.066,0.117,0.16,0.22,0.156,0.45c-0.107-0.048-0.205-0.137-0.34-0.081
			c0.213,0.419-0.049,0.995-0.715,1.131c0.244-0.284,0.363-0.593,0.363-0.899c0-0.994-0.275-1.161-0.275-1.854
			c0-0.289,0.146-0.601,0.441-0.813v0.011c-0.193-0.052-0.318-0.147-0.391-0.278c0.445-0.126,1.092-0.124,1.439,0.014
			c0.398,0.045,0.678,0.352,0.76,0.508c0.082,0.154,0.24,0.717,0,1.223c-0.266,0.555-1.512,3.197-1.9,4.028
			c-0.082,0.176-0.133,0.362-0.133,0.565c0,0.508,0.467,0.687,0.73,0.687c0.318,0,0.641-0.241,0.641-0.542
			c0-0.191-0.104-0.307-0.254-0.307c-0.357,0-0.336,0.305-0.266,0.496c-0.221-0.1-0.352-0.279-0.314-0.467
			c-0.127-0.018-0.246-0.077-0.357-0.202c0.086-0.11,0.193-0.194,0.357-0.196c-0.072-0.293,0.123-0.416,0.314-0.484
			c-0.059,0.214-0.1,0.461,0.266,0.461c0.268,0,0.477,0.047,0.6,0.22c0.006-0.23,0.029-1.143,0.029-1.143
			c0.014-0.343-0.459-0.333-0.76-0.231c0.111-0.394,0.346-0.607,0.885-0.554c-0.131-0.055-0.27-0.178-0.27-0.415
			c0-0.32,0.26-0.677,0.432-0.783L-25.357-26.937z"/>
		<path clip-path="url(#SVGID_12_)" fill="#FEC50C" d="M-25.443-15.089c0,0,0.406,0.342,0.545,0.17
			c0.223-0.275-0.684-1.648-0.684-2.133c0-0.793,0.529-1.01,1.184-1.123c0.439-0.075,1.154,0.033,1.154,0.033
			c-0.135,0.181-0.223,0.233-0.449,0.248c0.252,0.131,0.508,0.416,0.508,0.858c0,0.683-0.279,0.964-0.279,1.733
			c0,0.428,0.35,0.971,0.35,0.971c-0.619-0.063-0.926-0.635-0.752-1.094c-0.098-0.014-0.188,0.009-0.264,0.082
			c-0.045-0.127,0.025-0.274,0.121-0.401c-0.076-0.041-0.133-0.017-0.256,0.009c0.012-0.131,0.09-0.27,0.281-0.4
			c-0.557,0.145-0.898-0.243-0.898-0.649c0-0.308,0.215-0.526,0.426-0.526c0.066,0,0.166,0.027,0.223,0.069
			c0.039-0.084,0.02-0.197-0.021-0.282c0.154,0.041,0.252,0.133,0.182,0.323c0.119,0.011,0.213,0.051,0.277,0.127
			c-0.064,0.083-0.164,0.131-0.277,0.127c0.086,0.179-0.01,0.277-0.15,0.358c0,0,0.09-0.358-0.137-0.358
			c-0.102,0-0.195,0.033-0.195,0.185c0,0.131,0.115,0.312,0.379,0.301c0.266-0.012,0.48-0.184,0.48-0.606
			c0-0.39-0.314-0.584-0.729-0.596c-0.375-0.013-0.656,0.19-0.656,0.576c0,0.514,0.74,1.683,0.74,2.14
			c0,0.344-0.309,0.535-0.611,0.535c-0.391,0-0.721-0.389-0.721-0.389L-25.443-15.089z"/>
		<path clip-path="url(#SVGID_12_)" fill="#FEC50C" d="M-25.529-24.365c0-0.858,0.77-1.299,1.375-1.299
			c0.814,0,1.25,0.488,1.25,1.125c0,0.363-0.066,0.59-0.234,0.936c0,0-1.344,2.796-1.867,3.878
			c-0.064,0.136-0.086,0.288-0.086,0.513c0,0.349,0.336,0.633,0.691,0.642c0.32,0.008,0.672-0.302,0.672-0.652
			c0-0.427-0.221-0.618-0.449-0.618c-0.279,0-0.391,0.115-0.391,0.313c0,0.137,0.066,0.195,0.162,0.195
			c0.238,0,0.172-0.322,0.172-0.322c0.119,0.025,0.217,0.148,0.162,0.3c0.086,0.019,0.168,0.065,0.232,0.138
			c-0.064,0.063-0.139,0.111-0.232,0.127c0.055,0.187-0.02,0.277-0.184,0.315c0.033-0.072,0.035-0.138,0.023-0.199
			c-0.254,0.073-0.646-0.043-0.646-0.485c0-0.438,0.305-0.808,0.875-0.715c-0.137-0.064-0.205-0.197-0.219-0.347
			c0.104,0.041,0.219,0.046,0.219,0.046c-0.066-0.117-0.16-0.219-0.156-0.449c0.105,0.047,0.203,0.137,0.34,0.08
			c-0.213-0.419,0.049-0.994,0.715-1.131c-0.244,0.285-0.363,0.594-0.363,0.9c0,0.994,0.275,1.162,0.275,1.853
			c0,0.289-0.148,0.601-0.443,0.813v-0.012c0.195,0.053,0.32,0.148,0.393,0.278c-0.445,0.126-1.092,0.124-1.439-0.013
			c-0.4-0.046-0.678-0.352-0.76-0.508c-0.082-0.155-0.242-0.717,0-1.224c0.264-0.554,1.512-3.196,1.898-4.028
			c0.084-0.176,0.135-0.362,0.135-0.564c0-0.509-0.469-0.688-0.732-0.688c-0.316,0-0.639,0.242-0.639,0.543
			c0,0.19,0.104,0.306,0.254,0.306c0.357,0,0.336-0.304,0.264-0.496c0.223,0.101,0.354,0.279,0.316,0.467
			c0.127,0.019,0.246,0.077,0.357,0.202c-0.088,0.11-0.193,0.194-0.357,0.197c0.072,0.292-0.123,0.416-0.316,0.484
			c0.061-0.215,0.1-0.461-0.264-0.461c-0.268,0-0.477-0.048-0.6-0.221c-0.008,0.23-0.029,1.143-0.029,1.143
			c-0.016,0.344,0.459,0.334,0.76,0.231c-0.113,0.394-0.346,0.608-0.885,0.554c0.131,0.055,0.27,0.178,0.27,0.415
			c0,0.322-0.26,0.677-0.432,0.783L-25.529-24.365z"/>
		<path clip-path="url(#SVGID_12_)" fill="#FEC50C" d="M-25.529-26.937c0,0.857,0.77,1.298,1.375,1.298
			c0.814,0,1.25-0.487,1.25-1.125c0-0.362-0.066-0.589-0.234-0.936c0,0-1.344-2.796-1.867-3.878
			c-0.064-0.134-0.086-0.288-0.086-0.513c0-0.349,0.336-0.632,0.691-0.642c0.32-0.008,0.672,0.302,0.672,0.653
			c0,0.427-0.221,0.617-0.449,0.617c-0.279,0-0.391-0.115-0.391-0.312c0-0.138,0.066-0.196,0.162-0.196
			c0.238,0,0.172,0.323,0.172,0.323c0.119-0.026,0.217-0.148,0.162-0.301c0.086-0.019,0.168-0.064,0.232-0.138
			c-0.064-0.063-0.139-0.11-0.232-0.127c0.055-0.187-0.02-0.276-0.184-0.315c0.033,0.072,0.035,0.138,0.023,0.199
			c-0.254-0.072-0.646,0.043-0.646,0.485c0,0.438,0.305,0.808,0.875,0.716c-0.137,0.064-0.205,0.197-0.219,0.346
			c0.104-0.041,0.219-0.046,0.219-0.046c-0.066,0.117-0.16,0.22-0.156,0.45c0.105-0.048,0.203-0.137,0.34-0.081
			c-0.213,0.419,0.049,0.995,0.715,1.131c-0.244-0.284-0.363-0.593-0.363-0.899c0-0.994,0.275-1.161,0.275-1.854
			c0-0.289-0.148-0.601-0.443-0.813v0.011c0.195-0.052,0.32-0.147,0.393-0.278c-0.445-0.126-1.092-0.124-1.439,0.014
			c-0.4,0.045-0.678,0.352-0.76,0.508c-0.082,0.154-0.242,0.717,0,1.223c0.264,0.555,1.512,3.197,1.898,4.028
			c0.084,0.176,0.135,0.362,0.135,0.565c0,0.508-0.469,0.687-0.732,0.687c-0.316,0-0.639-0.241-0.639-0.542
			c0-0.191,0.104-0.307,0.254-0.307c0.357,0,0.336,0.305,0.264,0.496c0.223-0.1,0.354-0.279,0.316-0.467
			c0.127-0.018,0.246-0.077,0.357-0.202c-0.088-0.11-0.193-0.194-0.357-0.196c0.072-0.293-0.123-0.416-0.316-0.484
			c0.061,0.214,0.1,0.461-0.264,0.461c-0.268,0-0.477,0.047-0.6,0.22c-0.008-0.23-0.029-1.143-0.029-1.143
			c-0.016-0.343,0.459-0.333,0.76-0.231c-0.113-0.394-0.346-0.607-0.885-0.554c0.131-0.055,0.27-0.178,0.27-0.415
			c0-0.32-0.26-0.677-0.432-0.783L-25.529-26.937z"/>
	</g>
</g>
</svg>
