<?xml version="1.0" encoding="utf-8"?>
<!-- Generator: Adobe Illustrator 15.1.0, SVG Export Plug-In . SVG Version: 6.00 Build 0)  -->
<!DOCTYPE svg PUBLIC "-//W3C//DTD SVG 1.1//EN" "http://www.w3.org/Graphics/SVG/1.1/DTD/svg11.dtd">
<svg version="1.1" id="Слой_1" xmlns="http://www.w3.org/2000/svg" xmlns:xlink="http://www.w3.org/1999/xlink" x="0px" y="0px"
	 width="30px" height="30px" viewBox="0 0 30 30" enable-background="new 0 0 30 30" xml:space="preserve">
<g>
	<g>
		<defs>
			<path id="SVGID_1_" d="M0.548,15.002c0,8.008,6.49,14.5,14.5,14.5c8.008,0,14.498-6.492,14.498-14.5
				c0-8.01-6.49-14.5-14.498-14.5C7.038,0.502,0.548,6.992,0.548,15.002"/>
		</defs>
		<clipPath id="SVGID_2_">
			<use xlink:href="#SVGID_1_"  overflow="visible"/>
		</clipPath>
		<rect x="0.157" y="0.305" clip-path="url(#SVGID_2_)" fill="#C8313E" width="58.779" height="29.391"/>
		<rect x="0.157" y="19.898" clip-path="url(#SVGID_2_)" fill="#4AA657" width="58.779" height="9.797"/>
		<rect x="0.157" y="0.305" clip-path="url(#SVGID_2_)" fill="#FFFFFF" width="6.531" height="29.391"/>
		<path clip-path="url(#SVGID_2_)" fill="#C8313E" d="M1.294,0.305h0.852v0.482h0.285V1.27h0.283v0.482h0.283v0.48h0.285v0.482
			H2.997v0.48H2.714v0.482H2.431V4.16H2.146v0.482H1.862v0.48H1.577v-0.48H1.294V4.16H1.011V3.678H0.726V3.195H0.442v-0.48H0.157
			V2.232h0.285v-0.48h0.283V1.27h0.285V0.787h0.283V0.305z M1.577,1.27h0.285v0.482h0.283v0.48h0.285v0.482H2.146v0.48H1.862v0.482
			H1.577V3.195H1.294v-0.48H1.011V2.232h0.283v-0.48h0.283V1.27z M1.577,2.232h0.285v0.482H1.577V2.232z M0.157,0.787h0.285V1.27
			H0.157V0.787z M0.157,3.678h0.285V4.16H0.157V3.678z M3.282,0.305h0.17V1.27h-0.17V0.305z M3.282,3.678h0.17v0.965h-0.17V3.678z
			 M0.726,4.643h0.285v0.48h0.283v0.482h0.283v0.482H1.294v0.48H1.011v0.482H0.726V6.568H0.442v-0.48H0.157V5.605h0.285V5.123h0.283
			V4.643z M0.726,5.605h0.285v0.482H0.726V5.605z M2.431,4.643h0.283v0.48h0.283v0.482h0.285v0.482H2.997v0.48H2.714v0.482H2.431
			V6.568H2.146v-0.48H1.862V5.605h0.283V5.123h0.285V4.643z M2.431,5.605h0.283v0.482H2.431V5.605z M0.157,7.531h0.285v0.482H0.157
			V7.531z M3.282,7.051h0.17v0.965h-0.17V7.051z"/>
		<path clip-path="url(#SVGID_2_)" fill="#C8313E" d="M0.157,8.979h0.285V8.496h0.283V8.014h0.285V7.531h0.283v-0.48h0.283V6.568
			h0.285v0.482h0.283v0.48h0.285v0.482h0.283v0.482h0.283v0.482h0.285v0.482h0.17v1.926h-0.17v0.482H2.997v0.48H2.714v0.482H2.431
			v0.482H2.146v0.482H1.862v1.252H1.294V14.76H1.011v-0.482H0.726v-0.48H0.442v-0.482H0.157v-1.445h0.285v0.48h0.283v0.482h0.285
			v0.482h0.283v-0.482h0.283V12.35h0.285v-0.48h0.283v-0.482h0.285v-0.482h0.283v-0.48H2.431V9.941H2.146v-0.48H1.294v0.48h0.568
			v0.482H1.577v0.48H1.294v0.482H1.011v-0.482H0.726v-0.48H0.442V9.941H0.157V8.979z M0.157,10.904h0.285v0.482H0.157V10.904z
			 M3.282,12.35h0.17v0.482h-0.17V12.35z M2.714,13.314h0.283v0.482h0.285v0.48h0.17v0.771h-0.17V14.76H2.997v-0.482H2.714V13.314z
			 M2.146,14.76h0.285v0.289H2.146V14.76z"/>
		<path clip-path="url(#SVGID_2_)" fill="#C8313E" d="M5.554,0.305H4.7v0.482H4.417V1.27H4.134v0.482H3.851v0.48H3.565v0.482h0.285
			v0.48h0.283v0.482h0.283V4.16H4.7v0.482h0.285v0.48h0.283v-0.48h0.285V4.16h0.283V3.678H6.12V3.195h0.285v-0.48h0.283V2.232H6.405
			v-0.48H6.12V1.27H5.837V0.787H5.554V0.305z M5.269,1.27H4.985v0.482H4.7v0.48H4.417v0.482H4.7v0.48h0.285v0.482h0.283V3.195h0.285
			v-0.48h0.283V2.232H5.554v-0.48H5.269V1.27z M5.269,2.232H4.985v0.482h0.283V2.232z M6.688,0.787H6.405V1.27h0.283V0.787z
			 M6.688,3.678H6.405V4.16h0.283V3.678z M3.565,0.305h-0.17V1.27h0.17V0.305z M3.565,3.678h-0.17v0.965h0.17V3.678z M6.12,4.643
			H5.837v0.48H5.554v0.482H5.269v0.482h0.285v0.48h0.283v0.482H6.12V6.568h0.285v-0.48h0.283V5.605H6.405V5.123H6.12V4.643z
			 M6.12,5.605H5.837v0.482H6.12V5.605z M4.417,4.643H4.134v0.48H3.851v0.482H3.565v0.482h0.285v0.48h0.283v0.482h0.283V6.568H4.7
			v-0.48h0.285V5.605H4.7V5.123H4.417V4.643z M4.417,5.605H4.134v0.482h0.283V5.605z M6.688,7.531H6.405v0.482h0.283V7.531z
			 M3.565,7.051h-0.17v0.965h0.17V7.051z"/>
		<path clip-path="url(#SVGID_2_)" fill="#C8313E" d="M6.688,8.979H6.405V8.496H6.12V8.014H5.837V7.531H5.554v-0.48H5.269V6.568
			H4.985v0.482H4.7v0.48H4.417v0.482H4.134v0.482H3.851v0.482H3.565v0.482h-0.17v1.926h0.17v0.482h0.285v0.48h0.283v0.482h0.283
			v0.482H4.7v0.482h0.285v1.252h0.568V14.76h0.283v-0.482H6.12v-0.48h0.285v-0.482h0.283v-1.445H6.405v0.48H6.12v0.482H5.837v0.482
			H5.554v-0.482H5.269V12.35H4.985v-0.48H4.7v-0.482H4.417v-0.482H4.134v-0.48h0.283V9.941H4.7v-0.48h0.854v0.48H4.985v0.482h0.283
			v0.48h0.285v0.482h0.283v-0.482H6.12v-0.48h0.285V9.941h0.283V8.979z M6.688,10.904H6.405v0.482h0.283V10.904z M3.565,12.35h-0.17
			v0.482h0.17V12.35z M4.134,13.314H3.851v0.482H3.565v0.48h-0.17v0.771h0.17V14.76h0.285v-0.482h0.283V13.314z M4.7,14.76H4.417
			v0.289H4.7V14.76z"/>
		<path clip-path="url(#SVGID_2_)" fill="#C8313E" d="M1.294,29.695h0.852v-0.482h0.285v-0.48h0.283V28.25h0.283v-0.482h0.285v-0.48
			H2.997v-0.482H2.714v-0.482H2.431v-0.48H2.146v-0.482H1.862v-0.482H1.577v0.482H1.294v0.482H1.011v0.48H0.726v0.482H0.442v0.482
			H0.157v0.48h0.285v0.482h0.283v0.482h0.285v0.48h0.283V29.695z M1.577,28.732h0.285V28.25h0.283v-0.482h0.285v-0.48H2.146v-0.482
			H1.862v-0.482H1.577v0.482H1.294v0.482H1.011v0.48h0.283v0.482h0.283V28.732z M1.577,27.768h0.285v-0.48H1.577V27.768z
			 M0.157,29.213h0.285V28.73H0.157V29.213z M0.157,26.322h0.285v-0.48H0.157V26.322z M3.282,29.695h0.17V28.73h-0.17V29.695z
			 M3.282,26.322h0.17v-0.963h-0.17V26.322z M0.726,25.359h0.285v-0.482h0.283v-0.482h0.283v-0.48H1.294v-0.482H1.011v-0.48H0.726
			v0.48H0.442v0.482H0.157v0.48h0.285v0.482h0.283V25.359z M0.726,24.395h0.285v-0.48H0.726V24.395z M2.431,25.359h0.283v-0.482
			h0.283v-0.482h0.285v-0.48H2.997v-0.482H2.714v-0.48H2.431v0.48H2.146v0.482H1.862v0.48h0.283v0.482h0.285V25.359z M2.431,24.395
			h0.283v-0.48H2.431V24.395z M0.157,22.469h0.285v-0.482H0.157V22.469z M3.282,22.951h0.17v-0.965h-0.17V22.951z"/>
		<path clip-path="url(#SVGID_2_)" fill="#C8313E" d="M0.157,21.023h0.285v0.482h0.283v0.48h0.285v0.482h0.283v0.482h0.283v0.48
			h0.285v-0.48h0.283v-0.482h0.285v-0.482h0.283v-0.48h0.283v-0.482h0.285v-0.482h0.17v-1.928h-0.17v-0.48H2.997V17.65H2.714v-0.482
			H2.431v-0.48H2.146v-0.482H1.862v-1.252H1.294v0.289H1.011v0.48H0.726v0.482H0.442v0.482H0.157v1.445h0.285V17.65h0.283v-0.482
			h0.285v-0.48h0.283v0.48h0.283v0.482h0.285v0.482h0.283v0.48h0.285v0.482h0.283v0.482H2.431v0.48H2.146v0.482H1.294v-0.482h0.568
			v-0.48H1.577v-0.482H1.294v-0.482H1.011v0.482H0.726v0.482H0.442v0.48H0.157V21.023z M0.157,19.096h0.285v-0.482H0.157V19.096z
			 M3.282,17.65h0.17v-0.482h-0.17V17.65z M2.714,16.688h0.283v-0.482h0.285v-0.482h0.17v-0.77h-0.17v0.289H2.997v0.48H2.714V16.688
			z M2.146,15.242h0.285v-0.289H2.146V15.242z"/>
		<path clip-path="url(#SVGID_2_)" fill="#C8313E" d="M5.554,29.695H4.7v-0.482H4.417v-0.48H4.134V28.25H3.851v-0.482H3.565v-0.48
			h0.285v-0.482h0.283v-0.482h0.283v-0.48H4.7v-0.482h0.285v-0.482h0.283v0.482h0.285v0.482h0.283v0.48H6.12v0.482h0.285v0.482
			h0.283v0.48H6.405v0.482H6.12v0.482H5.837v0.48H5.554V29.695z M5.269,28.732H4.985V28.25H4.7v-0.482H4.417v-0.48H4.7v-0.482h0.285
			v-0.482h0.283v0.482h0.285v0.482h0.283v0.48H5.554v0.482H5.269V28.732z M5.269,27.768H4.985v-0.48h0.283V27.768z M6.688,29.213
			H6.405V28.73h0.283V29.213z M6.688,26.322H6.405v-0.48h0.283V26.322z M3.565,29.695h-0.17V28.73h0.17V29.695z M3.565,26.322h-0.17
			v-0.963h0.17V26.322z M6.12,25.359H5.837v-0.482H5.554v-0.482H5.269v-0.48h0.285v-0.482h0.283v-0.48H6.12v0.48h0.285v0.482h0.283
			v0.48H6.405v0.482H6.12V25.359z M6.12,24.395H5.837v-0.48H6.12V24.395z M4.417,25.359H4.134v-0.482H3.851v-0.482H3.565v-0.48
			h0.285v-0.482h0.283v-0.48h0.283v0.48H4.7v0.482h0.285v0.48H4.7v0.482H4.417V25.359z M4.417,24.395H4.134v-0.48h0.283V24.395z
			 M6.688,22.469H6.405v-0.482h0.283V22.469z M3.565,22.951h-0.17v-0.965h0.17V22.951z"/>
		<path clip-path="url(#SVGID_2_)" fill="#C8313E" d="M6.688,21.023H6.405v0.482H6.12v0.48H5.837v0.482H5.554v0.482H5.269v0.48
			H4.985v-0.48H4.7v-0.482H4.417v-0.482H4.134v-0.48H3.851v-0.482H3.565v-0.482h-0.17v-1.928h0.17v-0.48h0.285V17.65h0.283v-0.482
			h0.283v-0.48H4.7v-0.482h0.285v-1.252h0.568v0.289h0.283v0.48H6.12v0.482h0.285v0.482h0.283v1.445H6.405V17.65H6.12v-0.482H5.837
			v-0.48H5.554v0.48H5.269v0.482H4.985v0.482H4.7v0.48H4.417v0.482H4.134v0.482h0.283v0.48H4.7v0.482h0.854v-0.482H4.985v-0.48
			h0.283v-0.482h0.285v-0.482h0.283v0.482H6.12v0.482h0.285v0.48h0.283V21.023z M6.688,19.096H6.405v-0.482h0.283V19.096z
			 M3.565,17.65h-0.17v-0.482h0.17V17.65z M4.134,16.688H3.851v-0.482H3.565v-0.482h-0.17v-0.77h0.17v0.289h0.285v0.48h0.283V16.688
			z M4.7,15.242H4.417v-0.289H4.7V15.242z"/>
	</g>
	<g>
		<defs>
			<path id="SVGID_3_" d="M-81.786,15.002c0,8.008,6.492,14.5,14.501,14.5c8.008,0,14.5-6.492,14.5-14.5
				c0-8.01-6.492-14.5-14.5-14.5C-75.293,0.502-81.786,6.992-81.786,15.002"/>
		</defs>
		<clipPath id="SVGID_4_">
			<use xlink:href="#SVGID_3_"  overflow="visible"/>
		</clipPath>
		<rect x="-90.633" y="0.502" clip-path="url(#SVGID_4_)" fill="#FFFFFF" width="44.443" height="9.688"/>
		<rect x="-90.633" y="10.189" clip-path="url(#SVGID_4_)" fill="#27A2E1" width="44.443" height="9.689"/>
		<rect x="-90.633" y="19.879" clip-path="url(#SVGID_4_)" fill="#ED1C14" width="44.443" height="9.689"/>
	</g>
	<g>
		<defs>
			<path id="SVGID_5_" d="M-40.618,15.002c0,8.008,6.49,14.5,14.5,14.5c8.008,0,14.5-6.492,14.5-14.5c0-8.01-6.492-14.5-14.5-14.5
				C-34.128,0.502-40.618,6.992-40.618,15.002"/>
		</defs>
		<clipPath id="SVGID_6_">
			<use xlink:href="#SVGID_5_"  overflow="visible"/>
		</clipPath>
		<rect x="-71.688" y="-6.155" clip-path="url(#SVGID_6_)" fill="#00AFCA" width="84.621" height="42.311"/>
		<path clip-path="url(#SVGID_6_)" fill="#FEC50C" d="M-25.972,5.922c3.143,0,5.691,2.551,5.691,5.693
			c0,3.145-2.549,5.693-5.691,5.693c-3.145,0-5.693-2.549-5.693-5.693C-31.665,8.473-29.116,5.922-25.972,5.922"/>
		<path clip-path="url(#SVGID_6_)" fill="#FEC50C" d="M-25.972,5.146c0.338-0.004,0.465-0.217,0.465-0.471
			c0-0.338-0.465-1.949-0.465-1.949s-0.467,1.611-0.467,1.949C-26.438,4.93-26.312,5.146-25.972,5.146"/>
		<path clip-path="url(#SVGID_6_)" fill="#FEC50C" d="M-19.503,11.615c0.004,0.34,0.215,0.465,0.469,0.465
			c0.34,0,1.951-0.465,1.951-0.465s-1.611-0.465-1.951-0.465C-19.288,11.15-19.503,11.277-19.503,11.615"/>
		<path clip-path="url(#SVGID_6_)" fill="#FEC50C" d="M-25.972,18.084c-0.34,0.006-0.467,0.217-0.467,0.471
			c0,0.338,0.467,1.951,0.467,1.951s0.465-1.613,0.465-1.951C-25.507,18.301-25.634,18.084-25.972,18.084"/>
		<path clip-path="url(#SVGID_6_)" fill="#FEC50C" d="M-32.442,11.615c-0.004-0.338-0.215-0.465-0.469-0.465
			c-0.338,0-1.951,0.465-1.951,0.465s1.613,0.465,1.951,0.465C-32.657,12.08-32.442,11.955-32.442,11.615"/>
		<path clip-path="url(#SVGID_6_)" fill="#FEC50C" d="M-23.497,5.639c0.314,0.127,0.514-0.021,0.609-0.256
			c0.129-0.313,0.316-1.98,0.316-1.98s-1.047,1.313-1.176,1.625C-23.845,5.262-23.81,5.51-23.497,5.639"/>
		<path clip-path="url(#SVGID_6_)" fill="#FEC50C" d="M-19.995,14.092c-0.127,0.314,0.02,0.512,0.256,0.609
			c0.313,0.129,1.98,0.316,1.98,0.316s-1.313-1.047-1.625-1.176C-19.618,13.744-19.866,13.779-19.995,14.092"/>
		<path clip-path="url(#SVGID_6_)" fill="#FEC50C" d="M-28.448,17.592c-0.314-0.125-0.514,0.021-0.609,0.256
			c-0.129,0.314-0.316,1.98-0.316,1.98s1.047-1.311,1.176-1.623C-28.101,17.969-28.136,17.723-28.448,17.592"/>
		<path clip-path="url(#SVGID_6_)" fill="#FEC50C" d="M-31.95,9.141c0.127-0.314-0.02-0.514-0.256-0.611
			c-0.311-0.129-1.979-0.314-1.979-0.314s1.311,1.047,1.623,1.176C-32.327,9.486-32.079,9.453-31.95,9.141"/>
		<path clip-path="url(#SVGID_6_)" fill="#FEC50C" d="M-21.397,7.041c0.242,0.236,0.482,0.178,0.66-0.002
			c0.24-0.24,1.051-1.709,1.051-1.709s-1.469,0.811-1.709,1.051C-21.575,6.559-21.638,6.803-21.397,7.041"/>
		<path clip-path="url(#SVGID_6_)" fill="#FEC50C" d="M-21.397,16.189c-0.236,0.242-0.178,0.482,0.002,0.662
			c0.24,0.24,1.709,1.049,1.709,1.049s-0.811-1.469-1.051-1.707C-20.915,16.014-21.159,15.951-21.397,16.189"/>
		<path clip-path="url(#SVGID_6_)" fill="#FEC50C" d="M-30.548,16.189c-0.24-0.234-0.48-0.176-0.66,0.004
			c-0.24,0.238-1.051,1.707-1.051,1.707s1.471-0.809,1.709-1.049C-30.37,16.672-30.308,16.43-30.548,16.189"/>
		<path clip-path="url(#SVGID_6_)" fill="#FEC50C" d="M-30.548,7.041c0.236-0.242,0.178-0.482-0.002-0.66
			c-0.238-0.24-1.709-1.051-1.709-1.051s0.811,1.469,1.051,1.709C-31.028,7.219-30.786,7.279-30.548,7.041"/>
		<path clip-path="url(#SVGID_6_)" fill="#FEC50C" d="M-19.995,9.141c0.133,0.311,0.377,0.346,0.611,0.25
			c0.313-0.129,1.625-1.176,1.625-1.176s-1.668,0.186-1.98,0.314C-19.976,8.627-20.126,8.826-19.995,9.141"/>
		<path clip-path="url(#SVGID_6_)" fill="#FEC50C" d="M-23.497,17.592c-0.311,0.133-0.348,0.377-0.25,0.613
			c0.129,0.313,1.176,1.623,1.176,1.623s-0.188-1.666-0.316-1.98C-22.983,17.613-23.185,17.463-23.497,17.592"/>
		<path clip-path="url(#SVGID_6_)" fill="#FEC50C" d="M-31.95,14.092c-0.133-0.311-0.377-0.348-0.611-0.25
			c-0.313,0.129-1.623,1.176-1.623,1.176s1.668-0.188,1.979-0.316C-31.97,14.604-31.819,14.404-31.95,14.092"/>
		<path clip-path="url(#SVGID_6_)" fill="#FEC50C" d="M-28.448,5.639c0.311-0.133,0.348-0.377,0.25-0.611
			c-0.129-0.313-1.176-1.625-1.176-1.625s0.188,1.668,0.316,1.98C-28.962,5.617-28.761,5.77-28.448,5.639"/>
		<path clip-path="url(#SVGID_6_)" fill="#FEC50C" d="M-24.71,5.271c0.332,0.061,0.498-0.121,0.547-0.371
			c0.066-0.332-0.076-2.004-0.076-2.004s-0.77,1.492-0.836,1.824C-25.124,4.969-25.042,5.205-24.71,5.271"/>
		<path clip-path="url(#SVGID_6_)" fill="#FEC50C" d="M-19.628,12.877c-0.063,0.334,0.121,0.5,0.371,0.549
			c0.332,0.066,2.004-0.076,2.004-0.076s-1.492-0.771-1.824-0.836C-19.325,12.463-19.562,12.545-19.628,12.877"/>
		<path clip-path="url(#SVGID_6_)" fill="#FEC50C" d="M-27.235,17.961c-0.332-0.063-0.498,0.121-0.547,0.369
			c-0.066,0.332,0.076,2.004,0.076,2.004s0.77-1.49,0.836-1.822C-26.821,18.262-26.903,18.027-27.235,17.961"/>
		<path clip-path="url(#SVGID_6_)" fill="#FEC50C" d="M-32.317,10.354c0.063-0.332-0.121-0.498-0.371-0.549
			c-0.33-0.064-2.004,0.076-2.004,0.076s1.492,0.771,1.824,0.838C-32.62,10.768-32.384,10.686-32.317,10.354"/>
		<path clip-path="url(#SVGID_6_)" fill="#FEC50C" d="M-22.378,6.236c0.283,0.186,0.506,0.08,0.648-0.131
			c0.188-0.281,0.695-1.881,0.695-1.881s-1.283,1.082-1.471,1.363C-22.646,5.799-22.659,6.049-22.378,6.236"/>
		<path clip-path="url(#SVGID_6_)" fill="#FEC50C" d="M-20.593,15.209c-0.186,0.285-0.08,0.508,0.131,0.648
			c0.281,0.188,1.881,0.697,1.881,0.697s-1.082-1.283-1.363-1.471C-20.155,14.943-20.405,14.93-20.593,15.209"/>
		<path clip-path="url(#SVGID_6_)" fill="#FEC50C" d="M-29.567,16.994c-0.283-0.184-0.506-0.078-0.646,0.133
			c-0.189,0.281-0.697,1.879-0.697,1.879s1.283-1.08,1.471-1.361C-29.3,17.434-29.286,17.184-29.567,16.994"/>
		<path clip-path="url(#SVGID_6_)" fill="#FEC50C" d="M-31.351,8.021c0.184-0.283,0.078-0.508-0.133-0.648
			c-0.281-0.188-1.881-0.697-1.881-0.697s1.082,1.283,1.363,1.473C-31.79,8.289-31.54,8.303-31.351,8.021"/>
		<path clip-path="url(#SVGID_6_)" fill="#FEC50C" d="M-20.593,8.021c0.191,0.279,0.438,0.268,0.648,0.127
			c0.281-0.189,1.363-1.473,1.363-1.473s-1.6,0.51-1.881,0.697C-20.673,7.514-20.782,7.74-20.593,8.021"/>
		<path clip-path="url(#SVGID_6_)" fill="#FEC50C" d="M-22.378,16.994c-0.279,0.193-0.268,0.439-0.127,0.65
			c0.188,0.281,1.471,1.361,1.471,1.361s-0.508-1.598-0.695-1.879C-21.872,16.916-22.097,16.807-22.378,16.994"/>
		<path clip-path="url(#SVGID_6_)" fill="#FEC50C" d="M-31.351,15.209c-0.193-0.277-0.439-0.266-0.65-0.125
			c-0.281,0.188-1.363,1.471-1.363,1.471s1.6-0.51,1.881-0.697C-31.272,15.717-31.163,15.49-31.351,15.209"/>
		<path clip-path="url(#SVGID_6_)" fill="#FEC50C" d="M-29.567,6.236c0.279-0.191,0.268-0.438,0.127-0.648
			c-0.188-0.281-1.471-1.363-1.471-1.363s0.508,1.6,0.697,1.881C-30.073,6.316-29.849,6.424-29.567,6.236"/>
		<path clip-path="url(#SVGID_6_)" fill="#FEC50C" d="M-19.628,10.354c0.07,0.332,0.303,0.414,0.551,0.365
			c0.332-0.066,1.824-0.838,1.824-0.838s-1.672-0.141-2.004-0.076C-19.507,9.855-19.694,10.021-19.628,10.354"/>
		<path clip-path="url(#SVGID_6_)" fill="#FEC50C" d="M-24.71,17.961c-0.332,0.07-0.414,0.301-0.365,0.551
			c0.066,0.332,0.836,1.822,0.836,1.822s0.143-1.672,0.076-2.004C-24.212,18.082-24.378,17.895-24.71,17.961"/>
		<path clip-path="url(#SVGID_6_)" fill="#FEC50C" d="M-32.317,12.877c-0.07-0.33-0.303-0.414-0.551-0.363
			c-0.332,0.064-1.824,0.836-1.824,0.836s1.674,0.143,2.004,0.076C-32.438,13.377-32.251,13.209-32.317,12.877"/>
		<path clip-path="url(#SVGID_6_)" fill="#FEC50C" d="M-27.235,5.271c0.332-0.07,0.414-0.303,0.365-0.551
			c-0.066-0.332-0.836-1.824-0.836-1.824s-0.143,1.672-0.076,2.004C-27.733,5.15-27.567,5.336-27.235,5.271"/>
		<path clip-path="url(#SVGID_6_)" fill="#FEC50C" d="M-26.987,23.947c-0.152,0.008-0.301,0.029-0.447,0.076
			c-0.199,0.027-0.389,0.096-0.586,0.127l-0.078,0.014l-0.133,0.012c0.008,0.037,0.014,0.074,0.014,0.111s-0.004,0.074-0.014,0.105
			c-0.008,0.029-0.035,0.064-0.057,0.088c-0.029,0.031-0.059,0.059-0.094,0.076c-0.033,0.016-0.072,0.023-0.109,0.025
			c-0.039,0.002-0.078,0-0.115-0.014c-0.037-0.012-0.072-0.037-0.105-0.064c-0.039,0.01-0.08,0.018-0.119,0.021
			s-0.074,0.004-0.109,0c-0.041-0.012-0.082-0.025-0.119-0.041c-0.039-0.014-0.076-0.035-0.111-0.057
			c-0.143,0.084-0.303,0.166-0.391,0.313c-0.049,0.068-0.061,0.146-0.07,0.227c-0.008,0.098,0.018,0.201,0.061,0.295
			c0.016,0.025,0.027-0.098,0.074-0.115c0.082-0.066,0.182-0.115,0.283-0.141c0.086-0.045,0.074,0.004,0.039,0.07
			c-0.008,0.035-0.055,0.168,0.008,0.102c0.287-0.127,0.605-0.152,0.914-0.178c0.447-0.045,0.898-0.055,1.348-0.061
			c0.424,0.006,0.846,0.012,1.27,0.027c0.201,0.006,0.404,0.051,0.604,0.016c0.049-0.012,0.123-0.014,0.15-0.043
			c-0.09-0.053-0.195-0.053-0.295-0.066h-0.807c-0.225-0.021-0.459-0.025-0.67-0.109c-0.057-0.023-0.109-0.076-0.162-0.02
			c-0.08,0.029-0.166,0.049-0.252,0.055c-0.148,0.012-0.295-0.02-0.434-0.074c0.1-0.139,0.217-0.258,0.326-0.385
			c-0.088-0.014-0.172-0.031-0.26-0.053C-27.28,24.182-27.138,24.061-26.987,23.947"/>
		<path clip-path="url(#SVGID_6_)" fill="#FEC50C" d="M-20.399,25.41c-0.307,0.184-0.539-0.143-0.797-0.24
			c-0.184,0.098-0.199,0.432-0.371,0.588c-0.203,0.234-0.455-0.064-0.436-0.295c-0.246,0.207-0.369,0.674-0.764,0.613
			c-0.189-0.154-0.328-0.475-0.471-0.109c-0.117,0.18-0.428,0.434-0.59,0.162c-0.049-0.238-0.168-0.518-0.299-0.139
			c-0.088,0.268-0.373,0.465-0.648,0.348c-0.152-0.125,0.121-0.582-0.072-0.549c-0.287,0.191-0.455,0.662-0.857,0.625
			c-0.154-0.176,0.096-0.473-0.076-0.666c-0.201,0.258-0.426,0.639-0.773,0.666c-0.17-0.137,0.006-0.529-0.104-0.588
			c-0.357,0.215-0.734,0.598-1.186,0.479c0.176-0.672,0.91-0.906,1.527-0.961c1.061-0.129,2.178,0.111,3.199-0.273
			c0.164-0.1,0.564-0.242,0.422-0.475c-0.125-0.184,0.328-0.111,0.373-0.328c-0.027-0.271,0.207-0.234,0.438-0.258
			c1.031-0.045,2.049,0.172,3.078,0.209c0.078,0.502-0.479,0.854-0.926,0.699c-0.213,0.035-0.533-0.492-0.471-0.109
			C-20.245,25.01-20.216,25.275-20.399,25.41 M-29.175,24.383c0.24,0.221,0.406-0.041,0.629-0.135
			c0.75-0.258,1.402-0.709,2.047-1.158c0.391-0.322,0.729-0.742,1.252-0.846c1.021-0.309,2.109-0.271,3.135-0.557
			c0.781-1.07,2.107-1.451,3.219-2.066c0.25-0.076,0.346-0.283,0.426-0.51c0.424-0.67,1.002-1.264,1.686-1.668
			c0.324-0.178,0.711-0.279,1.076-0.197c-0.025,0.436-0.275,0.822-0.578,1.123c0.246-0.004,0.459-0.16,0.709-0.152
			c0.086,0.447-0.398,0.682-0.654,0.961c0.143,0.033,0.691,0.074,0.393,0.219c-0.381,0.264-0.816,0.445-1.168,0.752
			c0.324,0.059,0.361,0.127,0.031,0.244c-0.178,0.121-0.521,0.164-0.555,0.4c0.244,0.15-0.113,0.299-0.25,0.348
			c-0.266,0.063-0.543,0.178-0.191,0.377c-0.133,0.201-0.418,0.244-0.65,0.225c0.07,0.227,0.174,0.48-0.123,0.582
			c-0.66,0.5-1.436,0.863-2.268,0.947c1.039,0.078,2.107-0.113,2.994-0.68c0.117-0.137,0.732-0.287,0.389-0.402
			c-0.162-0.068-0.508-0.143-0.533-0.266c0.482-0.297,1.086-0.191,1.604-0.367c0.014-0.168-0.393-0.121-0.545-0.158
			c-0.361-0.029-0.34-0.123,0.01-0.156c0.439-0.117,0.939-0.141,1.311-0.428c-0.303-0.141-0.682-0.018-1.004-0.131
			c0.545-0.238,1.189-0.264,1.682-0.621c0.223-0.25-0.287-0.172-0.436-0.166c-0.303,0.053-0.441-0.092-0.1-0.219
			c0.588-0.432,1.33-0.713,1.744-1.34c0.096-0.141,0.229-0.563-0.082-0.412c-0.41,0.137-0.771,0.598-1.238,0.455
			c0.92-0.713,1.795-1.523,2.424-2.51c0.033-0.285-0.414-0.316-0.529-0.092c-0.592,0.568-1.125,1.24-1.883,1.598
			c0.725-0.699,1.324-1.527,1.846-2.385c0.111-0.256,0.414-0.563,0.25-0.846c-0.264-0.219-0.594-0.02-0.73,0.242
			c-0.459,0.6-0.807,1.299-1.396,1.787c0.516-0.986,1.051-2.037,1.064-3.176c-0.002-0.234-0.049-0.578-0.367-0.535
			c-0.252,0.045-0.191,0.422-0.297,0.613c-0.229,0.779-0.336,1.621-0.805,2.301c0.104-0.631,0.289-1.291,0.146-1.928
			c-0.064-0.285-0.525-0.162-0.467,0.119c-0.549,2.787-2.42,5.223-4.865,6.633c-1.119,0.635-2.369,1.043-3.643,1.227
			c-0.342,0.076-0.713,0.031-1.039,0.148c-0.793,0.609-1.271,1.625-2.277,1.945c-0.449,0.223-1.035,0.268-1.357,0.686
			C-29.169,24.262-29.175,24.324-29.175,24.383"/>
		<path clip-path="url(#SVGID_6_)" fill="#FEC50C" d="M-26.171,21.557c-0.146,0.27-0.234,0.578-0.426,0.818
			c-0.572-0.521-1.402-0.504-2.129-0.539c-0.6-0.031-1.252-0.088-1.717-0.514c-0.488-0.4-0.887-0.92-1.432-1.244
			c-0.498-0.137-1-0.305-1.4-0.646c-0.855-0.697-1.346-1.732-2.182-2.451c-0.158-0.156-0.348-0.279-0.525-0.412
			c-0.17,0.041-0.094,0.408-0.301,0.221c-0.113-0.08-0.396-0.088-0.42,0.025c0.254,0.336,0.51,0.721,0.545,1.15
			c-0.174,0.02-0.484-0.037-0.57,0.029c0.23,0.346,0.529,0.654,0.865,0.9c-0.162,0.025-0.48,0.012-0.541,0.076
			c0.334,0.273,0.691,0.551,1.131,0.621c0.09,0.119-0.131,0.348,0.055,0.447c0.107,0.045,0.463,0.117,0.217,0.24
			c-0.168,0.113-0.104,0.377,0.109,0.371c0.137,0.068,0.441,0.086,0.465,0.207c-0.119,0.123-0.494,0.268-0.176,0.383
			c0.299,0.164,0.637,0.271,0.977,0.283c-0.17,0.145-0.381,0.225-0.555,0.359c0.785,0.461,1.654,0.764,2.514,1.057
			c0.344,0.113,0.689,0.221,1.043,0.287c-1.029-0.061-2.027-0.365-2.967-0.783c-0.484-0.213-0.975-0.418-1.475-0.604
			c0.219-0.113,0.471-0.141,0.699-0.238c-0.473-0.096-0.986-0.127-1.4-0.385c0.064-0.113,0.305-0.119,0.438-0.178
			c0.25-0.059,0.404-0.131,0.053-0.154c-0.355-0.096-0.764-0.053-1.076-0.268c0.02-0.127,0.348-0.082,0.48-0.139
			c0.17-0.029,0.355-0.053,0.49-0.166c-0.551-0.229-1.27-0.066-1.699-0.553c-0.1-0.184,0.309-0.035,0.424-0.066
			c0.295,0,0.611,0.094,0.893-0.025c-0.801-0.352-1.658-0.68-2.27-1.332c-0.068-0.104-0.271-0.389-0.107-0.424
			c0.475,0.063,0.82,0.582,1.328,0.5c0.068-0.09-0.295-0.24-0.385-0.371c-0.742-0.635-1.461-1.326-1.982-2.16
			c-0.035-0.277,0.402-0.318,0.518-0.105c0.566,0.547,1.08,1.184,1.785,1.557c0.252,0.123-0.143-0.143-0.195-0.24
			c-0.652-0.758-1.275-1.557-1.73-2.449c-0.082-0.162-0.217-0.453,0.027-0.539c0.244-0.121,0.486,0.045,0.609,0.254
			c0.48,0.605,0.834,1.326,1.432,1.83c-0.508-0.988-1.053-2.029-1.066-3.166c0.012-0.221,0.027-0.555,0.326-0.545
			c0.25-0.039,0.211,0.283,0.293,0.436c0.248,0.836,0.355,1.74,0.852,2.477c-0.109-0.617-0.271-1.258-0.164-1.887
			c0.025-0.207,0.258-0.27,0.41-0.145c0.123,0.301,0.148,0.672,0.26,0.994c0.637,2.18,2.068,4.098,3.934,5.383
			c1.535,1.053,3.357,1.682,5.217,1.793C-26.507,21.541-26.339,21.545-26.171,21.557"/>
		<path clip-path="url(#SVGID_6_)" fill="#FEC50C" d="M-28.53,24.246c0.055,0,0.1,0.045,0.1,0.1c0,0.057-0.045,0.1-0.1,0.1
			c-0.057,0-0.102-0.043-0.102-0.1C-28.632,24.291-28.587,24.246-28.53,24.246"/>
		<path clip-path="url(#SVGID_6_)" fill="#FEC50C" d="M-28.54,24.289c0.023,0,0.041,0.018,0.041,0.041s-0.018,0.041-0.041,0.041
			s-0.041-0.018-0.041-0.041S-28.563,24.289-28.54,24.289"/>
		<circle clip-path="url(#SVGID_6_)" fill="none" stroke="#00AFCA" stroke-width="0.381" cx="-28.54" cy="24.33" r="0.041"/>
		<path clip-path="url(#SVGID_6_)" fill="#FEC50C" d="M-66.61-3.07c0,0-0.408-0.342-0.545-0.17
			c-0.223,0.275,0.682,1.648,0.682,2.132c0,0.795-0.527,1.01-1.182,1.123c-0.439,0.076-1.154-0.031-1.154-0.031
			c0.135-0.182,0.223-0.234,0.449-0.248c-0.252-0.133-0.51-0.416-0.51-0.859c0-0.682,0.281-0.964,0.281-1.735
			c0-0.427-0.35-0.97-0.35-0.97c0.617,0.062,0.926,0.636,0.75,1.093c0.1,0.015,0.189-0.008,0.266-0.08
			c0.045,0.127-0.027,0.273-0.123,0.4c0.078,0.041,0.135,0.018,0.258-0.009c-0.012,0.131-0.09,0.27-0.283,0.401
			c0.559-0.146,0.9,0.242,0.9,0.649c0,0.307-0.215,0.527-0.426,0.527c-0.068,0-0.166-0.029-0.225-0.07
			c-0.039,0.084-0.018,0.197,0.023,0.281c-0.154-0.041-0.252-0.133-0.184-0.322c-0.117-0.012-0.211-0.051-0.275-0.127
			c0.064-0.084,0.164-0.131,0.275-0.127c-0.086-0.178,0.012-0.277,0.15-0.359c0,0-0.088,0.359,0.139,0.359
			c0.102,0,0.195-0.033,0.195-0.184c0-0.131-0.115-0.313-0.379-0.302c-0.266,0.013-0.48,0.183-0.48,0.607
			c0,0.389,0.314,0.584,0.729,0.596c0.375,0.012,0.656-0.191,0.656-0.576c0-0.514-0.74-1.683-0.74-2.14
			c0-0.345,0.309-0.535,0.609-0.535c0.393,0,0.723,0.388,0.723,0.388L-66.61-3.07z"/>
		<path clip-path="url(#SVGID_6_)" fill="#FEC50C" d="M-66.524,6.205c0,0.859-0.771,1.299-1.375,1.299
			c-0.816,0-1.25-0.486-1.25-1.125c0-0.361,0.066-0.59,0.232-0.936c0,0,1.346-2.795,1.869-3.877
			c0.064-0.135,0.086-0.289,0.086-0.514c0-0.348-0.338-0.631-0.691-0.641c-0.322-0.008-0.672,0.301-0.672,0.652
			c0,0.426,0.221,0.617,0.447,0.617c0.281,0,0.393-0.115,0.393-0.313c0-0.137-0.066-0.195-0.162-0.195
			c-0.24,0-0.172,0.322-0.172,0.322c-0.119-0.025-0.219-0.146-0.162-0.299c-0.086-0.02-0.168-0.064-0.232-0.139
			c0.064-0.063,0.139-0.111,0.232-0.127c-0.057-0.186,0.02-0.277,0.182-0.314c-0.033,0.072-0.033,0.137-0.021,0.199
			c0.254-0.074,0.646,0.043,0.646,0.484c0,0.438-0.305,0.809-0.875,0.717c0.135,0.063,0.205,0.197,0.219,0.346
			c-0.104-0.041-0.219-0.047-0.219-0.047c0.066,0.117,0.16,0.219,0.156,0.451c-0.107-0.049-0.205-0.139-0.34-0.082
			c0.213,0.42-0.049,0.996-0.715,1.131c0.244-0.285,0.363-0.594,0.363-0.9c0-0.992-0.275-1.16-0.275-1.852
			c0-0.289,0.146-0.602,0.441-0.814v0.012c-0.193-0.053-0.318-0.148-0.391-0.277c0.445-0.127,1.092-0.125,1.439,0.012
			c0.398,0.047,0.678,0.354,0.76,0.51c0.082,0.154,0.24,0.717,0,1.223c-0.266,0.553-1.512,3.197-1.9,4.027
			c-0.082,0.176-0.133,0.363-0.133,0.564c0,0.51,0.467,0.688,0.73,0.688c0.318,0,0.641-0.24,0.641-0.541
			c0-0.191-0.104-0.307-0.254-0.307c-0.357,0-0.336,0.305-0.266,0.496c-0.221-0.1-0.352-0.279-0.314-0.467
			c-0.127-0.018-0.246-0.078-0.357-0.203c0.086-0.109,0.193-0.193,0.357-0.197c-0.072-0.291,0.123-0.416,0.314-0.482
			c-0.059,0.213-0.1,0.461,0.266,0.461c0.268,0,0.477,0.047,0.6,0.219c0.006-0.23,0.029-1.143,0.029-1.143
			c0.014-0.344-0.459-0.332-0.76-0.23c0.111-0.395,0.346-0.607,0.885-0.555c-0.131-0.055-0.27-0.178-0.27-0.414
			c0-0.322,0.26-0.678,0.432-0.783L-66.524,6.205z"/>
		<path clip-path="url(#SVGID_6_)" fill="#FEC50C" d="M-66.524,8.777c0-0.857-0.771-1.297-1.375-1.297
			c-0.816,0-1.25,0.486-1.25,1.125c0,0.361,0.066,0.588,0.232,0.936c0,0,1.346,2.795,1.869,3.877
			c0.064,0.135,0.086,0.289,0.086,0.514c0,0.348-0.338,0.631-0.691,0.641c-0.322,0.008-0.672-0.301-0.672-0.652
			c0-0.426,0.221-0.617,0.447-0.617c0.281,0,0.393,0.115,0.393,0.313c0,0.137-0.066,0.195-0.162,0.195
			c-0.24,0-0.172-0.322-0.172-0.322c-0.119,0.025-0.219,0.146-0.162,0.299c-0.086,0.02-0.168,0.064-0.232,0.139
			c0.064,0.063,0.139,0.111,0.232,0.127c-0.057,0.186,0.02,0.277,0.182,0.314c-0.033-0.072-0.033-0.137-0.021-0.199
			c0.254,0.074,0.646-0.043,0.646-0.484c0-0.438-0.305-0.809-0.875-0.715c0.135-0.066,0.205-0.199,0.219-0.348
			c-0.104,0.041-0.219,0.047-0.219,0.047c0.066-0.117,0.16-0.219,0.156-0.451c-0.107,0.049-0.205,0.139-0.34,0.082
			c0.213-0.42-0.049-0.996-0.715-1.131c0.244,0.285,0.363,0.594,0.363,0.898c0,0.994-0.275,1.162-0.275,1.854
			c0,0.289,0.146,0.602,0.441,0.813v-0.01c-0.193,0.051-0.318,0.148-0.391,0.277c0.445,0.127,1.092,0.125,1.439-0.012
			c0.398-0.047,0.678-0.354,0.76-0.51c0.082-0.154,0.24-0.717,0-1.223c-0.266-0.553-1.512-3.197-1.9-4.027
			c-0.082-0.176-0.133-0.363-0.133-0.564c0-0.51,0.467-0.688,0.73-0.688c0.318,0,0.641,0.24,0.641,0.541
			c0,0.191-0.104,0.307-0.254,0.307c-0.357,0-0.336-0.305-0.266-0.496c-0.221,0.1-0.352,0.279-0.314,0.467
			c-0.127,0.018-0.246,0.078-0.357,0.203c0.086,0.109,0.193,0.193,0.357,0.195c-0.072,0.293,0.123,0.416,0.314,0.484
			c-0.059-0.213-0.1-0.461,0.266-0.461c0.268,0,0.477-0.045,0.6-0.219c0.006,0.23,0.029,1.143,0.029,1.143
			c0.014,0.342-0.459,0.332-0.76,0.23c0.111,0.395,0.346,0.607,0.885,0.555c-0.131,0.055-0.27,0.178-0.27,0.414
			c0,0.322,0.26,0.678,0.432,0.783L-66.524,8.777z"/>
		<path clip-path="url(#SVGID_6_)" fill="#FEC50C" d="M-66.61-3.07c0,0,0.406-0.342,0.545-0.17c0.223,0.275-0.684,1.648-0.684,2.132
			c0,0.795,0.529,1.01,1.184,1.123c0.439,0.076,1.154-0.031,1.154-0.031c-0.135-0.182-0.223-0.234-0.449-0.248
			c0.252-0.133,0.508-0.416,0.508-0.859c0-0.682-0.279-0.964-0.279-1.735c0-0.427,0.35-0.97,0.35-0.97
			c-0.619,0.062-0.926,0.636-0.752,1.093c-0.098,0.015-0.188-0.008-0.264-0.08c-0.045,0.127,0.025,0.273,0.121,0.4
			c-0.076,0.041-0.133,0.018-0.256-0.009c0.012,0.131,0.09,0.27,0.281,0.401c-0.557-0.146-0.898,0.242-0.898,0.649
			c0,0.307,0.215,0.527,0.426,0.527c0.066,0,0.166-0.029,0.223-0.07c0.039,0.084,0.02,0.197-0.021,0.281
			c0.154-0.041,0.252-0.133,0.182-0.322c0.119-0.012,0.213-0.051,0.277-0.127c-0.064-0.084-0.164-0.131-0.277-0.127
			c0.086-0.178-0.01-0.277-0.15-0.359c0,0,0.09,0.359-0.137,0.359c-0.102,0-0.195-0.033-0.195-0.184
			c0-0.131,0.115-0.313,0.379-0.302c0.266,0.013,0.48,0.183,0.48,0.607c0,0.389-0.314,0.584-0.729,0.596
			c-0.375,0.012-0.656-0.191-0.656-0.576c0-0.514,0.74-1.683,0.74-2.14c0-0.345-0.309-0.535-0.611-0.535
			c-0.391,0-0.721,0.388-0.721,0.388L-66.61-3.07z"/>
		<path clip-path="url(#SVGID_6_)" fill="#FEC50C" d="M-66.696,6.205c0,0.859,0.77,1.299,1.375,1.299c0.814,0,1.25-0.486,1.25-1.125
			c0-0.361-0.066-0.59-0.234-0.936c0,0-1.344-2.795-1.867-3.877c-0.064-0.135-0.086-0.289-0.086-0.514
			c0-0.348,0.336-0.631,0.691-0.641c0.32-0.008,0.672,0.301,0.672,0.652c0,0.426-0.221,0.617-0.449,0.617
			c-0.279,0-0.391-0.115-0.391-0.313c0-0.137,0.066-0.195,0.162-0.195c0.238,0,0.172,0.322,0.172,0.322
			c0.119-0.025,0.217-0.146,0.162-0.299c0.086-0.02,0.168-0.064,0.232-0.139c-0.064-0.063-0.139-0.111-0.232-0.127
			c0.055-0.186-0.02-0.277-0.184-0.314c0.033,0.072,0.035,0.137,0.023,0.199c-0.254-0.074-0.646,0.043-0.646,0.484
			c0,0.438,0.305,0.809,0.875,0.717c-0.137,0.063-0.205,0.197-0.219,0.346c0.104-0.041,0.219-0.047,0.219-0.047
			c-0.066,0.117-0.16,0.219-0.156,0.451c0.105-0.049,0.203-0.139,0.34-0.082c-0.213,0.42,0.049,0.996,0.715,1.131
			c-0.244-0.285-0.363-0.594-0.363-0.9c0-0.992,0.275-1.16,0.275-1.852c0-0.289-0.148-0.602-0.443-0.814v0.012
			c0.195-0.053,0.32-0.148,0.393-0.277c-0.445-0.127-1.092-0.125-1.439,0.012c-0.4,0.047-0.678,0.354-0.76,0.51
			c-0.082,0.154-0.242,0.717,0,1.223c0.264,0.553,1.512,3.197,1.898,4.027c0.084,0.176,0.135,0.363,0.135,0.564
			c0,0.51-0.469,0.688-0.732,0.688c-0.316,0-0.639-0.24-0.639-0.541c0-0.191,0.104-0.307,0.254-0.307
			c0.357,0,0.336,0.305,0.264,0.496c0.223-0.1,0.354-0.279,0.316-0.467c0.127-0.018,0.246-0.078,0.357-0.203
			c-0.088-0.109-0.193-0.193-0.357-0.197c0.072-0.291-0.123-0.416-0.316-0.482c0.061,0.213,0.1,0.461-0.264,0.461
			c-0.268,0-0.477,0.047-0.6,0.219c-0.008-0.23-0.029-1.143-0.029-1.143c-0.016-0.344,0.459-0.332,0.76-0.23
			c-0.113-0.395-0.346-0.607-0.885-0.555c0.131-0.055,0.27-0.178,0.27-0.414c0-0.322-0.26-0.678-0.432-0.783L-66.696,6.205z"/>
		<path clip-path="url(#SVGID_6_)" fill="#FEC50C" d="M-66.696,8.777c0-0.857,0.77-1.297,1.375-1.297c0.814,0,1.25,0.486,1.25,1.125
			c0,0.361-0.066,0.588-0.234,0.936c0,0-1.344,2.795-1.867,3.877c-0.064,0.135-0.086,0.289-0.086,0.514
			c0,0.348,0.336,0.631,0.691,0.641c0.32,0.008,0.672-0.301,0.672-0.652c0-0.426-0.221-0.617-0.449-0.617
			c-0.279,0-0.391,0.115-0.391,0.313c0,0.137,0.066,0.195,0.162,0.195c0.238,0,0.172-0.322,0.172-0.322
			c0.119,0.025,0.217,0.146,0.162,0.299c0.086,0.02,0.168,0.064,0.232,0.139c-0.064,0.063-0.139,0.111-0.232,0.127
			c0.055,0.186-0.02,0.277-0.184,0.314c0.033-0.072,0.035-0.137,0.023-0.199c-0.254,0.074-0.646-0.043-0.646-0.484
			c0-0.438,0.305-0.809,0.875-0.715c-0.137-0.066-0.205-0.199-0.219-0.348c0.104,0.041,0.219,0.047,0.219,0.047
			c-0.066-0.117-0.16-0.219-0.156-0.451c0.105,0.049,0.203,0.139,0.34,0.082c-0.213-0.42,0.049-0.996,0.715-1.131
			c-0.244,0.285-0.363,0.594-0.363,0.898c0,0.994,0.275,1.162,0.275,1.854c0,0.289-0.148,0.602-0.443,0.813v-0.01
			c0.195,0.051,0.32,0.148,0.393,0.277c-0.445,0.127-1.092,0.125-1.439-0.012c-0.4-0.047-0.678-0.354-0.76-0.51
			c-0.082-0.154-0.242-0.717,0-1.223c0.264-0.553,1.512-3.197,1.898-4.027c0.084-0.176,0.135-0.363,0.135-0.564
			c0-0.51-0.469-0.688-0.732-0.688c-0.316,0-0.639,0.24-0.639,0.541c0,0.191,0.104,0.307,0.254,0.307
			c0.357,0,0.336-0.305,0.264-0.496c0.223,0.1,0.354,0.279,0.316,0.467c0.127,0.018,0.246,0.078,0.357,0.203
			c-0.088,0.109-0.193,0.193-0.357,0.195c0.072,0.293-0.123,0.416-0.316,0.484c0.061-0.213,0.1-0.461-0.264-0.461
			c-0.268,0-0.477-0.045-0.6-0.219c-0.008,0.23-0.029,1.143-0.029,1.143c-0.016,0.342,0.459,0.332,0.76,0.23
			c-0.113,0.395-0.346,0.607-0.885,0.555c0.131,0.055,0.27,0.178,0.27,0.414c0,0.322-0.26,0.678-0.432,0.783L-66.696,8.777z"/>
		<path clip-path="url(#SVGID_6_)" fill="#FEC50C" d="M-66.61,33.07c0,0-0.408,0.342-0.545,0.17
			c-0.223-0.275,0.682-1.648,0.682-2.131c0-0.795-0.527-1.012-1.182-1.123c-0.439-0.076-1.154,0.031-1.154,0.031
			c0.135,0.182,0.223,0.234,0.449,0.248c-0.252,0.131-0.51,0.416-0.51,0.859c0,0.682,0.281,0.963,0.281,1.734
			c0,0.426-0.35,0.969-0.35,0.969c0.617-0.063,0.926-0.635,0.75-1.092c0.1-0.016,0.189,0.008,0.266,0.08
			c0.045-0.127-0.027-0.273-0.123-0.4c0.078-0.041,0.135-0.018,0.258,0.008c-0.012-0.131-0.09-0.27-0.283-0.4
			c0.559,0.145,0.9-0.242,0.9-0.648c0-0.307-0.215-0.527-0.426-0.527c-0.068,0-0.166,0.027-0.225,0.07
			c-0.039-0.084-0.018-0.197,0.023-0.281c-0.154,0.039-0.252,0.131-0.184,0.322c-0.117,0.01-0.211,0.051-0.275,0.127
			c0.064,0.082,0.164,0.131,0.275,0.127c-0.086,0.178,0.012,0.277,0.15,0.357c0,0-0.088-0.357,0.139-0.357
			c0.102,0,0.195,0.033,0.195,0.184c0,0.131-0.115,0.313-0.379,0.301c-0.266-0.012-0.48-0.184-0.48-0.605
			c0-0.391,0.314-0.584,0.729-0.596c0.375-0.012,0.656,0.189,0.656,0.576c0,0.514-0.74,1.682-0.74,2.139
			c0,0.344,0.309,0.535,0.609,0.535c0.393,0,0.723-0.387,0.723-0.387L-66.61,33.07z"/>
		<path clip-path="url(#SVGID_6_)" fill="#FEC50C" d="M-66.524,23.795c0-0.857-0.771-1.297-1.375-1.297
			c-0.816,0-1.25,0.486-1.25,1.125c0,0.361,0.066,0.588,0.232,0.934c0,0,1.346,2.797,1.869,3.879
			c0.064,0.133,0.086,0.287,0.086,0.514c0,0.348-0.338,0.631-0.691,0.641c-0.322,0.008-0.672-0.301-0.672-0.654
			c0-0.426,0.221-0.617,0.447-0.617c0.281,0,0.393,0.115,0.393,0.313c0,0.137-0.066,0.197-0.162,0.197
			c-0.24,0-0.172-0.324-0.172-0.324c-0.119,0.027-0.219,0.148-0.162,0.301c-0.086,0.02-0.168,0.064-0.232,0.137
			c0.064,0.064,0.139,0.111,0.232,0.127c-0.057,0.188,0.02,0.277,0.182,0.316c-0.033-0.072-0.033-0.137-0.021-0.199
			c0.254,0.072,0.646-0.043,0.646-0.484c0-0.439-0.305-0.809-0.875-0.717c0.135-0.064,0.205-0.197,0.219-0.346
			c-0.104,0.041-0.219,0.045-0.219,0.045c0.066-0.117,0.16-0.219,0.156-0.449c-0.107,0.049-0.205,0.137-0.34,0.08
			c0.213-0.418-0.049-0.994-0.715-1.131c0.244,0.285,0.363,0.594,0.363,0.9c0,0.994-0.275,1.162-0.275,1.854
			c0,0.289,0.146,0.602,0.441,0.813v-0.01c-0.193,0.051-0.318,0.146-0.391,0.277c0.445,0.125,1.092,0.123,1.439-0.014
			c0.398-0.045,0.678-0.352,0.76-0.508c0.082-0.154,0.24-0.717,0-1.223c-0.266-0.555-1.512-3.197-1.9-4.027
			c-0.082-0.178-0.133-0.363-0.133-0.566c0-0.508,0.467-0.686,0.73-0.686c0.318,0,0.641,0.24,0.641,0.541
			c0,0.191-0.104,0.307-0.254,0.307c-0.357,0-0.336-0.305-0.266-0.496c-0.221,0.1-0.352,0.279-0.314,0.467
			c-0.127,0.018-0.246,0.076-0.357,0.201c0.086,0.111,0.193,0.195,0.357,0.197c-0.072,0.293,0.123,0.416,0.314,0.484
			c-0.059-0.215-0.1-0.461,0.266-0.461c0.268,0,0.477-0.047,0.6-0.221c0.006,0.232,0.029,1.145,0.029,1.145
			c0.014,0.342-0.459,0.332-0.76,0.23c0.111,0.395,0.346,0.607,0.885,0.553c-0.131,0.057-0.27,0.18-0.27,0.416
			c0,0.32,0.26,0.678,0.432,0.783L-66.524,23.795z"/>
		<path clip-path="url(#SVGID_6_)" fill="#FEC50C" d="M-66.524,21.223c0,0.857-0.771,1.299-1.375,1.299
			c-0.816,0-1.25-0.488-1.25-1.125c0-0.363,0.066-0.59,0.232-0.936c0,0,1.346-2.797,1.869-3.879
			c0.064-0.135,0.086-0.287,0.086-0.512c0-0.348-0.338-0.633-0.691-0.641c-0.322-0.01-0.672,0.301-0.672,0.65
			c0,0.428,0.221,0.619,0.447,0.619c0.281,0,0.393-0.115,0.393-0.313c0-0.137-0.066-0.195-0.162-0.195
			c-0.24,0-0.172,0.322-0.172,0.322c-0.119-0.025-0.219-0.148-0.162-0.301c-0.086-0.018-0.168-0.064-0.232-0.137
			c0.064-0.063,0.139-0.111,0.232-0.127c-0.057-0.186,0.02-0.277,0.182-0.316c-0.033,0.072-0.033,0.139-0.021,0.199
			c0.254-0.07,0.646,0.043,0.646,0.486c0,0.438-0.305,0.807-0.875,0.715c0.135,0.064,0.205,0.197,0.219,0.346
			c-0.104-0.041-0.219-0.045-0.219-0.045c0.066,0.117,0.16,0.219,0.156,0.449c-0.107-0.047-0.205-0.137-0.34-0.08
			c0.213,0.418-0.049,0.994-0.715,1.131c0.244-0.285,0.363-0.594,0.363-0.9c0-0.994-0.275-1.162-0.275-1.854
			c0-0.289,0.146-0.6,0.441-0.813v0.012c-0.193-0.053-0.318-0.148-0.391-0.279c0.445-0.125,1.092-0.123,1.439,0.014
			c0.398,0.047,0.678,0.352,0.76,0.508s0.24,0.717,0,1.223c-0.266,0.555-1.512,3.197-1.9,4.029
			c-0.082,0.176-0.133,0.363-0.133,0.564c0,0.51,0.467,0.688,0.73,0.688c0.318,0,0.641-0.242,0.641-0.543
			c0-0.191-0.104-0.305-0.254-0.305c-0.357,0-0.336,0.303-0.266,0.494c-0.221-0.1-0.352-0.277-0.314-0.467
			c-0.127-0.018-0.246-0.076-0.357-0.201c0.086-0.109,0.193-0.193,0.357-0.197c-0.072-0.291,0.123-0.416,0.314-0.484
			c-0.059,0.215-0.1,0.461,0.266,0.461c0.268,0,0.477,0.047,0.6,0.221c0.006-0.23,0.029-1.143,0.029-1.143
			c0.014-0.344-0.459-0.334-0.76-0.232c0.111-0.393,0.346-0.607,0.885-0.553c-0.131-0.055-0.27-0.178-0.27-0.416
			c0-0.322,0.26-0.676,0.432-0.783L-66.524,21.223z"/>
		<path clip-path="url(#SVGID_6_)" fill="#FEC50C" d="M-66.61,33.07c0,0,0.406,0.342,0.545,0.17
			c0.223-0.275-0.684-1.648-0.684-2.131c0-0.795,0.529-1.012,1.184-1.123c0.439-0.076,1.154,0.031,1.154,0.031
			c-0.135,0.182-0.223,0.234-0.449,0.248c0.252,0.131,0.508,0.416,0.508,0.859c0,0.682-0.279,0.963-0.279,1.734
			c0,0.426,0.35,0.969,0.35,0.969c-0.619-0.063-0.926-0.635-0.752-1.092c-0.098-0.016-0.188,0.008-0.264,0.08
			c-0.045-0.127,0.025-0.273,0.121-0.4c-0.076-0.041-0.133-0.018-0.256,0.008c0.012-0.131,0.09-0.27,0.281-0.4
			c-0.557,0.145-0.898-0.242-0.898-0.648c0-0.307,0.215-0.527,0.426-0.527c0.066,0,0.166,0.027,0.223,0.07
			c0.039-0.084,0.02-0.197-0.021-0.281c0.154,0.039,0.252,0.131,0.182,0.322c0.119,0.01,0.213,0.051,0.277,0.127
			c-0.064,0.082-0.164,0.131-0.277,0.127c0.086,0.178-0.01,0.277-0.15,0.357c0,0,0.09-0.357-0.137-0.357
			c-0.102,0-0.195,0.033-0.195,0.184c0,0.131,0.115,0.313,0.379,0.301c0.266-0.012,0.48-0.184,0.48-0.605
			c0-0.391-0.314-0.584-0.729-0.596c-0.375-0.012-0.656,0.189-0.656,0.576c0,0.514,0.74,1.682,0.74,2.139
			c0,0.344-0.309,0.535-0.611,0.535c-0.391,0-0.721-0.387-0.721-0.387L-66.61,33.07z"/>
		<path clip-path="url(#SVGID_6_)" fill="#FEC50C" d="M-66.696,23.795c0-0.857,0.77-1.297,1.375-1.297
			c0.814,0,1.25,0.486,1.25,1.125c0,0.361-0.066,0.588-0.234,0.934c0,0-1.344,2.797-1.867,3.879
			c-0.064,0.133-0.086,0.287-0.086,0.514c0,0.348,0.336,0.631,0.691,0.641c0.32,0.008,0.672-0.301,0.672-0.654
			c0-0.426-0.221-0.617-0.449-0.617c-0.279,0-0.391,0.115-0.391,0.313c0,0.137,0.066,0.197,0.162,0.197
			c0.238,0,0.172-0.324,0.172-0.324c0.119,0.027,0.217,0.148,0.162,0.301c0.086,0.02,0.168,0.064,0.232,0.137
			c-0.064,0.064-0.139,0.111-0.232,0.127c0.055,0.188-0.02,0.277-0.184,0.316c0.033-0.072,0.035-0.137,0.023-0.199
			c-0.254,0.072-0.646-0.043-0.646-0.484c0-0.439,0.305-0.809,0.875-0.717c-0.137-0.064-0.205-0.197-0.219-0.346
			c0.104,0.041,0.219,0.045,0.219,0.045c-0.066-0.117-0.16-0.219-0.156-0.449c0.105,0.049,0.203,0.137,0.34,0.08
			c-0.213-0.418,0.049-0.994,0.715-1.131c-0.244,0.285-0.363,0.594-0.363,0.9c0,0.994,0.275,1.162,0.275,1.854
			c0,0.289-0.148,0.602-0.443,0.813v-0.01c0.195,0.051,0.32,0.146,0.393,0.277c-0.445,0.125-1.092,0.123-1.439-0.014
			c-0.4-0.045-0.678-0.352-0.76-0.508c-0.082-0.154-0.242-0.717,0-1.223c0.264-0.555,1.512-3.197,1.898-4.027
			c0.084-0.178,0.135-0.363,0.135-0.566c0-0.508-0.469-0.686-0.732-0.686c-0.316,0-0.639,0.24-0.639,0.541
			c0,0.191,0.104,0.307,0.254,0.307c0.357,0,0.336-0.305,0.264-0.496c0.223,0.1,0.354,0.279,0.316,0.467
			c0.127,0.018,0.246,0.076,0.357,0.201c-0.088,0.111-0.193,0.195-0.357,0.197c0.072,0.293-0.123,0.416-0.316,0.484
			c0.061-0.215,0.1-0.461-0.264-0.461c-0.268,0-0.477-0.047-0.6-0.221c-0.008,0.232-0.029,1.145-0.029,1.145
			c-0.016,0.342,0.459,0.332,0.76,0.23c-0.113,0.395-0.346,0.607-0.885,0.553c0.131,0.057,0.27,0.18,0.27,0.416
			c0,0.32-0.26,0.678-0.432,0.783L-66.696,23.795z"/>
		<path clip-path="url(#SVGID_6_)" fill="#FEC50C" d="M-66.696,21.223c0,0.857,0.77,1.299,1.375,1.299
			c0.814,0,1.25-0.488,1.25-1.125c0-0.363-0.066-0.59-0.234-0.936c0,0-1.344-2.797-1.867-3.879
			c-0.064-0.135-0.086-0.287-0.086-0.512c0-0.348,0.336-0.633,0.691-0.641c0.32-0.01,0.672,0.301,0.672,0.65
			c0,0.428-0.221,0.619-0.449,0.619c-0.279,0-0.391-0.115-0.391-0.313c0-0.137,0.066-0.195,0.162-0.195
			c0.238,0,0.172,0.322,0.172,0.322c0.119-0.025,0.217-0.148,0.162-0.301c0.086-0.018,0.168-0.064,0.232-0.137
			c-0.064-0.063-0.139-0.111-0.232-0.127c0.055-0.186-0.02-0.277-0.184-0.316c0.033,0.072,0.035,0.139,0.023,0.199
			c-0.254-0.07-0.646,0.043-0.646,0.486c0,0.438,0.305,0.807,0.875,0.715c-0.137,0.064-0.205,0.197-0.219,0.346
			c0.104-0.041,0.219-0.045,0.219-0.045c-0.066,0.117-0.16,0.219-0.156,0.449c0.105-0.047,0.203-0.137,0.34-0.08
			c-0.213,0.418,0.049,0.994,0.715,1.131c-0.244-0.285-0.363-0.594-0.363-0.9c0-0.994,0.275-1.162,0.275-1.854
			c0-0.289-0.148-0.6-0.443-0.813v0.012c0.195-0.053,0.32-0.148,0.393-0.279c-0.445-0.125-1.092-0.123-1.439,0.014
			c-0.4,0.047-0.678,0.352-0.76,0.508s-0.242,0.717,0,1.223c0.264,0.555,1.512,3.197,1.898,4.029
			c0.084,0.176,0.135,0.363,0.135,0.564c0,0.51-0.469,0.688-0.732,0.688c-0.316,0-0.639-0.242-0.639-0.543
			c0-0.191,0.104-0.305,0.254-0.305c0.357,0,0.336,0.303,0.264,0.494c0.223-0.1,0.354-0.277,0.316-0.467
			c0.127-0.018,0.246-0.076,0.357-0.201c-0.088-0.109-0.193-0.193-0.357-0.197c0.072-0.291-0.123-0.416-0.316-0.484
			c0.061,0.215,0.1,0.461-0.264,0.461c-0.268,0-0.477,0.047-0.6,0.221c-0.008-0.23-0.029-1.143-0.029-1.143
			c-0.016-0.344,0.459-0.334,0.76-0.232c-0.113-0.393-0.346-0.607-0.885-0.553c0.131-0.055,0.27-0.178,0.27-0.416
			c0-0.322-0.26-0.676-0.432-0.783L-66.696,21.223z"/>
	</g>
	<g>
		<defs>
			<path id="SVGID_7_" d="M0.548-33.243c0,8.008,6.49,14.5,14.5,14.5c8.008,0,14.498-6.492,14.498-14.5s-6.49-14.5-14.498-14.5
				C7.038-47.743,0.548-41.25,0.548-33.243"/>
		</defs>
		<clipPath id="SVGID_8_">
			<use xlink:href="#SVGID_7_"  overflow="visible"/>
		</clipPath>
		<rect x="0.157" y="-47.938" clip-path="url(#SVGID_8_)" fill="#C8313E" width="58.779" height="29.391"/>
		<rect x="0.157" y="-28.344" clip-path="url(#SVGID_8_)" fill="#4AA657" width="58.779" height="9.797"/>
		<rect x="0.157" y="-47.938" clip-path="url(#SVGID_8_)" fill="#FFFFFF" width="6.531" height="29.391"/>
		<path clip-path="url(#SVGID_8_)" fill="#C8313E" d="M1.294-47.938h0.852v0.482h0.285v0.481h0.283v0.482h0.283v0.481h0.285v0.481
			H2.997v0.481H2.714v0.482H2.431v0.482H2.146v0.481H1.862v0.481H1.577v-0.481H1.294v-0.481H1.011v-0.482H0.726v-0.482H0.442v-0.481
			H0.157v-0.481h0.285v-0.481h0.283v-0.482h0.285v-0.481h0.283V-47.938z M1.577-46.974h0.285v0.482h0.283v0.481h0.285v0.481H2.146
			v0.481H1.862v0.482H1.577v-0.482H1.294v-0.481H1.011v-0.481h0.283v-0.481h0.283V-46.974z M1.577-46.01h0.285v0.482H1.577V-46.01z
			 M0.157-47.456h0.285v0.481H0.157V-47.456z M0.157-44.565h0.285v0.482H0.157V-44.565z M3.282-47.938h0.17v0.964h-0.17V-47.938z
			 M3.282-44.565h0.17v0.964h-0.17V-44.565z M0.726-43.601h0.285v0.481h0.283v0.481h0.283v0.482H1.294v0.481H1.011v0.482H0.726
			v-0.482H0.442v-0.481H0.157v-0.482h0.285v-0.481h0.283V-43.601z M0.726-42.638h0.285v0.482H0.726V-42.638z M2.431-43.601h0.283
			v0.481h0.283v0.481h0.285v0.482H2.997v0.481H2.714v0.482H2.431v-0.482H2.146v-0.481H1.862v-0.482h0.283v-0.481h0.285V-43.601z
			 M2.431-42.638h0.283v0.482H2.431V-42.638z M0.157-40.711h0.285v0.482H0.157V-40.711z M3.282-41.192h0.17v0.964h-0.17V-41.192z"/>
		<path clip-path="url(#SVGID_8_)" fill="#C8313E" d="M0.157-39.265h0.285v-0.481h0.283v-0.482h0.285v-0.482h0.283v-0.48h0.283
			v-0.482h0.285v0.482h0.283v0.48h0.285v0.482h0.283v0.482h0.283v0.481h0.285v0.482h0.17v1.927h-0.17v0.482H2.997v0.48H2.714v0.482
			H2.431v0.481H2.146v0.482H1.862v1.252H1.294v-0.289H1.011v-0.481H0.726v-0.481H0.442v-0.482H0.157v-1.444h0.285v0.48h0.283v0.482
			h0.285v0.481h0.283v-0.481h0.283v-0.482h0.285v-0.48h0.283v-0.482h0.285v-0.482h0.283v-0.481H2.431v-0.482H2.146v-0.48H1.294v0.48
			h0.568v0.482H1.577v0.481H1.294v0.482H1.011v-0.482H0.726v-0.481H0.442v-0.482H0.157V-39.265z M0.157-37.338h0.285v0.482H0.157
			V-37.338z M3.282-35.893h0.17v0.482h-0.17V-35.893z M2.714-34.929h0.283v0.482h0.285v0.481h0.17v0.771h-0.17v-0.289H2.997v-0.481
			H2.714V-34.929z M2.146-33.484h0.285v0.289H2.146V-33.484z"/>
		<path clip-path="url(#SVGID_8_)" fill="#C8313E" d="M5.554-47.938H4.7v0.482H4.417v0.481H4.134v0.482H3.851v0.481H3.565v0.481
			h0.285v0.481h0.283v0.482h0.283v0.482H4.7v0.481h0.285v0.481h0.283v-0.481h0.285v-0.481h0.283v-0.482H6.12v-0.482h0.285v-0.481
			h0.283v-0.481H6.405v-0.481H6.12v-0.482H5.837v-0.481H5.554V-47.938z M5.269-46.974H4.985v0.482H4.7v0.481H4.417v0.481H4.7v0.481
			h0.285v0.482h0.283v-0.482h0.285v-0.481h0.283v-0.481H5.554v-0.481H5.269V-46.974z M5.269-46.01H4.985v0.482h0.283V-46.01z
			 M6.688-47.456H6.405v0.481h0.283V-47.456z M6.688-44.565H6.405v0.482h0.283V-44.565z M3.565-47.938h-0.17v0.964h0.17V-47.938z
			 M3.565-44.565h-0.17v0.964h0.17V-44.565z M6.12-43.601H5.837v0.481H5.554v0.481H5.269v0.482h0.285v0.481h0.283v0.482H6.12v-0.482
			h0.285v-0.481h0.283v-0.482H6.405v-0.481H6.12V-43.601z M6.12-42.638H5.837v0.482H6.12V-42.638z M4.417-43.601H4.134v0.481H3.851
			v0.481H3.565v0.482h0.285v0.481h0.283v0.482h0.283v-0.482H4.7v-0.481h0.285v-0.482H4.7v-0.481H4.417V-43.601z M4.417-42.638H4.134
			v0.482h0.283V-42.638z M6.688-40.711H6.405v0.482h0.283V-40.711z M3.565-41.192h-0.17v0.964h0.17V-41.192z"/>
		<path clip-path="url(#SVGID_8_)" fill="#C8313E" d="M6.688-39.265H6.405v-0.481H6.12v-0.482H5.837v-0.482H5.554v-0.48H5.269
			v-0.482H4.985v0.482H4.7v0.48H4.417v0.482H4.134v0.482H3.851v0.481H3.565v0.482h-0.17v1.927h0.17v0.482h0.285v0.48h0.283v0.482
			h0.283v0.481H4.7v0.482h0.285v1.252h0.568v-0.289h0.283v-0.481H6.12v-0.481h0.285v-0.482h0.283v-1.444H6.405v0.48H6.12v0.482
			H5.837v0.481H5.554v-0.481H5.269v-0.482H4.985v-0.48H4.7v-0.482H4.417v-0.482H4.134v-0.481h0.283v-0.482H4.7v-0.48h0.854v0.48
			H4.985v0.482h0.283v0.481h0.285v0.482h0.283v-0.482H6.12v-0.481h0.285v-0.482h0.283V-39.265z M6.688-37.338H6.405v0.482h0.283
			V-37.338z M3.565-35.893h-0.17v0.482h0.17V-35.893z M4.134-34.929H3.851v0.482H3.565v0.481h-0.17v0.771h0.17v-0.289h0.285v-0.481
			h0.283V-34.929z M4.7-33.484H4.417v0.289H4.7V-33.484z"/>
		<path clip-path="url(#SVGID_8_)" fill="#C8313E" d="M1.294-18.547h0.852v-0.482h0.285v-0.481h0.283v-0.481h0.283v-0.482h0.285
			v-0.482H2.997v-0.481H2.714v-0.481H2.431v-0.481H2.146v-0.481H1.862v-0.482H1.577v0.482H1.294v0.481H1.011v0.481H0.726v0.481
			H0.442v0.481H0.157v0.482h0.285v0.482h0.283v0.481h0.285v0.481h0.283V-18.547z M1.577-19.511h0.285v-0.481h0.283v-0.482h0.285
			v-0.482H2.146v-0.481H1.862v-0.481H1.577v0.481H1.294v0.481H1.011v0.482h0.283v0.482h0.283V-19.511z M1.577-20.475h0.285v-0.482
			H1.577V-20.475z M0.157-19.03h0.285v-0.482H0.157V-19.03z M0.157-21.92h0.285v-0.481H0.157V-21.92z M3.282-18.547h0.17v-0.965
			h-0.17V-18.547z M3.282-21.92h0.17v-0.963h-0.17V-21.92z M0.726-22.883h0.285v-0.482h0.283v-0.482h0.283v-0.48H1.294v-0.482H1.011
			v-0.482H0.726v0.482H0.442v0.482H0.157v0.48h0.285v0.482h0.283V-22.883z M0.726-23.848h0.285v-0.482H0.726V-23.848z M2.431-22.883
			h0.283v-0.482h0.283v-0.482h0.285v-0.48H2.997v-0.482H2.714v-0.482H2.431v0.482H2.146v0.482H1.862v0.48h0.283v0.482h0.285V-22.883
			z M2.431-23.848h0.283v-0.482H2.431V-23.848z M0.157-25.775h0.285v-0.481H0.157V-25.775z M3.282-25.293h0.17v-0.963h-0.17V-25.293
			z"/>
		<path clip-path="url(#SVGID_8_)" fill="#C8313E" d="M0.157-27.22h0.285v0.482h0.283v0.481h0.285v0.481h0.283v0.481h0.283v0.482
			h0.285v-0.482h0.283v-0.481h0.285v-0.481h0.283v-0.481h0.283v-0.482h0.285v-0.481h0.17v-1.928h-0.17v-0.481H2.997v-0.482H2.714
			v-0.481H2.431v-0.481H2.146v-0.481H1.862v-1.254H1.294v0.289H1.011v0.482H0.726v0.482H0.442v0.481H0.157v1.445h0.285v-0.482h0.283
			v-0.481h0.285v-0.481h0.283v0.481h0.283v0.481h0.285v0.482h0.283v0.481h0.285v0.482h0.283v0.48H2.431v0.482H2.146v0.482H1.294
			v-0.482h0.568v-0.482H1.577v-0.48H1.294v-0.482H1.011v0.482H0.726v0.48H0.442v0.482H0.157V-27.22z M0.157-29.147h0.285v-0.482
			H0.157V-29.147z M3.282-30.593h0.17v-0.481h-0.17V-30.593z M2.714-31.556h0.283v-0.481h0.285v-0.482h0.17v-0.771h-0.17v0.289
			H2.997v0.482H2.714V-31.556z M2.146-33.002h0.285v-0.289H2.146V-33.002z"/>
		<path clip-path="url(#SVGID_8_)" fill="#C8313E" d="M5.554-18.547H4.7v-0.482H4.417v-0.481H4.134v-0.481H3.851v-0.482H3.565
			v-0.482h0.285v-0.481h0.283v-0.481h0.283v-0.481H4.7v-0.481h0.285v-0.482h0.283v0.482h0.285v0.481h0.283v0.481H6.12v0.481h0.285
			v0.481h0.283v0.482H6.405v0.482H6.12v0.481H5.837v0.481H5.554V-18.547z M5.269-19.511H4.985v-0.481H4.7v-0.482H4.417v-0.482H4.7
			v-0.481h0.285v-0.481h0.283v0.481h0.285v0.481h0.283v0.482H5.554v0.482H5.269V-19.511z M5.269-20.475H4.985v-0.482h0.283V-20.475z
			 M6.688-19.03H6.405v-0.482h0.283V-19.03z M6.688-21.92H6.405v-0.481h0.283V-21.92z M3.565-18.547h-0.17v-0.965h0.17V-18.547z
			 M3.565-21.92h-0.17v-0.963h0.17V-21.92z M6.12-22.883H5.837v-0.482H5.554v-0.482H5.269v-0.48h0.285v-0.482h0.283v-0.482H6.12
			v0.482h0.285v0.482h0.283v0.48H6.405v0.482H6.12V-22.883z M6.12-23.848H5.837v-0.482H6.12V-23.848z M4.417-22.883H4.134v-0.482
			H3.851v-0.482H3.565v-0.48h0.285v-0.482h0.283v-0.482h0.283v0.482H4.7v0.482h0.285v0.48H4.7v0.482H4.417V-22.883z M4.417-23.848
			H4.134v-0.482h0.283V-23.848z M6.688-25.775H6.405v-0.481h0.283V-25.775z M3.565-25.293h-0.17v-0.963h0.17V-25.293z"/>
		<path clip-path="url(#SVGID_8_)" fill="#C8313E" d="M6.688-27.22H6.405v0.482H6.12v0.481H5.837v0.481H5.554v0.481H5.269v0.482
			H4.985v-0.482H4.7v-0.481H4.417v-0.481H4.134v-0.481H3.851v-0.482H3.565v-0.481h-0.17v-1.928h0.17v-0.481h0.285v-0.482h0.283
			v-0.481h0.283v-0.481H4.7v-0.481h0.285v-1.254h0.568v0.289h0.283v0.482H6.12v0.482h0.285v0.481h0.283v1.445H6.405v-0.482H6.12
			v-0.481H5.837v-0.481H5.554v0.481H5.269v0.481H4.985v0.482H4.7v0.481H4.417v0.482H4.134v0.48h0.283v0.482H4.7v0.482h0.854v-0.482
			H4.985v-0.482h0.283v-0.48h0.285v-0.482h0.283v0.482H6.12v0.48h0.285v0.482h0.283V-27.22z M6.688-29.147H6.405v-0.482h0.283
			V-29.147z M3.565-30.593h-0.17v-0.481h0.17V-30.593z M4.134-31.556H3.851v-0.481H3.565v-0.482h-0.17v-0.771h0.17v0.289h0.285
			v0.482h0.283V-31.556z M4.7-33.002H4.417v-0.289H4.7V-33.002z"/>
	</g>
	<g>
		<defs>
			<path id="SVGID_9_" d="M-81.786-33.243c0,8.008,6.492,14.5,14.501,14.5c8.008,0,14.5-6.492,14.5-14.5s-6.492-14.5-14.5-14.5
				C-75.293-47.743-81.786-41.25-81.786-33.243"/>
		</defs>
		<clipPath id="SVGID_10_">
			<use xlink:href="#SVGID_9_"  overflow="visible"/>
		</clipPath>
		<rect x="-90.633" y="-47.742" clip-path="url(#SVGID_10_)" fill="#FFFFFF" width="44.443" height="9.688"/>
		<rect x="-90.633" y="-38.053" clip-path="url(#SVGID_10_)" fill="#27A2E1" width="44.443" height="9.689"/>
		<rect x="-90.633" y="-28.363" clip-path="url(#SVGID_10_)" fill="#ED1C14" width="44.443" height="9.688"/>
	</g>
	<g>
		<defs>
			<path id="SVGID_11_" d="M-40.618-33.243c0,8.008,6.49,14.5,14.5,14.5c8.008,0,14.5-6.492,14.5-14.5s-6.492-14.5-14.5-14.5
				C-34.128-47.743-40.618-41.25-40.618-33.243"/>
		</defs>
		<clipPath id="SVGID_12_">
			<use xlink:href="#SVGID_11_"  overflow="visible"/>
		</clipPath>
		<rect x="-71.688" y="-54.398" clip-path="url(#SVGID_12_)" fill="#00AFCA" width="84.621" height="42.312"/>
		<path clip-path="url(#SVGID_12_)" fill="#FEC50C" d="M-25.972-42.321c3.143,0,5.691,2.55,5.691,5.693
			c0,3.145-2.549,5.693-5.691,5.693c-3.145,0-5.693-2.549-5.693-5.693C-31.665-39.771-29.116-42.321-25.972-42.321"/>
		<path clip-path="url(#SVGID_12_)" fill="#FEC50C" d="M-25.972-43.096c0.338-0.004,0.465-0.217,0.465-0.471
			c0-0.338-0.465-1.949-0.465-1.949s-0.467,1.611-0.467,1.949C-26.438-43.313-26.312-43.096-25.972-43.096"/>
		<path clip-path="url(#SVGID_12_)" fill="#FEC50C" d="M-19.503-36.627c0.004,0.339,0.215,0.465,0.469,0.465
			c0.34,0,1.951-0.465,1.951-0.465s-1.611-0.465-1.951-0.465C-19.288-37.092-19.503-36.966-19.503-36.627"/>
		<path clip-path="url(#SVGID_12_)" fill="#FEC50C" d="M-25.972-30.159c-0.34,0.004-0.467,0.217-0.467,0.471
			c0,0.338,0.467,1.949,0.467,1.949s0.465-1.611,0.465-1.949C-25.507-29.942-25.634-30.159-25.972-30.159"/>
		<path clip-path="url(#SVGID_12_)" fill="#FEC50C" d="M-32.442-36.627c-0.004-0.339-0.215-0.465-0.469-0.465
			c-0.338,0-1.951,0.465-1.951,0.465s1.613,0.465,1.951,0.465C-32.657-36.163-32.442-36.289-32.442-36.627"/>
		<path clip-path="url(#SVGID_12_)" fill="#FEC50C" d="M-23.497-42.604c0.314,0.126,0.514-0.021,0.609-0.256
			c0.129-0.313,0.316-1.98,0.316-1.98s-1.047,1.311-1.176,1.624C-23.845-42.981-23.81-42.735-23.497-42.604"/>
		<path clip-path="url(#SVGID_12_)" fill="#FEC50C" d="M-19.995-34.152c-0.127,0.313,0.02,0.513,0.256,0.61
			c0.313,0.129,1.98,0.315,1.98,0.315s-1.313-1.047-1.625-1.176C-19.618-34.499-19.866-34.465-19.995-34.152"/>
		<path clip-path="url(#SVGID_12_)" fill="#FEC50C" d="M-28.448-30.651c-0.314-0.126-0.514,0.021-0.609,0.256
			c-0.129,0.313-0.316,1.98-0.316,1.98s1.047-1.311,1.176-1.624C-28.101-30.274-28.136-30.52-28.448-30.651"/>
		<path clip-path="url(#SVGID_12_)" fill="#FEC50C" d="M-31.95-39.103c0.127-0.313-0.02-0.513-0.256-0.61
			c-0.311-0.129-1.979-0.315-1.979-0.315s1.311,1.047,1.623,1.176C-32.327-38.756-32.079-38.79-31.95-39.103"/>
		<path clip-path="url(#SVGID_12_)" fill="#FEC50C" d="M-21.397-41.202c0.242,0.236,0.482,0.177,0.66-0.003
			c0.24-0.239,1.051-1.708,1.051-1.708s-1.469,0.81-1.709,1.05C-21.575-41.684-21.638-41.441-21.397-41.202"/>
		<path clip-path="url(#SVGID_12_)" fill="#FEC50C" d="M-21.397-32.053c-0.236,0.242-0.178,0.482,0.002,0.661
			c0.24,0.24,1.709,1.05,1.709,1.05s-0.811-1.469-1.051-1.707C-20.915-32.23-21.159-32.292-21.397-32.053"/>
		<path clip-path="url(#SVGID_12_)" fill="#FEC50C" d="M-30.548-32.053c-0.24-0.236-0.48-0.177-0.66,0.004
			c-0.24,0.238-1.051,1.707-1.051,1.707s1.471-0.81,1.709-1.05C-30.37-31.571-30.308-31.814-30.548-32.053"/>
		<path clip-path="url(#SVGID_12_)" fill="#FEC50C" d="M-30.548-41.202c0.236-0.242,0.178-0.482-0.002-0.661
			c-0.238-0.24-1.709-1.05-1.709-1.05s0.811,1.469,1.051,1.708C-31.028-41.025-30.786-40.963-30.548-41.202"/>
		<path clip-path="url(#SVGID_12_)" fill="#FEC50C" d="M-19.995-39.103c0.133,0.312,0.377,0.347,0.611,0.25
			c0.313-0.129,1.625-1.176,1.625-1.176s-1.668,0.187-1.98,0.315C-19.976-39.616-20.126-39.417-19.995-39.103"/>
		<path clip-path="url(#SVGID_12_)" fill="#FEC50C" d="M-23.497-30.651c-0.311,0.133-0.348,0.377-0.25,0.612
			c0.129,0.313,1.176,1.624,1.176,1.624s-0.188-1.668-0.316-1.98C-22.983-30.629-23.185-30.781-23.497-30.651"/>
		<path clip-path="url(#SVGID_12_)" fill="#FEC50C" d="M-31.95-34.152c-0.133-0.312-0.377-0.347-0.611-0.25
			c-0.313,0.129-1.623,1.176-1.623,1.176s1.668-0.187,1.979-0.315C-31.97-33.639-31.819-33.838-31.95-34.152"/>
		<path clip-path="url(#SVGID_12_)" fill="#FEC50C" d="M-28.448-42.604c0.311-0.133,0.348-0.377,0.25-0.612
			c-0.129-0.313-1.176-1.624-1.176-1.624s0.188,1.668,0.316,1.98C-28.962-42.625-28.761-42.474-28.448-42.604"/>
		<path clip-path="url(#SVGID_12_)" fill="#FEC50C" d="M-24.71-42.972c0.332,0.062,0.498-0.121,0.547-0.37
			c0.066-0.332-0.076-2.004-0.076-2.004s-0.77,1.49-0.836,1.822C-25.124-43.274-25.042-43.039-24.71-42.972"/>
		<path clip-path="url(#SVGID_12_)" fill="#FEC50C" d="M-19.628-35.366c-0.063,0.334,0.121,0.5,0.371,0.549
			c0.332,0.065,2.004-0.076,2.004-0.076s-1.492-0.771-1.824-0.838C-19.325-35.78-19.562-35.698-19.628-35.366"/>
		<path clip-path="url(#SVGID_12_)" fill="#FEC50C" d="M-27.235-30.283c-0.332-0.062-0.498,0.121-0.547,0.37
			c-0.066,0.332,0.076,2.004,0.076,2.004s0.77-1.49,0.836-1.822C-26.821-29.981-26.903-30.216-27.235-30.283"/>
		<path clip-path="url(#SVGID_12_)" fill="#FEC50C" d="M-32.317-37.889c0.063-0.333-0.121-0.499-0.371-0.549
			c-0.33-0.065-2.004,0.076-2.004,0.076s1.492,0.771,1.824,0.838C-32.62-37.475-32.384-37.557-32.317-37.889"/>
		<path clip-path="url(#SVGID_12_)" fill="#FEC50C" d="M-22.378-42.006c0.283,0.186,0.506,0.079,0.648-0.132
			c0.188-0.281,0.695-1.88,0.695-1.88s-1.283,1.08-1.471,1.363C-22.646-42.444-22.659-42.194-22.378-42.006"/>
		<path clip-path="url(#SVGID_12_)" fill="#FEC50C" d="M-20.593-33.034c-0.186,0.284-0.08,0.508,0.131,0.648
			c0.281,0.188,1.881,0.697,1.881,0.697s-1.082-1.283-1.363-1.471C-20.155-33.3-20.405-33.314-20.593-33.034"/>
		<path clip-path="url(#SVGID_12_)" fill="#FEC50C" d="M-29.567-31.249c-0.283-0.185-0.506-0.079-0.646,0.133
			c-0.189,0.28-0.697,1.879-0.697,1.879s1.283-1.082,1.471-1.362C-29.3-30.81-29.286-31.06-29.567-31.249"/>
		<path clip-path="url(#SVGID_12_)" fill="#FEC50C" d="M-31.351-40.221c0.184-0.284,0.078-0.508-0.133-0.648
			c-0.281-0.188-1.881-0.696-1.881-0.696s1.082,1.282,1.363,1.47C-31.79-39.955-31.54-39.941-31.351-40.221"/>
		<path clip-path="url(#SVGID_12_)" fill="#FEC50C" d="M-20.593-40.221c0.191,0.278,0.438,0.267,0.648,0.125
			c0.281-0.188,1.363-1.47,1.363-1.47s-1.6,0.509-1.881,0.696C-20.673-40.729-20.782-40.502-20.593-40.221"/>
		<path clip-path="url(#SVGID_12_)" fill="#FEC50C" d="M-22.378-31.249c-0.279,0.192-0.268,0.438-0.127,0.649
			c0.188,0.28,1.471,1.362,1.471,1.362s-0.508-1.599-0.695-1.879C-21.872-31.328-22.097-31.436-22.378-31.249"/>
		<path clip-path="url(#SVGID_12_)" fill="#FEC50C" d="M-31.351-33.034c-0.193-0.278-0.439-0.267-0.65-0.125
			c-0.281,0.188-1.363,1.471-1.363,1.471s1.6-0.51,1.881-0.697C-31.272-32.526-31.163-32.752-31.351-33.034"/>
		<path clip-path="url(#SVGID_12_)" fill="#FEC50C" d="M-29.567-42.006c0.279-0.191,0.268-0.438,0.127-0.648
			c-0.188-0.283-1.471-1.363-1.471-1.363s0.508,1.599,0.697,1.88C-30.073-41.927-29.849-41.819-29.567-42.006"/>
		<path clip-path="url(#SVGID_12_)" fill="#FEC50C" d="M-19.628-37.889c0.07,0.33,0.303,0.414,0.551,0.365
			c0.332-0.066,1.824-0.838,1.824-0.838s-1.672-0.142-2.004-0.076C-19.507-38.388-19.694-38.221-19.628-37.889"/>
		<path clip-path="url(#SVGID_12_)" fill="#FEC50C" d="M-24.71-30.283c-0.332,0.07-0.414,0.302-0.365,0.552
			c0.066,0.332,0.836,1.822,0.836,1.822s0.143-1.672,0.076-2.004C-24.212-30.162-24.378-30.348-24.71-30.283"/>
		<path clip-path="url(#SVGID_12_)" fill="#FEC50C" d="M-32.317-35.366c-0.07-0.33-0.303-0.414-0.551-0.365
			c-0.332,0.066-1.824,0.838-1.824,0.838s1.674,0.142,2.004,0.076C-32.438-34.866-32.251-35.034-32.317-35.366"/>
		<path clip-path="url(#SVGID_12_)" fill="#FEC50C" d="M-27.235-42.972c0.332-0.07,0.414-0.302,0.365-0.552
			c-0.066-0.332-0.836-1.822-0.836-1.822s-0.143,1.672-0.076,2.004C-27.733-43.093-27.567-42.907-27.235-42.972"/>
		<path clip-path="url(#SVGID_12_)" fill="#FEC50C" d="M-26.987-24.295c-0.152,0.009-0.301,0.028-0.447,0.075
			c-0.199,0.026-0.389,0.096-0.586,0.128l-0.078,0.013l-0.133,0.013c0.008,0.037,0.014,0.073,0.014,0.11
			c0,0.038-0.004,0.074-0.014,0.105c-0.008,0.03-0.035,0.067-0.057,0.089c-0.029,0.031-0.059,0.058-0.094,0.074
			c-0.033,0.018-0.072,0.024-0.109,0.027c-0.039,0.002-0.078,0-0.115-0.014s-0.072-0.037-0.105-0.064
			c-0.039,0.01-0.08,0.017-0.119,0.021s-0.074,0.004-0.109,0c-0.041-0.011-0.082-0.024-0.119-0.04
			c-0.039-0.016-0.076-0.035-0.111-0.057c-0.143,0.084-0.303,0.164-0.391,0.313c-0.049,0.067-0.061,0.145-0.07,0.225
			c-0.008,0.1,0.018,0.203,0.061,0.295c0.016,0.027,0.027-0.097,0.074-0.113c0.082-0.066,0.182-0.114,0.283-0.141
			c0.086-0.045,0.074,0.002,0.039,0.069c-0.008,0.036-0.055,0.17,0.008,0.103c0.287-0.127,0.605-0.152,0.914-0.176
			c0.447-0.048,0.898-0.058,1.348-0.063c0.424,0.006,0.846,0.012,1.27,0.026c0.201,0.006,0.404,0.052,0.604,0.018
			c0.049-0.012,0.123-0.016,0.15-0.044c-0.09-0.052-0.195-0.054-0.295-0.066h-0.807c-0.225-0.021-0.459-0.024-0.67-0.11
			c-0.057-0.021-0.109-0.075-0.162-0.018c-0.08,0.028-0.166,0.049-0.252,0.053c-0.148,0.013-0.295-0.019-0.434-0.074
			c0.1-0.137,0.217-0.256,0.326-0.383c-0.088-0.015-0.172-0.032-0.26-0.054C-27.28-24.063-27.138-24.182-26.987-24.295"/>
		<path clip-path="url(#SVGID_12_)" fill="#FEC50C" d="M-20.399-22.833c-0.307,0.184-0.539-0.142-0.797-0.24
			c-0.184,0.099-0.199,0.433-0.371,0.589c-0.203,0.233-0.455-0.064-0.436-0.295c-0.246,0.207-0.369,0.674-0.764,0.612
			c-0.189-0.153-0.328-0.474-0.471-0.109c-0.117,0.179-0.428,0.433-0.59,0.163c-0.049-0.238-0.168-0.518-0.299-0.14
			c-0.088,0.268-0.373,0.465-0.648,0.348c-0.152-0.124,0.121-0.581-0.072-0.549c-0.287,0.19-0.455,0.663-0.857,0.625
			c-0.154-0.175,0.096-0.472-0.076-0.666c-0.201,0.259-0.426,0.639-0.773,0.666c-0.17-0.138,0.006-0.529-0.104-0.587
			c-0.357,0.215-0.734,0.598-1.186,0.478c0.176-0.672,0.91-0.907,1.527-0.96c1.061-0.13,2.178,0.11,3.199-0.272
			c0.164-0.102,0.564-0.243,0.422-0.477c-0.125-0.184,0.328-0.112,0.373-0.327c-0.027-0.271,0.207-0.233,0.438-0.258
			c1.031-0.045,2.049,0.172,3.078,0.209c0.078,0.501-0.479,0.854-0.926,0.698c-0.213,0.035-0.533-0.491-0.471-0.108
			C-20.245-23.233-20.216-22.967-20.399-22.833 M-29.175-23.86c0.24,0.219,0.406-0.041,0.629-0.136
			c0.75-0.257,1.402-0.707,2.047-1.157c0.391-0.322,0.729-0.74,1.252-0.846c1.021-0.309,2.109-0.271,3.135-0.557
			c0.781-1.07,2.107-1.451,3.219-2.066c0.25-0.077,0.346-0.283,0.426-0.51c0.424-0.67,1.002-1.264,1.686-1.668
			c0.324-0.178,0.711-0.279,1.076-0.198c-0.025,0.437-0.275,0.823-0.578,1.124c0.246-0.005,0.459-0.161,0.709-0.153
			c0.086,0.448-0.398,0.683-0.654,0.961c0.143,0.033,0.691,0.075,0.393,0.218c-0.381,0.266-0.816,0.446-1.168,0.754
			c0.324,0.058,0.361,0.127,0.031,0.244c-0.178,0.121-0.521,0.164-0.555,0.399c0.244,0.151-0.113,0.3-0.25,0.349
			c-0.266,0.063-0.543,0.178-0.191,0.377c-0.133,0.201-0.418,0.244-0.65,0.225c0.07,0.227,0.174,0.48-0.123,0.581
			c-0.66,0.5-1.436,0.864-2.268,0.946c1.039,0.08,2.107-0.112,2.994-0.678c0.117-0.138,0.732-0.287,0.389-0.402
			c-0.162-0.068-0.508-0.143-0.533-0.267c0.482-0.296,1.086-0.19,1.604-0.366c0.014-0.168-0.393-0.121-0.545-0.16
			c-0.361-0.028-0.34-0.121,0.01-0.155c0.439-0.117,0.939-0.14,1.311-0.427c-0.303-0.141-0.682-0.018-1.004-0.131
			c0.545-0.24,1.189-0.264,1.682-0.623c0.223-0.248-0.287-0.17-0.436-0.164c-0.303,0.053-0.441-0.093-0.1-0.219
			c0.588-0.432,1.33-0.714,1.744-1.341c0.096-0.14,0.229-0.563-0.082-0.411c-0.41,0.137-0.771,0.598-1.238,0.454
			c0.92-0.713,1.795-1.524,2.424-2.51c0.033-0.285-0.414-0.315-0.529-0.093c-0.592,0.57-1.125,1.242-1.883,1.599
			c0.725-0.699,1.324-1.526,1.846-2.385c0.111-0.255,0.414-0.563,0.25-0.847c-0.264-0.218-0.594-0.018-0.73,0.243
			c-0.459,0.599-0.807,1.3-1.396,1.787c0.516-0.985,1.051-2.037,1.064-3.175c-0.002-0.234-0.049-0.579-0.367-0.535
			c-0.252,0.045-0.191,0.422-0.297,0.613c-0.229,0.777-0.336,1.62-0.805,2.301c0.104-0.632,0.289-1.291,0.146-1.929
			c-0.064-0.285-0.525-0.162-0.467,0.12c-0.549,2.785-2.42,5.224-4.865,6.633c-1.119,0.634-2.369,1.042-3.643,1.227
			c-0.342,0.075-0.713,0.031-1.039,0.148c-0.793,0.607-1.271,1.625-2.277,1.943c-0.449,0.224-1.035,0.269-1.357,0.687
			C-29.169-23.981-29.175-23.918-29.175-23.86"/>
		<path clip-path="url(#SVGID_12_)" fill="#FEC50C" d="M-26.171-26.686c-0.146,0.269-0.234,0.577-0.426,0.818
			c-0.572-0.521-1.402-0.504-2.129-0.539c-0.6-0.031-1.252-0.087-1.717-0.515c-0.488-0.4-0.887-0.92-1.432-1.244
			c-0.498-0.135-1-0.306-1.4-0.646c-0.855-0.699-1.346-1.732-2.182-2.451c-0.158-0.157-0.348-0.279-0.525-0.412
			c-0.17,0.041-0.094,0.408-0.301,0.221c-0.113-0.08-0.396-0.088-0.42,0.023c0.254,0.338,0.51,0.722,0.545,1.152
			c-0.174,0.018-0.484-0.037-0.57,0.028c0.23,0.347,0.529,0.655,0.865,0.899c-0.162,0.026-0.48,0.013-0.541,0.078
			c0.334,0.272,0.691,0.551,1.131,0.621c0.09,0.118-0.131,0.346,0.055,0.447c0.107,0.044,0.463,0.118,0.217,0.24
			c-0.168,0.113-0.104,0.377,0.109,0.371c0.137,0.07,0.441,0.087,0.465,0.207c-0.119,0.121-0.494,0.267-0.176,0.382
			c0.299,0.165,0.637,0.272,0.977,0.284c-0.17,0.144-0.381,0.225-0.555,0.36c0.785,0.46,1.654,0.763,2.514,1.054
			c0.344,0.115,0.689,0.222,1.043,0.289c-1.029-0.061-2.027-0.365-2.967-0.783c-0.484-0.213-0.975-0.42-1.475-0.604
			c0.219-0.113,0.471-0.142,0.699-0.24c-0.473-0.095-0.986-0.125-1.4-0.384c0.064-0.112,0.305-0.118,0.438-0.176
			c0.25-0.06,0.404-0.133,0.053-0.155c-0.355-0.096-0.764-0.053-1.076-0.267c0.02-0.129,0.348-0.084,0.48-0.14
			c0.17-0.029,0.355-0.054,0.49-0.166c-0.551-0.229-1.27-0.067-1.699-0.553c-0.1-0.185,0.309-0.035,0.424-0.066
			c0.295,0,0.611,0.094,0.893-0.025c-0.801-0.352-1.658-0.681-2.27-1.332c-0.068-0.104-0.271-0.39-0.107-0.425
			c0.475,0.063,0.82,0.582,1.328,0.501c0.068-0.091-0.295-0.241-0.385-0.371c-0.742-0.636-1.461-1.327-1.982-2.16
			c-0.035-0.279,0.402-0.32,0.518-0.104c0.566,0.546,1.08,1.183,1.785,1.556c0.252,0.122-0.143-0.145-0.195-0.24
			c-0.652-0.758-1.275-1.558-1.73-2.451c-0.082-0.16-0.217-0.451,0.027-0.537c0.244-0.123,0.486,0.045,0.609,0.254
			c0.48,0.605,0.834,1.324,1.432,1.828c-0.508-0.987-1.053-2.027-1.066-3.166c0.012-0.22,0.027-0.554,0.326-0.545
			c0.25-0.037,0.211,0.284,0.293,0.438c0.248,0.835,0.355,1.74,0.852,2.477c-0.109-0.619-0.271-1.258-0.164-1.888
			c0.025-0.207,0.258-0.269,0.41-0.144c0.123,0.301,0.148,0.672,0.26,0.994c0.637,2.179,2.068,4.097,3.934,5.383
			c1.535,1.053,3.357,1.682,5.217,1.792C-26.507-26.703-26.339-26.697-26.171-26.686"/>
		<path clip-path="url(#SVGID_12_)" fill="#FEC50C" d="M-28.53-23.997c0.055,0,0.1,0.045,0.1,0.1c0,0.057-0.045,0.1-0.1,0.1
			c-0.057,0-0.102-0.043-0.102-0.1C-28.632-23.952-28.587-23.997-28.53-23.997"/>
		<path clip-path="url(#SVGID_12_)" fill="#FEC50C" d="M-28.54-23.954c0.023,0,0.041,0.018,0.041,0.041
			c0,0.021-0.018,0.041-0.041,0.041s-0.041-0.02-0.041-0.041C-28.581-23.936-28.563-23.954-28.54-23.954"/>
		<circle clip-path="url(#SVGID_12_)" fill="none" stroke="#00AFCA" stroke-width="0.381" cx="-28.54" cy="-23.913" r="0.041"/>
		<path clip-path="url(#SVGID_12_)" fill="#FEC50C" d="M-66.61-51.313c0,0-0.408-0.342-0.545-0.17
			c-0.223,0.275,0.682,1.648,0.682,2.132c0,0.794-0.527,1.01-1.182,1.123c-0.439,0.076-1.154-0.032-1.154-0.032
			c0.135-0.181,0.223-0.234,0.449-0.249c-0.252-0.131-0.51-0.415-0.51-0.858c0-0.683,0.281-0.964,0.281-1.734
			c0-0.427-0.35-0.97-0.35-0.97c0.617,0.062,0.926,0.635,0.75,1.093c0.1,0.014,0.189-0.008,0.266-0.081
			c0.045,0.127-0.027,0.274-0.123,0.401c0.078,0.041,0.135,0.018,0.258-0.009c-0.012,0.131-0.09,0.27-0.283,0.401
			c0.559-0.146,0.9,0.243,0.9,0.648c0,0.308-0.215,0.527-0.426,0.527c-0.068,0-0.166-0.028-0.225-0.07
			c-0.039,0.084-0.018,0.197,0.023,0.281c-0.154-0.04-0.252-0.132-0.184-0.322c-0.117-0.011-0.211-0.051-0.275-0.127
			c0.064-0.083,0.164-0.131,0.275-0.127c-0.086-0.178,0.012-0.276,0.15-0.358c0,0-0.088,0.358,0.139,0.358
			c0.102,0,0.195-0.032,0.195-0.184c0-0.132-0.115-0.313-0.379-0.302c-0.266,0.013-0.48,0.184-0.48,0.606
			c0,0.39,0.314,0.584,0.729,0.597c0.375,0.012,0.656-0.191,0.656-0.576c0-0.515-0.74-1.684-0.74-2.141
			c0-0.344,0.309-0.535,0.609-0.535c0.393,0,0.723,0.388,0.723,0.388L-66.61-51.313z"/>
		<path clip-path="url(#SVGID_12_)" fill="#FEC50C" d="M-66.524-42.038c0,0.858-0.771,1.299-1.375,1.299
			c-0.816,0-1.25-0.487-1.25-1.125c0-0.362,0.066-0.59,0.232-0.936c0,0,1.346-2.796,1.869-3.878
			c0.064-0.134,0.086-0.288,0.086-0.513c0-0.349-0.338-0.633-0.691-0.642c-0.322-0.008-0.672,0.302-0.672,0.653
			c0,0.427,0.221,0.617,0.447,0.617c0.281,0,0.393-0.115,0.393-0.313c0-0.137-0.066-0.195-0.162-0.195
			c-0.24,0-0.172,0.322-0.172,0.322c-0.119-0.025-0.219-0.147-0.162-0.3c-0.086-0.019-0.168-0.065-0.232-0.138
			c0.064-0.063,0.139-0.111,0.232-0.127c-0.057-0.187,0.02-0.277,0.182-0.315c-0.033,0.072-0.033,0.138-0.021,0.199
			c0.254-0.072,0.646,0.043,0.646,0.485c0,0.438-0.305,0.808-0.875,0.716c0.135,0.063,0.205,0.196,0.219,0.346
			c-0.104-0.041-0.219-0.046-0.219-0.046c0.066,0.117,0.16,0.219,0.156,0.45c-0.107-0.048-0.205-0.138-0.34-0.081
			c0.213,0.419-0.049,0.995-0.715,1.131c0.244-0.285,0.363-0.593,0.363-0.9c0-0.994-0.275-1.16-0.275-1.853
			c0-0.289,0.146-0.601,0.441-0.813v0.012c-0.193-0.053-0.318-0.148-0.391-0.278c0.445-0.126,1.092-0.124,1.439,0.013
			c0.398,0.047,0.678,0.353,0.76,0.508s0.24,0.718,0,1.224c-0.266,0.554-1.512,3.196-1.9,4.028
			c-0.082,0.176-0.133,0.362-0.133,0.564c0,0.509,0.467,0.688,0.73,0.688c0.318,0,0.641-0.241,0.641-0.543
			c0-0.19-0.104-0.306-0.254-0.306c-0.357,0-0.336,0.304-0.266,0.496c-0.221-0.1-0.352-0.278-0.314-0.467
			c-0.127-0.019-0.246-0.077-0.357-0.202c0.086-0.109,0.193-0.193,0.357-0.197c-0.072-0.291,0.123-0.416,0.314-0.483
			c-0.059,0.214-0.1,0.461,0.266,0.461c0.268,0,0.477,0.047,0.6,0.22c0.006-0.23,0.029-1.143,0.029-1.143
			c0.014-0.342-0.459-0.334-0.76-0.231c0.111-0.394,0.346-0.608,0.885-0.554c-0.131-0.055-0.27-0.178-0.27-0.415
			c0-0.321,0.26-0.677,0.432-0.783L-66.524-42.038z"/>
		<path clip-path="url(#SVGID_12_)" fill="#FEC50C" d="M-66.524-39.465c0-0.857-0.771-1.297-1.375-1.297
			c-0.816,0-1.25,0.486-1.25,1.125c0,0.361,0.066,0.588,0.232,0.935c0,0,1.346,2.796,1.869,3.878
			c0.064,0.134,0.086,0.288,0.086,0.513c0,0.349-0.338,0.632-0.691,0.642c-0.322,0.008-0.672-0.301-0.672-0.652
			c0-0.427,0.221-0.618,0.447-0.618c0.281,0,0.393,0.115,0.393,0.312c0,0.138-0.066,0.197-0.162,0.197
			c-0.24,0-0.172-0.324-0.172-0.324c-0.119,0.026-0.219,0.148-0.162,0.301c-0.086,0.019-0.168,0.064-0.232,0.138
			c0.064,0.063,0.139,0.111,0.232,0.127c-0.057,0.187,0.02,0.277,0.182,0.315c-0.033-0.072-0.033-0.137-0.021-0.199
			c0.254,0.072,0.646-0.043,0.646-0.485c0-0.438-0.305-0.808-0.875-0.716c0.135-0.064,0.205-0.197,0.219-0.346
			c-0.104,0.041-0.219,0.046-0.219,0.046c0.066-0.117,0.16-0.22,0.156-0.45c-0.107,0.048-0.205,0.137-0.34,0.081
			c0.213-0.419-0.049-0.995-0.715-1.131c0.244,0.285,0.363,0.594,0.363,0.899c0,0.994-0.275,1.162-0.275,1.854
			c0,0.289,0.146,0.602,0.441,0.813v-0.011c-0.193,0.052-0.318,0.148-0.391,0.278c0.445,0.126,1.092,0.124,1.439-0.014
			c0.398-0.045,0.678-0.352,0.76-0.508c0.082-0.154,0.24-0.717,0-1.223c-0.266-0.554-1.512-3.197-1.9-4.027
			c-0.082-0.177-0.133-0.363-0.133-0.565c0-0.509,0.467-0.687,0.73-0.687c0.318,0,0.641,0.24,0.641,0.541
			c0,0.191-0.104,0.307-0.254,0.307c-0.357,0-0.336-0.305-0.266-0.496c-0.221,0.1-0.352,0.279-0.314,0.467
			c-0.127,0.018-0.246,0.077-0.357,0.202c0.086,0.11,0.193,0.194,0.357,0.196c-0.072,0.293,0.123,0.416,0.314,0.484
			c-0.059-0.214-0.1-0.461,0.266-0.461c0.268,0,0.477-0.047,0.6-0.22c0.006,0.231,0.029,1.143,0.029,1.143
			c0.014,0.343-0.459,0.333-0.76,0.231c0.111,0.394,0.346,0.607,0.885,0.554c-0.131,0.056-0.27,0.179-0.27,0.415
			c0,0.322,0.26,0.677,0.432,0.783L-66.524-39.465z"/>
		<path clip-path="url(#SVGID_12_)" fill="#FEC50C" d="M-66.61-51.313c0,0,0.406-0.342,0.545-0.17
			c0.223,0.275-0.684,1.648-0.684,2.132c0,0.794,0.529,1.01,1.184,1.123c0.439,0.076,1.154-0.032,1.154-0.032
			c-0.135-0.181-0.223-0.234-0.449-0.249c0.252-0.131,0.508-0.415,0.508-0.858c0-0.683-0.279-0.964-0.279-1.734
			c0-0.427,0.35-0.97,0.35-0.97c-0.619,0.062-0.926,0.635-0.752,1.093c-0.098,0.014-0.188-0.008-0.264-0.081
			c-0.045,0.127,0.025,0.274,0.121,0.401c-0.076,0.041-0.133,0.018-0.256-0.009c0.012,0.131,0.09,0.27,0.281,0.401
			c-0.557-0.146-0.898,0.243-0.898,0.648c0,0.308,0.215,0.527,0.426,0.527c0.066,0,0.166-0.028,0.223-0.07
			c0.039,0.084,0.02,0.197-0.021,0.281c0.154-0.04,0.252-0.132,0.182-0.322c0.119-0.011,0.213-0.051,0.277-0.127
			c-0.064-0.083-0.164-0.131-0.277-0.127c0.086-0.178-0.01-0.276-0.15-0.358c0,0,0.09,0.358-0.137,0.358
			c-0.102,0-0.195-0.032-0.195-0.184c0-0.132,0.115-0.313,0.379-0.302c0.266,0.013,0.48,0.184,0.48,0.606
			c0,0.39-0.314,0.584-0.729,0.597c-0.375,0.012-0.656-0.191-0.656-0.576c0-0.515,0.74-1.684,0.74-2.141
			c0-0.344-0.309-0.535-0.611-0.535c-0.391,0-0.721,0.388-0.721,0.388L-66.61-51.313z"/>
		<path clip-path="url(#SVGID_12_)" fill="#FEC50C" d="M-66.696-42.038c0,0.858,0.77,1.299,1.375,1.299
			c0.814,0,1.25-0.487,1.25-1.125c0-0.362-0.066-0.59-0.234-0.936c0,0-1.344-2.796-1.867-3.878
			c-0.064-0.134-0.086-0.288-0.086-0.513c0-0.349,0.336-0.633,0.691-0.642c0.32-0.008,0.672,0.302,0.672,0.653
			c0,0.427-0.221,0.617-0.449,0.617c-0.279,0-0.391-0.115-0.391-0.313c0-0.137,0.066-0.195,0.162-0.195
			c0.238,0,0.172,0.322,0.172,0.322c0.119-0.025,0.217-0.147,0.162-0.3c0.086-0.019,0.168-0.065,0.232-0.138
			c-0.064-0.063-0.139-0.111-0.232-0.127c0.055-0.187-0.02-0.277-0.184-0.315c0.033,0.072,0.035,0.138,0.023,0.199
			c-0.254-0.072-0.646,0.043-0.646,0.485c0,0.438,0.305,0.808,0.875,0.716c-0.137,0.063-0.205,0.196-0.219,0.346
			c0.104-0.041,0.219-0.046,0.219-0.046c-0.066,0.117-0.16,0.219-0.156,0.45c0.105-0.048,0.203-0.138,0.34-0.081
			c-0.213,0.419,0.049,0.995,0.715,1.131c-0.244-0.285-0.363-0.593-0.363-0.9c0-0.994,0.275-1.16,0.275-1.853
			c0-0.289-0.148-0.601-0.443-0.813v0.012c0.195-0.053,0.32-0.148,0.393-0.278c-0.445-0.126-1.092-0.124-1.439,0.013
			c-0.4,0.047-0.678,0.353-0.76,0.508s-0.242,0.718,0,1.224c0.264,0.554,1.512,3.196,1.898,4.028
			c0.084,0.176,0.135,0.362,0.135,0.564c0,0.509-0.469,0.688-0.732,0.688c-0.316,0-0.639-0.241-0.639-0.543
			c0-0.19,0.104-0.306,0.254-0.306c0.357,0,0.336,0.304,0.264,0.496c0.223-0.1,0.354-0.278,0.316-0.467
			c0.127-0.019,0.246-0.077,0.357-0.202c-0.088-0.109-0.193-0.193-0.357-0.197c0.072-0.291-0.123-0.416-0.316-0.483
			c0.061,0.214,0.1,0.461-0.264,0.461c-0.268,0-0.477,0.047-0.6,0.22c-0.008-0.23-0.029-1.143-0.029-1.143
			c-0.016-0.342,0.459-0.334,0.76-0.231c-0.113-0.394-0.346-0.608-0.885-0.554c0.131-0.055,0.27-0.178,0.27-0.415
			c0-0.321-0.26-0.677-0.432-0.783L-66.696-42.038z"/>
		<path clip-path="url(#SVGID_12_)" fill="#FEC50C" d="M-66.696-39.465c0-0.857,0.77-1.297,1.375-1.297
			c0.814,0,1.25,0.486,1.25,1.125c0,0.361-0.066,0.588-0.234,0.935c0,0-1.344,2.796-1.867,3.878
			c-0.064,0.134-0.086,0.288-0.086,0.513c0,0.349,0.336,0.632,0.691,0.642c0.32,0.008,0.672-0.301,0.672-0.652
			c0-0.427-0.221-0.618-0.449-0.618c-0.279,0-0.391,0.115-0.391,0.312c0,0.138,0.066,0.197,0.162,0.197
			c0.238,0,0.172-0.324,0.172-0.324c0.119,0.026,0.217,0.148,0.162,0.301c0.086,0.019,0.168,0.064,0.232,0.138
			c-0.064,0.063-0.139,0.111-0.232,0.127c0.055,0.187-0.02,0.277-0.184,0.315c0.033-0.072,0.035-0.137,0.023-0.199
			c-0.254,0.072-0.646-0.043-0.646-0.485c0-0.438,0.305-0.808,0.875-0.716c-0.137-0.064-0.205-0.197-0.219-0.346
			c0.104,0.041,0.219,0.046,0.219,0.046c-0.066-0.117-0.16-0.22-0.156-0.45c0.105,0.048,0.203,0.137,0.34,0.081
			c-0.213-0.419,0.049-0.995,0.715-1.131c-0.244,0.285-0.363,0.594-0.363,0.899c0,0.994,0.275,1.162,0.275,1.854
			c0,0.289-0.148,0.602-0.443,0.813v-0.011c0.195,0.052,0.32,0.148,0.393,0.278c-0.445,0.126-1.092,0.124-1.439-0.014
			c-0.4-0.045-0.678-0.352-0.76-0.508c-0.082-0.154-0.242-0.717,0-1.223c0.264-0.554,1.512-3.197,1.898-4.027
			c0.084-0.177,0.135-0.363,0.135-0.565c0-0.509-0.469-0.687-0.732-0.687c-0.316,0-0.639,0.24-0.639,0.541
			c0,0.191,0.104,0.307,0.254,0.307c0.357,0,0.336-0.305,0.264-0.496c0.223,0.1,0.354,0.279,0.316,0.467
			c0.127,0.018,0.246,0.077,0.357,0.202c-0.088,0.11-0.193,0.194-0.357,0.196c0.072,0.293-0.123,0.416-0.316,0.484
			c0.061-0.214,0.1-0.461-0.264-0.461c-0.268,0-0.477-0.047-0.6-0.22c-0.008,0.231-0.029,1.143-0.029,1.143
			c-0.016,0.343,0.459,0.333,0.76,0.231c-0.113,0.394-0.346,0.607-0.885,0.554c0.131,0.056,0.27,0.179,0.27,0.415
			c0,0.322-0.26,0.677-0.432,0.783L-66.696-39.465z"/>
		<path clip-path="url(#SVGID_12_)" fill="#FEC50C" d="M-66.61-15.172c0,0-0.408,0.342-0.545,0.17
			c-0.223-0.275,0.682-1.648,0.682-2.133c0-0.793-0.527-1.01-1.182-1.123c-0.439-0.075-1.154,0.033-1.154,0.033
			c0.135,0.181,0.223,0.233,0.449,0.248c-0.252,0.131-0.51,0.416-0.51,0.858c0,0.683,0.281,0.964,0.281,1.733
			c0,0.428-0.35,0.971-0.35,0.971c0.617-0.063,0.926-0.635,0.75-1.094c0.1-0.014,0.189,0.009,0.266,0.082
			c0.045-0.127-0.027-0.274-0.123-0.401c0.078-0.041,0.135-0.017,0.258,0.009c-0.012-0.131-0.09-0.27-0.283-0.4
			c0.559,0.145,0.9-0.243,0.9-0.649c0-0.308-0.215-0.526-0.426-0.526c-0.068,0-0.166,0.027-0.225,0.069
			c-0.039-0.084-0.018-0.197,0.023-0.282c-0.154,0.041-0.252,0.133-0.184,0.323c-0.117,0.011-0.211,0.051-0.275,0.127
			c0.064,0.083,0.164,0.131,0.275,0.127c-0.086,0.179,0.012,0.277,0.15,0.358c0,0-0.088-0.358,0.139-0.358
			c0.102,0,0.195,0.033,0.195,0.185c0,0.131-0.115,0.312-0.379,0.301c-0.266-0.012-0.48-0.184-0.48-0.606
			c0-0.39,0.314-0.584,0.729-0.596c0.375-0.013,0.656,0.19,0.656,0.576c0,0.514-0.74,1.683-0.74,2.14
			c0,0.344,0.309,0.535,0.609,0.535c0.393,0,0.723-0.389,0.723-0.389L-66.61-15.172z"/>
		<path clip-path="url(#SVGID_12_)" fill="#FEC50C" d="M-66.524-24.448c0-0.858-0.771-1.299-1.375-1.299
			c-0.816,0-1.25,0.488-1.25,1.125c0,0.363,0.066,0.59,0.232,0.936c0,0,1.346,2.796,1.869,3.878
			c0.064,0.136,0.086,0.288,0.086,0.513c0,0.349-0.338,0.633-0.691,0.642c-0.322,0.008-0.672-0.302-0.672-0.652
			c0-0.427,0.221-0.618,0.447-0.618c0.281,0,0.393,0.115,0.393,0.313c0,0.137-0.066,0.195-0.162,0.195
			c-0.24,0-0.172-0.322-0.172-0.322c-0.119,0.025-0.219,0.148-0.162,0.3c-0.086,0.019-0.168,0.065-0.232,0.138
			c0.064,0.063,0.139,0.111,0.232,0.127c-0.057,0.187,0.02,0.277,0.182,0.315c-0.033-0.072-0.033-0.138-0.021-0.199
			c0.254,0.073,0.646-0.043,0.646-0.485c0-0.438-0.305-0.808-0.875-0.715c0.135-0.064,0.205-0.197,0.219-0.347
			c-0.104,0.041-0.219,0.046-0.219,0.046c0.066-0.117,0.16-0.219,0.156-0.449c-0.107,0.047-0.205,0.137-0.34,0.08
			c0.213-0.419-0.049-0.994-0.715-1.131c0.244,0.285,0.363,0.594,0.363,0.9c0,0.994-0.275,1.162-0.275,1.853
			c0,0.289,0.146,0.601,0.441,0.813v-0.012c-0.193,0.053-0.318,0.148-0.391,0.278c0.445,0.126,1.092,0.124,1.439-0.013
			c0.398-0.046,0.678-0.352,0.76-0.508c0.082-0.155,0.24-0.717,0-1.224c-0.266-0.554-1.512-3.196-1.9-4.028
			c-0.082-0.176-0.133-0.362-0.133-0.564c0-0.509,0.467-0.688,0.73-0.688c0.318,0,0.641,0.242,0.641,0.543
			c0,0.19-0.104,0.306-0.254,0.306c-0.357,0-0.336-0.304-0.266-0.496c-0.221,0.101-0.352,0.279-0.314,0.467
			c-0.127,0.019-0.246,0.077-0.357,0.202c0.086,0.11,0.193,0.194,0.357,0.197c-0.072,0.292,0.123,0.416,0.314,0.484
			c-0.059-0.215-0.1-0.461,0.266-0.461c0.268,0,0.477-0.048,0.6-0.221c0.006,0.23,0.029,1.143,0.029,1.143
			c0.014,0.344-0.459,0.334-0.76,0.231c0.111,0.394,0.346,0.608,0.885,0.554c-0.131,0.055-0.27,0.178-0.27,0.415
			c0,0.322,0.26,0.677,0.432,0.783L-66.524-24.448z"/>
		<path clip-path="url(#SVGID_12_)" fill="#FEC50C" d="M-66.524-27.02c0,0.857-0.771,1.298-1.375,1.298
			c-0.816,0-1.25-0.487-1.25-1.125c0-0.362,0.066-0.589,0.232-0.936c0,0,1.346-2.796,1.869-3.878
			c0.064-0.134,0.086-0.288,0.086-0.513c0-0.349-0.338-0.632-0.691-0.642c-0.322-0.008-0.672,0.302-0.672,0.653
			c0,0.427,0.221,0.617,0.447,0.617c0.281,0,0.393-0.115,0.393-0.312c0-0.138-0.066-0.196-0.162-0.196
			c-0.24,0-0.172,0.323-0.172,0.323c-0.119-0.026-0.219-0.148-0.162-0.301c-0.086-0.019-0.168-0.064-0.232-0.138
			c0.064-0.063,0.139-0.11,0.232-0.127c-0.057-0.187,0.02-0.276,0.182-0.315c-0.033,0.072-0.033,0.138-0.021,0.199
			c0.254-0.072,0.646,0.043,0.646,0.485c0,0.438-0.305,0.808-0.875,0.716c0.135,0.064,0.205,0.197,0.219,0.346
			c-0.104-0.041-0.219-0.046-0.219-0.046c0.066,0.117,0.16,0.22,0.156,0.45c-0.107-0.048-0.205-0.137-0.34-0.081
			c0.213,0.419-0.049,0.995-0.715,1.131c0.244-0.284,0.363-0.593,0.363-0.899c0-0.994-0.275-1.161-0.275-1.854
			c0-0.289,0.146-0.601,0.441-0.813v0.011c-0.193-0.052-0.318-0.147-0.391-0.278c0.445-0.126,1.092-0.124,1.439,0.014
			c0.398,0.045,0.678,0.352,0.76,0.508c0.082,0.154,0.24,0.717,0,1.223c-0.266,0.555-1.512,3.197-1.9,4.028
			c-0.082,0.176-0.133,0.362-0.133,0.565c0,0.508,0.467,0.687,0.73,0.687c0.318,0,0.641-0.241,0.641-0.542
			c0-0.191-0.104-0.307-0.254-0.307c-0.357,0-0.336,0.305-0.266,0.496c-0.221-0.1-0.352-0.279-0.314-0.467
			c-0.127-0.018-0.246-0.077-0.357-0.202c0.086-0.11,0.193-0.194,0.357-0.196c-0.072-0.293,0.123-0.416,0.314-0.484
			c-0.059,0.214-0.1,0.461,0.266,0.461c0.268,0,0.477,0.047,0.6,0.22c0.006-0.23,0.029-1.143,0.029-1.143
			c0.014-0.343-0.459-0.333-0.76-0.231c0.111-0.394,0.346-0.607,0.885-0.554c-0.131-0.055-0.27-0.178-0.27-0.415
			c0-0.32,0.26-0.677,0.432-0.783L-66.524-27.02z"/>
		<path clip-path="url(#SVGID_12_)" fill="#FEC50C" d="M-66.61-15.172c0,0,0.406,0.342,0.545,0.17
			c0.223-0.275-0.684-1.648-0.684-2.133c0-0.793,0.529-1.01,1.184-1.123c0.439-0.075,1.154,0.033,1.154,0.033
			c-0.135,0.181-0.223,0.233-0.449,0.248c0.252,0.131,0.508,0.416,0.508,0.858c0,0.683-0.279,0.964-0.279,1.733
			c0,0.428,0.35,0.971,0.35,0.971c-0.619-0.063-0.926-0.635-0.752-1.094c-0.098-0.014-0.188,0.009-0.264,0.082
			c-0.045-0.127,0.025-0.274,0.121-0.401c-0.076-0.041-0.133-0.017-0.256,0.009c0.012-0.131,0.09-0.27,0.281-0.4
			c-0.557,0.145-0.898-0.243-0.898-0.649c0-0.308,0.215-0.526,0.426-0.526c0.066,0,0.166,0.027,0.223,0.069
			c0.039-0.084,0.02-0.197-0.021-0.282c0.154,0.041,0.252,0.133,0.182,0.323c0.119,0.011,0.213,0.051,0.277,0.127
			c-0.064,0.083-0.164,0.131-0.277,0.127c0.086,0.179-0.01,0.277-0.15,0.358c0,0,0.09-0.358-0.137-0.358
			c-0.102,0-0.195,0.033-0.195,0.185c0,0.131,0.115,0.312,0.379,0.301c0.266-0.012,0.48-0.184,0.48-0.606
			c0-0.39-0.314-0.584-0.729-0.596c-0.375-0.013-0.656,0.19-0.656,0.576c0,0.514,0.74,1.683,0.74,2.14
			c0,0.344-0.309,0.535-0.611,0.535c-0.391,0-0.721-0.389-0.721-0.389L-66.61-15.172z"/>
		<path clip-path="url(#SVGID_12_)" fill="#FEC50C" d="M-66.696-24.448c0-0.858,0.77-1.299,1.375-1.299
			c0.814,0,1.25,0.488,1.25,1.125c0,0.363-0.066,0.59-0.234,0.936c0,0-1.344,2.796-1.867,3.878
			c-0.064,0.136-0.086,0.288-0.086,0.513c0,0.349,0.336,0.633,0.691,0.642c0.32,0.008,0.672-0.302,0.672-0.652
			c0-0.427-0.221-0.618-0.449-0.618c-0.279,0-0.391,0.115-0.391,0.313c0,0.137,0.066,0.195,0.162,0.195
			c0.238,0,0.172-0.322,0.172-0.322c0.119,0.025,0.217,0.148,0.162,0.3c0.086,0.019,0.168,0.065,0.232,0.138
			c-0.064,0.063-0.139,0.111-0.232,0.127c0.055,0.187-0.02,0.277-0.184,0.315c0.033-0.072,0.035-0.138,0.023-0.199
			c-0.254,0.073-0.646-0.043-0.646-0.485c0-0.438,0.305-0.808,0.875-0.715c-0.137-0.064-0.205-0.197-0.219-0.347
			c0.104,0.041,0.219,0.046,0.219,0.046c-0.066-0.117-0.16-0.219-0.156-0.449c0.105,0.047,0.203,0.137,0.34,0.08
			c-0.213-0.419,0.049-0.994,0.715-1.131c-0.244,0.285-0.363,0.594-0.363,0.9c0,0.994,0.275,1.162,0.275,1.853
			c0,0.289-0.148,0.601-0.443,0.813v-0.012c0.195,0.053,0.32,0.148,0.393,0.278c-0.445,0.126-1.092,0.124-1.439-0.013
			c-0.4-0.046-0.678-0.352-0.76-0.508c-0.082-0.155-0.242-0.717,0-1.224c0.264-0.554,1.512-3.196,1.898-4.028
			c0.084-0.176,0.135-0.362,0.135-0.564c0-0.509-0.469-0.688-0.732-0.688c-0.316,0-0.639,0.242-0.639,0.543
			c0,0.19,0.104,0.306,0.254,0.306c0.357,0,0.336-0.304,0.264-0.496c0.223,0.101,0.354,0.279,0.316,0.467
			c0.127,0.019,0.246,0.077,0.357,0.202c-0.088,0.11-0.193,0.194-0.357,0.197c0.072,0.292-0.123,0.416-0.316,0.484
			c0.061-0.215,0.1-0.461-0.264-0.461c-0.268,0-0.477-0.048-0.6-0.221c-0.008,0.23-0.029,1.143-0.029,1.143
			c-0.016,0.344,0.459,0.334,0.76,0.231c-0.113,0.394-0.346,0.608-0.885,0.554c0.131,0.055,0.27,0.178,0.27,0.415
			c0,0.322-0.26,0.677-0.432,0.783L-66.696-24.448z"/>
		<path clip-path="url(#SVGID_12_)" fill="#FEC50C" d="M-66.696-27.02c0,0.857,0.77,1.298,1.375,1.298
			c0.814,0,1.25-0.487,1.25-1.125c0-0.362-0.066-0.589-0.234-0.936c0,0-1.344-2.796-1.867-3.878
			c-0.064-0.134-0.086-0.288-0.086-0.513c0-0.349,0.336-0.632,0.691-0.642c0.32-0.008,0.672,0.302,0.672,0.653
			c0,0.427-0.221,0.617-0.449,0.617c-0.279,0-0.391-0.115-0.391-0.312c0-0.138,0.066-0.196,0.162-0.196
			c0.238,0,0.172,0.323,0.172,0.323c0.119-0.026,0.217-0.148,0.162-0.301c0.086-0.019,0.168-0.064,0.232-0.138
			c-0.064-0.063-0.139-0.11-0.232-0.127c0.055-0.187-0.02-0.276-0.184-0.315c0.033,0.072,0.035,0.138,0.023,0.199
			c-0.254-0.072-0.646,0.043-0.646,0.485c0,0.438,0.305,0.808,0.875,0.716c-0.137,0.064-0.205,0.197-0.219,0.346
			c0.104-0.041,0.219-0.046,0.219-0.046c-0.066,0.117-0.16,0.22-0.156,0.45c0.105-0.048,0.203-0.137,0.34-0.081
			c-0.213,0.419,0.049,0.995,0.715,1.131c-0.244-0.284-0.363-0.593-0.363-0.899c0-0.994,0.275-1.161,0.275-1.854
			c0-0.289-0.148-0.601-0.443-0.813v0.011c0.195-0.052,0.32-0.147,0.393-0.278c-0.445-0.126-1.092-0.124-1.439,0.014
			c-0.4,0.045-0.678,0.352-0.76,0.508c-0.082,0.154-0.242,0.717,0,1.223c0.264,0.555,1.512,3.197,1.898,4.028
			c0.084,0.176,0.135,0.362,0.135,0.565c0,0.508-0.469,0.687-0.732,0.687c-0.316,0-0.639-0.241-0.639-0.542
			c0-0.191,0.104-0.307,0.254-0.307c0.357,0,0.336,0.305,0.264,0.496c0.223-0.1,0.354-0.279,0.316-0.467
			c0.127-0.018,0.246-0.077,0.357-0.202c-0.088-0.11-0.193-0.194-0.357-0.196c0.072-0.293-0.123-0.416-0.316-0.484
			c0.061,0.214,0.1,0.461-0.264,0.461c-0.268,0-0.477,0.047-0.6,0.22c-0.008-0.23-0.029-1.143-0.029-1.143
			c-0.016-0.343,0.459-0.333,0.76-0.231c-0.113-0.394-0.346-0.607-0.885-0.554c0.131-0.055,0.27-0.178,0.27-0.415
			c0-0.32-0.26-0.677-0.432-0.783L-66.696-27.02z"/>
	</g>
</g>
</svg>
