<?xml version="1.0" encoding="utf-8"?>
<!-- Generator: Adobe Illustrator 20.1.0, SVG Export Plug-In . SVG Version: 6.00 Build 0)  -->
<svg version="1.1" id="Layer_5" xmlns="http://www.w3.org/2000/svg" xmlns:xlink="http://www.w3.org/1999/xlink" x="0px" y="0px"
	 width="210px" height="56px" viewBox="0 0 210 56" style="enable-background:new 0 0 210 56;" xml:space="preserve">
<style type="text/css">
	.st0{fill:#C3F6FF;}
	.st1{fill:#4FBDCE;}
	.st2{fill:#872E1A;}
	.st3{fill:#FF3551;}
	.st4{fill:#FFFFFF;}
</style>
<g>
	<g>
		<path class="st0" d="M68.2,23.2c-0.2-0.5-0.7-0.8-1.2-0.6l-0.2,0.1c0,0,0,0,0,0c-1.3,0.4-2.1-0.6-3.6-2.4c-1.4-1.8-3.2-3.9-6-3.9
			c0,0,0,0-0.1,0c-4.6,0-6.2,3.5-7.5,6.1c-0.4,0.8-0.8,1.6-1.2,2.2c-0.3,0.4-1,0.8-1.5,0.6c-0.3-0.1-0.4-0.3-0.5-0.3
			c-0.3-0.5-0.2-1.2,0.1-1.7c0.4-0.5,1-1.2,1.7-1.8c2.1-2,4.9-4.7,3.5-9.1c-0.9-2.7-3.5-3.7-5.6-4.5C44,7,42.8,6.5,42.8,5.2V5
			c0-0.5-0.4-0.9-0.9-0.9c-0.5,0-0.9,0.4-0.9,0.9v0.2c0,1.3-1.2,1.9-3.4,2.7c-2.1,0.8-4.7,1.8-5.6,4.5c-1.4,4.4,1.4,7.1,3.5,9.1
			c0.7,0.6,1.3,1.3,1.7,1.8c0.3,0.4,0.4,1.1,0.1,1.6c-0.1,0.1-0.2,0.3-0.6,0.4c-0.5,0.2-1.2-0.2-1.5-0.6c-0.4-0.5-0.8-1.3-1.2-2.2
			c-1.2-2.6-2.9-6.1-7.5-6.1c0,0,0,0-0.1,0c-2.8,0-4.6,2.2-6,3.9c-1.4,1.8-2.3,2.8-3.6,2.4c0,0,0,0,0,0l-0.2-0.1
			c-0.5-0.2-1,0.1-1.2,0.6c-0.2,0.5,0.1,1,0.6,1.2l0.2,0.1l0,0c1.3,0.4,1.4,1.7,1.5,4c0.1,2.2,0.2,5,2.5,6.7c1.4,1,2.7,1.4,4,1.4
			c2.1,0,4.1-1,5.7-1.9c0.8-0.4,1.6-0.9,2.2-1c0.5-0.1,1.3,0,1.6,0.4c0.1,0.1,0.2,0.3,0.2,0.5c0,0.6-0.5,1.2-1.1,1.3
			c-0.6,0.2-1.5,0.3-2.4,0.5c-2.8,0.4-6.7,0.9-8.1,5.3c-0.9,2.7,0.7,5,1.9,6.9c1.3,1.9,1.9,3.1,1.2,4.2l-0.1,0.1
			c-0.3,0.4-0.2,1,0.2,1.3c0.2,0.1,0.4,0.2,0.5,0.2c0.3,0,0.6-0.1,0.8-0.4l0.1-0.1l0,0c0.8-1.1,2.1-0.8,4.3-0.2
			c1.2,0.3,2.5,0.7,3.9,0.7c1.1,0,2.2-0.3,3.3-1c3.7-2.7,3-6.5,2.5-9.4c-0.2-0.9-0.3-1.8-0.3-2.4c0-0.5,0.4-1.2,0.9-1.4
			c0.3-0.1,0.6,0,0.7,0c0.5,0.2,0.8,0.9,0.8,1.4c0,0.7-0.1,1.5-0.3,2.4c-0.5,2.8-1.2,6.7,2.5,9.4c1,0.7,2.2,1,3.3,1
			c1.3,0,2.7-0.4,3.9-0.7c2.2-0.6,3.5-0.9,4.3,0.2c0,0,0,0,0,0l0.1,0.1c0.2,0.3,0.5,0.4,0.8,0.4c0.2,0,0.4-0.1,0.5-0.2
			c0.4-0.3,0.5-0.9,0.2-1.3l-0.1-0.1c0,0,0,0,0,0c-0.8-1.1-0.1-2.2,1.2-4.2c1.2-1.9,2.8-4.2,1.9-6.9c-1.4-4.4-5.3-4.9-8.1-5.3
			c-0.9-0.1-1.8-0.2-2.4-0.5c-0.5-0.2-1-0.7-1.1-1.3c0-0.3,0.1-0.6,0.2-0.7c0.4-0.4,1.1-0.5,1.6-0.4c0.6,0.2,1.4,0.6,2.2,1
			c1.6,0.9,3.5,1.9,5.7,1.9c1.3,0,2.6-0.4,4-1.4c2.3-1.7,2.4-4.5,2.5-6.7c0.1-2.3,0.2-3.6,1.5-4l0,0l0.2-0.1
			C68.1,24.2,68.3,23.7,68.2,23.2z"/>
	</g>
	<g>
		<path class="st1" d="M54.2,9.1c0.8,0,1.4-0.6,1.4-1.4c0-0.8-0.6-1.4-1.4-1.4s-1.4,0.6-1.4,1.4C52.8,8.4,53.4,9.1,54.2,9.1z"/>
		<path class="st1" d="M65.5,19.8c-0.2-0.5-0.7-0.8-1.2-0.6l-0.2,0.1l0,0c-1.3,0.4-2.1-0.6-3.6-2.4c-1.4-1.8-3.2-3.9-6-3.9
			c0,0,0,0-0.1,0c-4.6,0-6.2,3.5-7.5,6.1c-0.4,0.8-0.8,1.6-1.2,2.2c-0.3,0.4-1,0.8-1.5,0.6c-0.3-0.1-0.4-0.3-0.5-0.3
			c-0.3-0.5-0.2-1.2,0.1-1.7c0.4-0.5,1-1.2,1.7-1.8c2.1-2,4.9-4.7,3.5-9.1c-0.9-2.7-3.5-3.7-5.6-4.5c-2.2-0.8-3.4-1.3-3.4-2.7V1.6
			c0-0.5-0.4-0.9-0.9-0.9c-0.5,0-0.9,0.4-0.9,0.9v0.2c0,1.3-1.2,1.9-3.4,2.7c-2.1,0.8-4.7,1.8-5.6,4.5c-1.4,4.4,1.4,7.1,3.5,9.1
			c0.7,0.6,1.3,1.3,1.7,1.8c0.3,0.4,0.4,1.1,0.1,1.6c-0.1,0.1-0.2,0.3-0.6,0.4c-0.5,0.2-1.2-0.2-1.5-0.6c-0.4-0.5-0.8-1.3-1.2-2.2
			c-1.2-2.6-2.9-6.1-7.5-6.1c0,0,0,0-0.1,0c-2.8,0-4.6,2.2-6,3.9c-1.4,1.8-2.3,2.8-3.6,2.4l0,0L14,19.2c-0.5-0.2-1,0.1-1.2,0.6
			c-0.2,0.5,0.1,1,0.6,1.2l0.2,0.1l0,0c1.3,0.4,1.4,1.7,1.5,4c0.1,2.2,0.2,5,2.5,6.7c1.4,1,2.7,1.4,4,1.4c2.1,0,4.1-1,5.7-1.9
			c0.8-0.4,1.6-0.9,2.2-1c0.5-0.1,1.3,0,1.6,0.4c0.1,0.1,0.2,0.3,0.2,0.5c0,0.6-0.5,1.2-1.1,1.3c-0.6,0.2-1.5,0.3-2.4,0.5
			c-2.8,0.4-6.7,0.9-8.1,5.3c-0.9,2.7,0.7,5,1.9,6.9c1.3,1.9,1.9,3.1,1.2,4.2l-0.1,0.1c-0.3,0.4-0.2,1,0.2,1.3
			c0.2,0.1,0.4,0.2,0.5,0.2c0.3,0,0.6-0.1,0.8-0.4l0.1-0.1l0,0c0.8-1.1,2.1-0.8,4.3-0.2c1.2,0.3,2.5,0.7,3.9,0.7
			c1.1,0,2.2-0.3,3.3-1c3.7-2.7,3-6.5,2.5-9.4c-0.2-0.9-0.3-1.8-0.3-2.4c0-0.5,0.4-1.2,0.9-1.4c0.3-0.1,0.6,0,0.7,0
			c0.5,0.2,0.8,0.9,0.8,1.4c0,0.7-0.1,1.5-0.3,2.4c-0.5,2.8-1.2,6.7,2.5,9.4c1,0.7,2.2,1,3.3,1c1.3,0,2.7-0.4,3.9-0.7
			c2.2-0.6,3.5-0.9,4.3,0.2c0,0,0,0,0,0l0.1,0.1c0.2,0.3,0.5,0.4,0.8,0.4c0.2,0,0.4-0.1,0.5-0.2c0.4-0.3,0.5-0.9,0.2-1.3l-0.1-0.1
			c0,0,0,0,0,0c-0.8-1.1-0.1-2.2,1.2-4.2c1.2-1.9,2.8-4.2,1.9-6.9c-1.4-4.4-5.3-4.9-8.1-5.3c-0.9-0.1-1.8-0.2-2.4-0.5
			c-0.5-0.2-1-0.7-1.1-1.3c0-0.3,0.1-0.6,0.2-0.7c0.4-0.4,1.1-0.5,1.6-0.4c0.6,0.2,1.4,0.6,2.2,1c1.6,0.9,3.5,1.9,5.7,1.9
			c1.3,0,2.6-0.4,4-1.4c2.3-1.7,2.4-4.5,2.5-6.7c0.1-2.3,0.2-3.6,1.5-4l0,0l0.2-0.1C65.4,20.8,65.7,20.3,65.5,19.8z M61.4,25
			c-0.1,2.1-0.2,4.1-1.7,5.3c-2.7,2-5.3,0.7-7.7-0.6c-0.9-0.5-1.8-1-2.6-1.2c-1.4-0.4-3.2,0.1-3.9,1.5c-0.1,0.1-0.2,0.5-0.3,1
			c-0.2,1.5,1,2.9,2.3,3.4c0.8,0.3,1.8,0.4,2.8,0.6c2.7,0.4,5.6,0.8,6.6,4c0.6,1.8-0.5,3.5-1.7,5.3c-0.8,1.2-1.6,2.5-1.8,3.8
			c-1.3-0.2-2.8,0.2-4.1,0.5c-2.1,0.6-4,1.1-5.6,0c-2.8-2-2.3-4.8-1.8-7.5c0.2-1,0.4-2,0.3-2.8c0-1.5-1.1-3-2.7-3.2
			c-0.1,0-0.4,0-0.8,0c-1.6,0.2-2.7,1.8-2.7,3.2c0,0.9,0.1,1.8,0.3,2.8c0.5,2.7,1,5.5-1.8,7.5c-1.6,1.1-3.5,0.6-5.6,0
			c-1.4-0.4-2.8-0.8-4.1-0.5c-0.2-1.3-1-2.6-1.8-3.8c-1.2-1.8-2.3-3.5-1.7-5.3c1-3.2,3.9-3.6,6.6-4c1-0.1,2-0.3,2.8-0.6
			c1.4-0.5,2.6-2,2.2-3.6c-0.1-0.3-0.2-0.6-0.2-0.7c-0.7-1.5-2.5-2-3.9-1.6c-0.8,0.2-1.7,0.7-2.6,1.2c-2.4,1.3-4.9,2.7-7.7,0.6
			c-1.6-1.1-1.6-3.2-1.7-5.3c-0.1-1.4-0.1-2.9-0.8-4.1c1.2-0.6,2.2-1.8,3-2.9c1.3-1.7,2.6-3.2,4.5-3.2c0,0,0,0,0,0
			c3.4,0,4.6,2.6,5.8,5c0.4,0.9,0.9,1.8,1.4,2.5c0.6,0.8,1.7,1.4,2.7,1.4c0.4,0,0.7-0.1,1.1-0.2c0.5-0.2,0.8-0.5,0.9-0.6
			c1.1-1.1,1-2.9,0.2-4.1c-0.5-0.7-1.2-1.4-1.9-2.1c-2-1.9-4.1-3.9-3-7.1c0.6-1.8,2.5-2.5,4.5-3.3c1.3-0.5,2.8-1,3.7-2
			c0.9,1,2.3,1.5,3.7,2c2,0.8,3.9,1.5,4.5,3.3c1.1,3.2-1,5.2-3,7.1c-0.7,0.7-1.5,1.4-1.9,2.1c-0.8,1.2-0.9,2.9,0.1,4.1
			c0.1,0.1,0.5,0.5,0.9,0.7c0.4,0.2,0.8,0.3,1.2,0.3c1.1,0,2.1-0.6,2.7-1.4c0.5-0.7,1-1.6,1.4-2.5c1.2-2.5,2.4-5,5.8-5c0,0,0,0,0,0
			c1.9,0,3.2,1.6,4.5,3.2c0.9,1.1,1.8,2.3,3,2.9C61.6,22,61.5,23.6,61.4,25z"/>
		<path class="st1" d="M39.2,23.8c-2.5,0-4.5,2-4.5,4.5c0,2.5,2,4.5,4.5,4.5c2.5,0,4.5-2,4.5-4.5C43.7,25.9,41.7,23.8,39.2,23.8z
			 M39.2,31c-1.4,0-2.6-1.2-2.6-2.6c0-1.4,1.2-2.6,2.6-2.6c1.4,0,2.6,1.2,2.6,2.6C41.8,29.8,40.6,31,39.2,31z"/>
		<path class="st1" d="M24.1,9.1c0.8,0,1.4-0.6,1.4-1.4c0-0.8-0.6-1.4-1.4-1.4c-0.8,0-1.4,0.6-1.4,1.4C22.7,8.4,23.3,9.1,24.1,9.1z"
			/>
		<path class="st1" d="M14.9,37.7c0.8,0,1.4-0.6,1.4-1.4c0-0.8-0.6-1.4-1.4-1.4s-1.4,0.6-1.4,1.4C13.4,37.1,14.1,37.7,14.9,37.7z"/>
		<path class="st1" d="M63.5,37.7c0.8,0,1.4-0.6,1.4-1.4c0-0.8-0.6-1.4-1.4-1.4c-0.8,0-1.4,0.6-1.4,1.4
			C62.1,37.1,62.8,37.7,63.5,37.7z"/>
		<path class="st1" d="M39.2,55.4c0.8,0,1.4-0.6,1.4-1.4c0-0.8-0.6-1.4-1.4-1.4s-1.4,0.6-1.4,1.4C37.8,54.7,38.4,55.4,39.2,55.4z"/>
	</g>
	<g>
		<g>
			<g>
				<path class="st2" d="M7.4,23.8c-2.2,0-4.4-0.8-6.6-3.1c-0.4-0.4-0.3-1,0-1.3c0.4-0.4,1-0.3,1.3,0c4.1,4.2,8,2.3,12.5,0.1
					c4.5-2.2,9.7-4.7,14.7,0.5c0.4,0.4,0.3,1,0,1.3c-0.4,0.4-1,0.3-1.3,0c-4.1-4.2-8-2.3-12.5-0.1C12.9,22.4,10.2,23.8,7.4,23.8z"/>
			</g>
		</g>
		<g>
			<g>
				<path class="st2" d="M7.4,33.8c-2.2,0-4.4-0.8-6.6-3.1c-0.4-0.4-0.3-1,0-1.3c0.4-0.4,1-0.3,1.3,0c4.1,4.2,8,2.3,12.5,0.1
					c4.5-2.2,9.7-4.7,14.7,0.5c0.4,0.4,0.3,1,0,1.3c-0.4,0.4-1,0.3-1.3,0c-4.1-4.2-8-2.3-12.5-0.1C12.9,32.5,10.2,33.8,7.4,33.8z"/>
			</g>
		</g>
		<g>
			<g>
				<path class="st2" d="M7.4,43.8c-2.2,0-4.4-0.8-6.6-3.1c-0.4-0.4-0.3-1,0-1.3c0.4-0.4,1-0.3,1.3,0c4.1,4.2,8,2.3,12.5,0.1
					c4.5-2.2,9.7-4.7,14.7,0.5c0.4,0.4,0.3,1,0,1.3c-0.4,0.4-1,0.3-1.3,0c-4.1-4.2-8-2.3-12.5-0.1C12.9,42.5,10.2,43.8,7.4,43.8z"/>
			</g>
		</g>
	</g>
	<g>
		<path class="st1" d="M96.8,30.4c-1.4,0.7-3.3,1.1-5.2,1.1c-6.1,0-9.8-3.9-9.8-10.3c0-6.7,3.7-10.7,10-10.7c1.8,0,3.5,0.4,4.8,1
			l0.2,0.1l0.7-1.8l-0.2-0.1c-0.6-0.3-2.4-1-5.6-1c-7.3,0-12.2,5-12.2,12.5c0,9,6.1,12.2,11.4,12.2c3,0,5.3-0.6,6.5-1.2l0.2-0.1
			L97,30.3L96.8,30.4z"/>
		<path class="st1" d="M107.9,9l-8.7,24h2.2l2.9-8.3h9l3,8.3h2.2l-8.7-24H107.9z M112.6,22.9H105l2.8-7.7c0.4-1.3,0.8-2.4,1.1-3.5
			c0.3,1.1,0.6,2.1,1.1,3.5L112.6,22.9z"/>
		<path class="st1" d="M137.8,9.1h-12.2v6c0,5-0.4,8.4-1.2,11.1c-0.5,1.6-1.3,3.1-2,4.5l-0.3,0.5h-1.8l0.2,4h1.6l0.3-2.2h15.1
			l0.3,2.2h1.6l0.2-4h-1.9V9.1z M135.7,10.9v20.3h-11.4c0.9-1.6,1.5-3.1,2-4.5c0.9-2.7,1.3-6.1,1.3-10.8v-5H135.7z"/>
		<path class="st1" d="M148.4,18c-0.6,0-1.9,0.1-2.7,0.1V9h-2.1v24l0.2,0c0.3,0,0.6,0,1,0.1c0.8,0.1,1.9,0.1,3.1,0.1
			c2.4,0,5.7-0.5,7.7-2.7c1.2-1.3,1.8-3,1.8-5.1C157.5,20.7,154.2,18,148.4,18z M155.4,25.5c0,4.4-3.7,5.9-7.1,5.9
			c-1,0-1.8,0-2.6-0.1V20c0.5,0,1.4-0.1,2.5-0.1C150.4,19.9,155.4,20.4,155.4,25.5z"/>
		<rect x="160" y="9" class="st1" width="2.1" height="24"/>
		<g>
			<polygon class="st2" points="140.3,46.7 140.3,36.3 138.1,36.3 138.1,49 139.7,49 146.5,38.4 146.5,49 148.6,49 148.6,36.3 
				146.9,36.3 			"/>
			<polygon class="st2" points="153.8,46.7 153.8,36.3 151.6,36.3 151.6,49 153.2,49 160,38.4 160,49 162.1,49 162.1,36.3 
				160.4,36.3 			"/>
			<path class="st2" d="M98.1,36.1c-3.9,0-7,3-7,6.6c0,3.7,3.1,6.6,7,6.6c3.9,0,7-3,7-6.6C105.1,39,102,36.1,98.1,36.1z M98.1,48.7
				c-2.5,0-4.5-2-4.5-6c0-4,2-6,4.5-6s4.5,2.1,4.5,6C102.7,46.5,100.6,48.7,98.1,48.7z"/>
			<path class="st2" d="M84.8,36.3c-1.5,0-2,0-2,0h-2.1V49h2.1v-5.9c4.4,0.9,6.7-0.6,6.7-3.3C89.4,37,86.3,36.3,84.8,36.3z
				 M82.8,42.4v-5.2c0.5,0,1.2,0,1.6,0c1,0,2.8,0.6,2.8,2.8C87.1,43.1,84.1,42.9,82.8,42.4z"/>
			<path class="st2" d="M115.1,37c1.9,0,3.5,1.2,4.4,3l1-0.6c-1.2-2-3.4-3.3-5.9-3.3c-3.8,0-6.9,3-6.9,6.6c0,3.7,3.1,6.6,6.9,6.6
				c2.5,0,4.7-1.3,5.9-3.3l-1-0.6c-0.8,1.8-2.5,3-4.4,3c-2.7,0-5-2.6-5-5.7C110.1,39.5,112.3,37,115.1,37z"/>
			<path class="st2" d="M130.3,37c1.9,0,3.5,1.2,4.4,3l1-0.6c-1.2-2-3.4-3.3-5.9-3.3c-3.8,0-6.9,3-6.9,6.6c0,3.7,3.1,6.6,6.9,6.6
				c2.5,0,4.7-1.3,5.9-3.3l-1-0.6c-0.8,1.8-2.5,3-4.4,3c-2.7,0-5-2.6-5-5.7C125.3,39.5,127.6,37,130.3,37z"/>
		</g>
	</g>
	<g>
		<path class="st3" d="M206.8,38.4l-40,13.2c-2.1,0.7-4.3-0.4-4.9-2.5l-6.4-19.5c-0.7-2.1,0.4-4.3,2.5-4.9l40-13.2
			c2.1-0.7,4.3,0.4,4.9,2.5l6.4,19.5C209.9,35.5,208.8,37.7,206.8,38.4z"/>
		<g>
			<path class="st4" d="M173.2,41.1c-0.1-0.3-0.4-0.4-0.6-0.3l-4.8,1.6l0.1-0.1c2-4,3.2-6.6,2.4-9.2c-0.6-1.8-2.4-3.4-5.1-2.5
				c-1.2,0.4-2.3,1.3-3,2.4c-0.1,0.2-0.1,0.5,0.1,0.6l0.6,0.5c0.1,0.1,0.3,0.1,0.4,0.1c0.1,0,0.3-0.1,0.4-0.2
				c0.5-0.8,1.2-1.4,1.9-1.7c1.4-0.5,2.4,0,2.9,1.5c0.6,1.8-0.1,3.7-2.5,8.3l-0.7,1.5c-0.1,0.1-0.1,0.3,0,0.4l0.2,0.5
				c0.1,0.2,0.3,0.3,0.5,0.3c0.1,0,0.1,0,0.2,0l7.2-2.4c0.1,0,0.2-0.1,0.3-0.2c0.1-0.1,0.1-0.3,0-0.4L173.2,41.1z"/>
			<path class="st4" d="M183.5,33.8c0-0.1-0.1-0.2-0.2-0.3c-0.1-0.1-0.3-0.1-0.4,0l-1.4,0.4l-2.4-7.3c-0.1-0.3-0.4-0.4-0.6-0.3
				l-0.7,0.2c-0.2,0-0.3,0.2-0.3,0.3l-3.3,9.8c0,0.1,0,0.2,0,0.3l0.2,0.6c0,0.1,0.1,0.2,0.2,0.3c0.1,0.1,0.3,0.1,0.4,0l5.3-1.7
				l1,3.1c0,0.1,0.1,0.2,0.2,0.3c0.1,0,0.1,0.1,0.2,0.1c0.1,0,0.1,0,0.2,0l0.9-0.3c0.3-0.1,0.4-0.4,0.3-0.6l-1-3.1l1.4-0.4
				c0.3-0.1,0.4-0.4,0.3-0.6L183.5,33.8z M176.4,35.6l1.8-5.3c0,0,0-0.1,0-0.1c0,0,0,0,0,0l1.4,4.4L176.4,35.6z"/>
			<path class="st4" d="M189,22.1l-0.9,0.3c-0.2,0.1-0.3,0.2-0.3,0.4l-1.5,15.4c0,0.2,0.1,0.3,0.2,0.4c0.1,0.1,0.2,0.1,0.3,0.1
				c0.1,0,0.1,0,0.2,0l0.9-0.3c0.2-0.1,0.3-0.2,0.3-0.4l1.5-15.4c0-0.2-0.1-0.3-0.2-0.4C189.3,22.1,189.1,22.1,189,22.1z"/>
			<path class="st4" d="M200,20.4l-0.2-0.6c0-0.1-0.1-0.2-0.2-0.3c-0.1-0.1-0.3-0.1-0.4,0l-7,2.3c-0.3,0.1-0.4,0.4-0.3,0.6l0.2,0.7
				c0,0.1,0.1,0.2,0.2,0.3c0.1,0.1,0.3,0.1,0.4,0l5.4-1.8L196.5,34c0,0.2,0,0.3,0.2,0.4c0.1,0.1,0.2,0.1,0.3,0.1c0.1,0,0.1,0,0.2,0
				l0.9-0.3c0.2-0.1,0.3-0.2,0.3-0.4l1.7-13.2C200,20.6,200,20.5,200,20.4z"/>
		</g>
		<g>
			<path class="st3" d="M157.5,26.3c0,0-0.1,0-0.1,0c-0.3-0.1-0.4-0.3-0.3-0.6l4.6-16.8c0.1-0.2,0.3-0.4,0.5-0.4l36.2,4.1
				c0.3,0,0.5,0.3,0.4,0.6c0,0.3-0.3,0.5-0.6,0.4l-35.8-4L158,25.9C157.9,26.1,157.7,26.3,157.5,26.3z"/>
		</g>
	</g>
</g>
</svg>
