<?xml version="1.0" encoding="utf-8"?>
<!-- Generator: Adobe Illustrator 19.2.1, SVG Export Plug-In . SVG Version: 6.00 Build 0)  -->
<svg version="1.1" id="sign" xmlns="http://www.w3.org/2000/svg" xmlns:xlink="http://www.w3.org/1999/xlink" x="0px" y="0px"
	 viewBox="0 0 44 63" style="enable-background:new 0 0 44 63;" xml:space="preserve">
<style type="text/css">
	.st0{fill:#53BED0;}
</style>
<g>
	<path class="st0" d="M22,42C11,42,2,33,2,22S11,2,22,2s20,9,20,20S33,42,22,42z M22,4C12.1,4,4,12.1,4,22s8.1,18,18,18
		s18-8.1,18-18S31.9,4,22,4z"/>
</g>
<g>
	<path class="st0" d="M31.5,27c-0.3,0-0.6-0.1-0.8-0.3L22,16.7l-8.8,9.9c-0.4,0.4-1,0.5-1.4,0.1c-0.4-0.4-0.5-1-0.1-1.4l9.5-10.8
		c0.4-0.4,1.1-0.4,1.5,0l9.5,10.8c0.4,0.4,0.3,1-0.1,1.4C32,26.9,31.7,27,31.5,27z"/>
</g>
<g>
	<path class="st0" d="M3,48.8v3.9h3.7v-3.9h1.2V58H6.7v-4.4H3V58H1.8v-9.3H3z"/>
	<path class="st0" d="M13.6,58l-0.1-0.8h0c-0.4,0.5-1.1,1-2,1c-1.4,0-2-1-2-1.9c0-1.6,1.4-2.5,4-2.5v-0.1c0-0.6-0.2-1.5-1.5-1.5
		c-0.6,0-1.3,0.2-1.7,0.5l-0.3-0.8c0.6-0.4,1.4-0.6,2.2-0.6c2,0,2.5,1.4,2.5,2.7v2.5c0,0.6,0,1.1,0.1,1.6H13.6z M13.4,54.6
		c-1.3,0-2.8,0.2-2.8,1.5c0,0.8,0.5,1.2,1.1,1.2c0.9,0,1.4-0.6,1.6-1.1c0-0.1,0.1-0.3,0.1-0.4V54.6z"/>
	<path class="st0" d="M16.5,51.5c0.5-0.1,1.3-0.2,2.1-0.2c1.1,0,3,0.2,3,1.7c0,0.8-0.6,1.3-1.4,1.5v0c1,0.1,1.7,0.7,1.7,1.7
		c0,1.8-2.2,2-3.5,2c-0.7,0-1.5-0.1-1.9-0.1V51.5z M17.7,57.2c0.3,0,0.6,0.1,1,0.1c0.8,0,2-0.2,2-1.2c0-1-1-1.2-2.1-1.2h-0.9V57.2z
		 M17.7,54.2h0.9c0.9,0,1.8-0.3,1.8-1c0-0.7-0.6-1-1.8-1c-0.4,0-0.6,0-0.9,0.1V54.2z"/>
	<path class="st0" d="M24.1,54.9c0,1.6,1.1,2.3,2.3,2.3c0.9,0,1.4-0.2,1.8-0.3l0.2,0.9c-0.4,0.2-1.2,0.4-2.2,0.4
		c-2.1,0-3.3-1.4-3.3-3.4c0-2,1.2-3.6,3.1-3.6c2.2,0,2.8,1.9,2.8,3.1c0,0.2,0,0.4,0,0.6H24.1z M27.7,54.1c0-0.8-0.3-2-1.7-2
		c-1.2,0-1.8,1.1-1.9,2H27.7z"/>
	<path class="st0" d="M30.4,53.6c0-0.9,0-1.5-0.1-2.2h1.1l0.1,1.1h0c0.5-0.8,1.3-1.3,2.4-1.3c1.6,0,2.8,1.4,2.8,3.4
		c0,2.4-1.5,3.6-3,3.6c-0.9,0-1.7-0.4-2.1-1h0v3.6h-1.2V53.6z M31.6,55.3c0,0.2,0,0.3,0.1,0.5c0.2,0.8,1,1.4,1.8,1.4
		c1.3,0,2-1,2-2.6c0-1.3-0.7-2.5-2-2.5c-0.8,0-1.6,0.6-1.8,1.5c0,0.2-0.1,0.3-0.1,0.5V55.3z"/>
	<path class="st0" d="M38.6,51.4l1,1.4c0.2,0.4,0.5,0.7,0.7,1.1h0c0.2-0.4,0.4-0.7,0.7-1.1l0.9-1.4h1.3l-2.3,3.2l2.3,3.4h-1.4
		l-1-1.5c-0.3-0.4-0.5-0.8-0.7-1.2h0c-0.2,0.4-0.5,0.8-0.7,1.2l-1,1.5h-1.3l2.4-3.4l-2.3-3.3H38.6z"/>
</g>
</svg>
